<svg xmlns="http://www.w3.org/2000/svg" viewBox="0 0 24 24">
  <title>Police</title>
  <g>
    <path d="M17.995,7.159C18,7.106,18,7.053,18,7a6.029,6.029,0,0,0-.136-1.265.5.5,0,0,0-.489-.4H6.625a.5.5,0,0,0-.489.4A6.029,6.029,0,0,0,6,7c0,.043,0,.087,0,.13A2.669,2.669,0,0,0,5,9.5c0,1.391.614,2.448,1.438,2.5.909,3.012,3.1,5,5.562,5s4.653-1.99,5.562-5C18.386,11.948,19,10.891,19,9.5A2.613,2.613,0,0,0,17.995,7.159Z" fill="#ffe082"/>
    <path d="M10.621,17.815a6.427,6.427,0,0,1-3.152-1.952.5.5,0,0,0-.559-.125L2.8,17.427A3.5,3.5,0,0,0,.69,19.982L.01,23.4A.5.5,0,0,0,.5,24h10a.5.5,0,0,0,.5-.5V18.3A.5.5,0,0,0,10.621,17.815Z" fill="#607d8b"/>
    <path d="M23.31,19.981a3.5,3.5,0,0,0-2.11-2.554l-4.11-1.69a.5.5,0,0,0-.559.125,6.427,6.427,0,0,1-3.152,1.952A.5.5,0,0,0,13,18.3v5.2a.5.5,0,0,0,.5.5h10a.5.5,0,0,0,.49-.6Z" fill="#546e7a"/>
    <path d="M10.5,10h-1a.5.5,0,0,1,0-1h1a.5.5,0,0,1,0,1Z" fill="#455a64"/>
    <path d="M14.5,10h-1a.5.5,0,0,1,0-1h1a.5.5,0,0,1,0,1Z" fill="#455a64"/>
    <path d="M17.812,5.6a.5.5,0,0,0-.437-.257H6.625A.5.5,0,0,0,6.2,6.1C6.742,6.978,8.585,8,12,8s5.258-1.022,5.8-1.9A.5.5,0,0,0,17.812,5.6Z" fill="#607d8b"/>
    <path d="M18.5,3a5.707,5.707,0,0,1-2.273-1.167C14.952.974,13.506,0,12,0S9.048.974,7.773,1.833A5.707,5.707,0,0,1,5.5,3a.5.5,0,0,0-.5.5v1A1.5,1.5,0,0,0,6.5,6h11A1.5,1.5,0,0,0,19,4.5v-1A.5.5,0,0,0,18.5,3Z" fill="#455a64"/>
    <path d="M12,4a1,1,0,0,1-1-1V2.5a.5.5,0,0,1,.5-.5h1a.5.5,0,0,1,.5.5V3A1,1,0,0,1,12,4Z" fill="#ffc107"/>
    <path d="M18.5,19h-2a.5.5,0,0,0-.5.5v1a.5.5,0,0,0,.146.354l1,1a.5.5,0,0,0,.707,0l1-1A.5.5,0,0,0,19,20.5v-1A.5.5,0,0,0,18.5,19Z" fill="#ffc107"/>
    <path d="M13.8,17.9a.5.5,0,0,0-.44-.08,5.242,5.242,0,0,1-2.72,0,.5.5,0,0,0-.64.48v5.2a.5.5,0,0,0,.5.5h3a.5.5,0,0,0,.5-.5V18.3A.5.5,0,0,0,13.8,17.9Z" fill="#455a64"/>
  </g>
  <g>
    <path d="M21.012,17.89,16.9,16.2A6.645,6.645,0,0,1,12,18.5a6.645,6.645,0,0,1-4.9-2.3L2.988,17.89a3,3,0,0,0-1.8,2.188L.5,23.5h23l-.684-3.423A3,3,0,0,0,21.012,17.89Z" fill="none" stroke="#000" stroke-linecap="round" stroke-linejoin="round"/>
    <line x1="9.5" y1="9.5" x2="10.5" y2="9.5" fill="none" stroke="#000" stroke-linecap="round" stroke-linejoin="round"/>
    <line x1="13.5" y1="9.5" x2="14.5" y2="9.5" fill="none" stroke="#000" stroke-linecap="round" stroke-linejoin="round"/>
    <path d="M6.625,5.84A5.514,5.514,0,0,0,6.5,7a4.843,4.843,0,0,0,.043.509c-.015,0-.028-.009-.043-.009-.552,0-1,.9-1,2s.448,2,1,2a.563.563,0,0,0,.293-.1c.735,2.962,2.786,5.1,5.207,5.1s4.471-2.135,5.206-5.1a.563.563,0,0,0,.294.1c.552,0,1-.9,1-2s-.448-2-1-2c-.015,0-.029.007-.043.009A4.848,4.848,0,0,0,17.5,7a5.514,5.514,0,0,0-.125-1.16" fill="none" stroke="#000" stroke-linecap="round" stroke-linejoin="round"/>
    <path d="M17.375,5.84C16.937,6.547,15.225,7.5,12,7.5S7.063,6.547,6.625,5.84" fill="none" stroke="#000" stroke-linecap="round" stroke-linejoin="round"/>
    <path d="M12,.5c-2.438,0-4.938,3-6.5,3v1a1,1,0,0,0,1,1h11a1,1,0,0,0,1-1v-1C16.937,3.5,14.437.5,12,.5Z" fill="none" stroke="#000" stroke-linecap="round" stroke-linejoin="round"/>
    <path d="M11.5,2.5V3a.5.5,0,0,0,1,0V2.5Z" fill="none" stroke="#000" stroke-linecap="round" stroke-linejoin="round"/>
    <polygon points="16.5 19.5 18.5 19.5 18.5 20.5 17.5 21.5 16.5 20.5 16.5 19.5" fill="none" stroke="#000" stroke-linecap="round" stroke-linejoin="round"/>
    <line x1="10.5" y1="18.5" x2="10.5" y2="23.5" fill="none" stroke="#000" stroke-linecap="round" stroke-linejoin="round"/>
    <line x1="13.5" y1="18.5" x2="13.5" y2="23.5" fill="none" stroke="#000" stroke-linecap="round" stroke-linejoin="round"/>
  </g>
</svg>
