<svg xmlns="http://www.w3.org/2000/svg" viewBox="0 0 24 24">
  <title>Harry Potter</title>
  <g>
    <path d="M18.8,8.228a.516.516,0,0,0-.514-.336l-.961.08A4.744,4.744,0,0,1,17,6.5a.5.5,0,0,0-.5-.5C13.56,6,11.056,4,11,3.5a.5.5,0,0,0-1,0,1.314,1.314,0,0,1-.346.981A3,3,0,0,1,7.631,5a.875.875,0,0,0-.7.254A4.617,4.617,0,0,0,6.47,7.933c-.436-.042-1.115-.163-1.272.294A3.973,3.973,0,0,0,5,9.5c0,1.395.618,2.454,1.445,2.5.9,3.012,3.091,5,5.555,5s4.65-1.99,5.555-5c.828-.045,1.445-1.1,1.445-2.5A3.973,3.973,0,0,0,18.8,8.228Z" fill="#ffe082"/>
    <path d="M19.635,16.626l-2.572-.895a.5.5,0,0,0-.532.135c-.314.343-.651.763-1.006,1.207C14.481,18.377,13.185,20,12,20s-2.481-1.623-3.524-2.927c-.354-.444-.691-.864-1.006-1.207a.5.5,0,0,0-.532-.135l-2.572.895A6.506,6.506,0,0,0,0,22.766V23.5a.5.5,0,0,0,.5.5h23a.5.5,0,0,0,.5-.5v-.734A6.506,6.506,0,0,0,19.635,16.626Z" fill="#455a64"/>
    <circle cx="9.75" cy="9.75" r="1.25" fill="#eceff1"/>
    <path d="M9.75,11.5A1.75,1.75,0,1,1,11.5,9.75,1.752,1.752,0,0,1,9.75,11.5Zm0-2.5a.75.75,0,1,0,.75.75A.751.751,0,0,0,9.75,9Z" fill="#607d8b"/>
    <circle cx="14.25" cy="9.75" r="1.25" fill="#eceff1"/>
    <path d="M14.25,11.5A1.75,1.75,0,1,1,16,9.75,1.752,1.752,0,0,1,14.25,11.5Zm0-2.5a.75.75,0,1,0,.75.75A.751.751,0,0,0,14.25,9Z" fill="#607d8b"/>
    <path d="M13,10.25a.5.5,0,0,1-.248-.065,1.626,1.626,0,0,0-1.507,0,.5.5,0,0,1-.493-.87,2.627,2.627,0,0,1,2.5,0A.5.5,0,0,1,13,10.25Z" fill="#607d8b"/>
    <path d="M9,8a.5.5,0,0,1-.447-.724l.5-1A.5.5,0,0,1,9.5,6h.691l.361-.724a.5.5,0,1,1,.895.447l-.5,1A.5.5,0,0,1,10.5,7H9.809l-.361.724A.5.5,0,0,1,9,8Z" fill="#ffa000"/>
    <path d="M8.5,10a.5.5,0,0,1-.277-.084l-1.5-1a.5.5,0,0,1,.555-.832l1.5,1A.5.5,0,0,1,8.5,10Z" fill="#607d8b"/>
    <path d="M15.5,10a.5.5,0,0,1-.277-.916l1.5-1a.5.5,0,0,1,.555.832l-1.5,1A.5.5,0,0,1,15.5,10Z" fill="#607d8b"/>
    <path d="M12,0A7.008,7.008,0,0,0,5,7a6.789,6.789,0,0,0,.182,1.5.5.5,0,0,0,.488.392,10.029,10.029,0,0,1,1.255.1A.5.5,0,0,0,7.5,8.463,7.545,7.545,0,0,1,7.63,6a3.773,3.773,0,0,0,2.729-.811,2.053,2.053,0,0,0,.333-.434,9.131,9.131,0,0,0,5.344,2.229A7.339,7.339,0,0,0,16.543,8.7.5.5,0,0,0,17,9h.041l1.33-.11a.5.5,0,0,0,.447-.39A6.789,6.789,0,0,0,19,7,7.008,7.008,0,0,0,12,0Z" fill="#455a64"/>
  </g>
  <g>
    <path d="M18.5,7a6.5,6.5,0,0,0-13,0,6.443,6.443,0,0,0,.168,1.391A3.544,3.544,0,0,0,5.5,9.5c0,1.1.448,2,1,2a.565.565,0,0,0,.3-.1c.734,2.963,2.783,5.1,5.2,5.1s4.47-2.136,5.2-5.1a.565.565,0,0,0,.3.1c.552,0,1-.9,1-2a3.545,3.545,0,0,0-.168-1.109A6.443,6.443,0,0,0,18.5,7Z" fill="none" stroke="#000" stroke-linecap="round" stroke-linejoin="round"/>
    <path d="M19.471,17.1,16.9,16.2c-1.325,1.446-3.043,4.3-4.9,4.3s-3.574-2.85-4.9-4.3L4.529,17.1A6,6,0,0,0,.5,22.766V23.5h23v-.734A6,6,0,0,0,19.471,17.1Z" fill="none" stroke="#000" stroke-linecap="round" stroke-linejoin="round"/>
    <path d="M5.668,8.391A10.513,10.513,0,0,1,7,8.5s-.219-3,.5-3,3,.094,3-2c0,.906,2.937,3,6,3a6.087,6.087,0,0,0,.5,2l1.332-.109" fill="none" stroke="#000" stroke-linecap="round" stroke-linejoin="round"/>
    <circle cx="9.75" cy="9.75" r="1.25" fill="none" stroke="#000" stroke-linecap="round" stroke-linejoin="round"/>
    <circle cx="14.25" cy="9.75" r="1.25" fill="none" stroke="#000" stroke-linecap="round" stroke-linejoin="round"/>
    <path d="M11,9.75a2.125,2.125,0,0,1,2,0" fill="none" stroke="#000" stroke-linecap="round" stroke-linejoin="round"/>
    <polyline points="9 7.5 9.5 6.5 10.5 6.5 11 5.5" fill="none" stroke="#000" stroke-linecap="round" stroke-linejoin="round"/>
    <line x1="8.5" y1="9.5" x2="7" y2="8.5" fill="none" stroke="#000" stroke-linecap="round" stroke-linejoin="round"/>
    <line x1="15.5" y1="9.5" x2="17" y2="8.5" fill="none" stroke="#000" stroke-linecap="round" stroke-linejoin="round"/>
  </g>
</svg>
