<svg xmlns="http://www.w3.org/2000/svg" viewBox="0 0 24 24">
  <title>Worker</title>
  <g>
    <path d="M18.621,7.252A.857.857,0,0,0,18,7H6a.857.857,0,0,0-.621.252C4.993,7.639,5,8.309,5,9.236V9.5c0,1.391.614,2.448,1.439,2.5.907,3.012,3.1,5,5.561,5s4.653-1.99,5.561-5C18.386,11.948,19,10.891,19,9.5V9.236C19,8.309,19.007,7.639,18.621,7.252Z" fill="#ffe082"/>
    <path d="M18.724,6.553,18,6.188C17.893,2.979,16.189,1,13.5,1h-3C7.811,1,6.107,2.979,6,6.188l-.729.364a.5.5,0,0,0-.041.871l2.783,1.74A5.494,5.494,0,0,0,10.934,10h2.133a5.493,5.493,0,0,0,2.914-.836l2.784-1.74a.5.5,0,0,0-.041-.871Z" fill="#ffc107"/>
    <g>
      <path d="M4.31,16.808l-1.508.62A3.5,3.5,0,0,0,.689,19.982L.01,23.4A.5.5,0,0,0,.5,24h4a.5.5,0,0,0,.5-.5V17.27a.5.5,0,0,0-.69-.462Z" fill="#607d8b"/>
      <path d="M17.692,15.989l-.6-.25a.5.5,0,0,0-.561.124A6.177,6.177,0,0,1,12,18a6.177,6.177,0,0,1-4.532-2.138.5.5,0,0,0-.561-.124l-.6.25A.5.5,0,0,0,6,16.45V23.5a.5.5,0,0,0,.5.5h11a.5.5,0,0,0,.5-.5V16.45A.5.5,0,0,0,17.692,15.989Z" fill="#607d8b"/>
      <path d="M23.311,19.981a3.5,3.5,0,0,0-2.11-2.553l-1.51-.62a.5.5,0,0,0-.69.462V23.5a.5.5,0,0,0,.5.5h4a.5.5,0,0,0,.49-.6Z" fill="#607d8b"/>
    </g>
    <path d="M13.812.609a3,3,0,0,0-3.625,0A.5.5,0,0,0,10,1V3a2,2,0,0,0,4,0V1A.5.5,0,0,0,13.812.609Z" fill="#ffa000"/>
    <circle cx="12" cy="7" r="3" fill="#455a64"/>
    <path d="M6.778,16.035a.5.5,0,0,0-.468-.047l-2,.82A.5.5,0,0,0,4,17.27V23.5a.5.5,0,0,0,.5.5h2a.5.5,0,0,0,.5-.5V16.45A.5.5,0,0,0,6.778,16.035Z" fill="#455a64"/>
    <path d="M19.689,16.808l-2-.82A.5.5,0,0,0,17,16.45V23.5a.5.5,0,0,0,.5.5h2a.5.5,0,0,0,.5-.5V17.27A.5.5,0,0,0,19.689,16.808Z" fill="#455a64"/>
  </g>
  <g>
    <g>
      <path d="M21.012,17.89,16.9,16.2A6.645,6.645,0,0,1,12,18.5a6.645,6.645,0,0,1-4.9-2.3L2.988,17.89a3,3,0,0,0-1.8,2.188L.5,23.5h23l-.685-3.423A3,3,0,0,0,21.012,17.89Z" fill="none" stroke="#000" stroke-linecap="round" stroke-linejoin="round"/>
      <path d="M6,7.5c-.552,0-.5.9-.5,2s.448,2,1,2a.563.563,0,0,0,.293-.1c.735,2.962,2.786,5.1,5.207,5.1s4.471-2.135,5.206-5.1a.563.563,0,0,0,.294.1c.552,0,1-.9,1-2s.052-2-.5-2" fill="none" stroke="#000" stroke-linecap="round" stroke-linejoin="round"/>
      <path d="M13.5,3V1a2.5,2.5,0,0,0-3,0V3A1.5,1.5,0,0,0,12,4.5h0A1.5,1.5,0,0,0,13.5,3Z" fill="none" stroke="#000" stroke-linecap="round" stroke-linejoin="round"/>
      <path d="M10.5,1.5h0c-2.761,0-4,2.239-4,5L5.5,7,8.284,8.74a5,5,0,0,0,2.65.76h2.132a5,5,0,0,0,2.65-.76L18.5,7l-1-.5c0-2.761-1.239-5-4-5h0" fill="none" stroke="#000" stroke-linecap="round" stroke-linejoin="round"/>
    </g>
    <circle cx="12" cy="7" r="2.5" fill="none" stroke="#000" stroke-linecap="round" stroke-linejoin="round"/>
    <line x1="4.5" y1="17.5" x2="4.5" y2="23.5" fill="none" stroke="#000" stroke-linecap="round" stroke-linejoin="round"/>
    <line x1="6.5" y1="16.5" x2="6.5" y2="23.5" fill="none" stroke="#000" stroke-linecap="round" stroke-linejoin="round"/>
    <line x1="17.5" y1="16.5" x2="17.5" y2="23" fill="none" stroke="#000" stroke-linecap="round" stroke-linejoin="round"/>
    <line x1="19.5" y1="17.5" x2="19.5" y2="23.5" fill="none" stroke="#000" stroke-linecap="round" stroke-linejoin="round"/>
  </g>
</svg>
