<svg xmlns="http://www.w3.org/2000/svg" viewBox="0 0 24 24">
  <title>Male 2</title>
  <path d="M23.985,23.379l-.6-2.4A3.485,3.485,0,0,0,21.1,18.5l-4.4-1.466c-1.073-.447-1.564-2.175-1.67-2.831A4.158,4.158,0,0,0,16.5,11.5a.815.815,0,0,1,.121-.515.5.5,0,0,0,.343-.3A7.474,7.474,0,0,0,17.5,8.5a.481.481,0,0,0-.015-.121A1.286,1.286,0,0,0,17,7.651V5c0-1.611-.492-2.272-1.01-2.655C15.891,1.569,15.06,0,12,0A5.214,5.214,0,0,0,7,5V7.651a1.286,1.286,0,0,0-.485.728A.481.481,0,0,0,6.5,8.5a7.474,7.474,0,0,0,.536,2.186.425.425,0,0,0,.3.287c.056.028.161.173.161.527a4.157,4.157,0,0,0,1.478,2.708c-.105.655-.593,2.382-1.636,2.818L2.9,18.5A3.485,3.485,0,0,0,.616,20.977l-.6,2.4A.5.5,0,0,0,.5,24h23a.5.5,0,0,0,.485-.621Z" fill="#455a64"/>
  <path d="M23.5,23.5l-.6-2.4a3,3,0,0,0-1.962-2.119L16.5,17.5c-1.5-.625-2-3.031-2-3.5A3.862,3.862,0,0,0,16,11.5c0-.875.5-1,.5-1a7.282,7.282,0,0,0,.5-2s-.125-.5-.5-.5V5c0-2.458-1.25-2.25-1-2.5,0-.583-.708-2-3.5-2A4.71,4.71,0,0,0,7.5,5V8c-.375,0-.5.5-.5.5a7.282,7.282,0,0,0,.5,2s.5.125.5,1A3.862,3.862,0,0,0,9.5,14c0,.469-.5,2.875-2,3.5L3.062,18.979A3,3,0,0,0,1.1,21.1L.5,23.5" fill="none" stroke="#000" stroke-linecap="round" stroke-linejoin="round"/>
</svg>
