<svg xmlns="http://www.w3.org/2000/svg" viewBox="0 0 24 24">
  <title>Old Man</title>
  <g>
    <path d="M19.868,6.077c.018-.014.035-.027.053-.043.489-.435.258-1.19.042-1.723C19.06,2.089,15.584,0,14,0a4.327,4.327,0,0,0-2,.41A4.327,4.327,0,0,0,10,0C8.416,0,4.94,2.089,4.037,4.312c-.216.532-.447,1.288.042,1.723.018.016.035.029.053.043A3.848,3.848,0,0,0,3,8.5c0,1.8,2.118,3.341,2.208,3.406A.5.5,0,0,0,5.5,12h13a.5.5,0,0,0,.292-.094C18.882,11.841,21,10.3,21,8.5A3.848,3.848,0,0,0,19.868,6.077Z" fill="#cfd8dc"/>
    <path d="M18,8.129c0-.043,0-.086,0-.129A6,6,0,0,0,6,8c0,.043,0,.086,0,.129A2.672,2.672,0,0,0,5,10.5c0,1.522.753,2.672,1.678,2.482A3.843,3.843,0,0,0,9.5,14a2.444,2.444,0,0,0,1.481-.575A1.681,1.681,0,0,1,12,13a1.681,1.681,0,0,1,1.019.425A2.444,2.444,0,0,0,14.5,14a3.843,3.843,0,0,0,2.822-1.018c.923.182,1.678-.96,1.678-2.482A2.672,2.672,0,0,0,18,8.129Z" fill="#ffe082"/>
    <path d="M19.635,17.626l-2.572-.895a.5.5,0,0,0-.532.135A6.17,6.17,0,0,1,12,19a6.17,6.17,0,0,1-4.53-2.134.5.5,0,0,0-.532-.135l-2.572.895A6.17,6.17,0,0,0,0,23.5a.5.5,0,0,0,.5.5h23a.5.5,0,0,0,.5-.5A6.17,6.17,0,0,0,19.635,17.626Z" fill="#009688"/>
    <path d="M10.5,11h-1a.5.5,0,0,1,0-1h1a.5.5,0,0,1,0,1Z" fill="#546e7a"/>
    <path d="M14.5,11h-1a.5.5,0,0,1,0-1h1a.5.5,0,0,1,0,1Z" fill="#546e7a"/>
    <path d="M8.5,9.5a.5.5,0,0,1-.347-.86A2.223,2.223,0,0,1,9.5,8a.5.5,0,0,1,0,1,1.365,1.365,0,0,0-.653.36A.5.5,0,0,1,8.5,9.5Z" fill="#455a64"/>
    <path d="M15.5,9.5a.5.5,0,0,1-.345-.138A1.341,1.341,0,0,0,14.5,9a.5.5,0,0,1,0-1,2.223,2.223,0,0,1,1.347.64A.5.5,0,0,1,15.5,9.5Z" fill="#455a64"/>
    <path d="M17.456,11.965a.5.5,0,0,0-.6.082A2.921,2.921,0,0,1,14.5,13a1.55,1.55,0,0,1-.906-.394A2.628,2.628,0,0,0,12,12a2.628,2.628,0,0,0-1.594.606A1.55,1.55,0,0,1,9.5,13a2.921,2.921,0,0,1-2.356-.953.5.5,0,0,0-.839.475C7.124,15.8,9.413,18,12,18s4.876-2.2,5.7-5.479A.5.5,0,0,0,17.456,11.965Z" fill="#cfd8dc"/>
    <path d="M12.5,15h-1a.5.5,0,0,1,0-1h1a.5.5,0,0,1,0,1Z" fill="#455a64"/>
  </g>
  <g>
    <g>
      <path d="M19.471,18.1,16.9,17.2A6.645,6.645,0,0,1,12,19.5a6.645,6.645,0,0,1-4.9-2.3L4.529,18.1A5.67,5.67,0,0,0,.5,23.5h23A5.67,5.67,0,0,0,19.471,18.1Z" fill="none" stroke="#000" stroke-linecap="round" stroke-linejoin="round"/>
      <line x1="9.5" y1="10.5" x2="10.5" y2="10.5" fill="none" stroke="#000" stroke-linecap="round" stroke-linejoin="round"/>
      <line x1="13.5" y1="10.5" x2="14.5" y2="10.5" fill="none" stroke="#000" stroke-linecap="round" stroke-linejoin="round"/>
      <path d="M17.5,8.5c-.015,0-.029.007-.043.009A4.845,4.845,0,0,0,17.5,8a5.5,5.5,0,0,0-11,0,4.845,4.845,0,0,0,.043.509c-.015,0-.028-.009-.043-.009-.552,0-1,.9-1,2s.448,2,1,2a.563.563,0,0,0,.293-.1c.735,2.962,2.786,5.1,5.207,5.1s4.471-2.135,5.206-5.1a.563.563,0,0,0,.294.1c.552,0,1-.9,1-2S18.052,8.5,17.5,8.5Z" fill="none" stroke="#000" stroke-linecap="round" stroke-linejoin="round"/>
    </g>
    <path d="M9.5,8.5a1.831,1.831,0,0,0-1,.5" fill="none" stroke="#000" stroke-linecap="round" stroke-linejoin="round"/>
    <path d="M14.5,8.5a1.831,1.831,0,0,1,1,.5" fill="none" stroke="#000" stroke-linecap="round" stroke-linejoin="round"/>
    <path d="M12,1a3.127,3.127,0,0,0-2-.5c-1.438,0-4.688,2-5.5,4s1,1,1,1-2,1.438-2,3,2,3,2,3" fill="none" stroke="#000" stroke-linecap="round" stroke-linejoin="round"/>
    <path d="M12,1a3.127,3.127,0,0,1,2-.5c1.437,0,4.687,2,5.5,4s-1,1-1,1,2,1.438,2,3-2,3-2,3" fill="none" stroke="#000" stroke-linecap="round" stroke-linejoin="round"/>
    <path d="M7,12.5a2.906,2.906,0,0,0,2.5,1c1.031,0,1.375-1,2.5-1" fill="none" stroke="#000" stroke-linecap="round" stroke-linejoin="round"/>
    <path d="M17,12.5a2.906,2.906,0,0,1-2.5,1c-1.031,0-1.375-1-2.5-1" fill="none" stroke="#000" stroke-linecap="round" stroke-linejoin="round"/>
    <line x1="11.5" y1="14.5" x2="12.5" y2="14.5" fill="none" stroke="#000" stroke-linecap="round" stroke-linejoin="round"/>
  </g>
</svg>
