<svg xmlns="http://www.w3.org/2000/svg" viewBox="0 0 24 24">
  <title>Captain America</title>
  <g>
    <path d="M17.394,11.192A.5.5,0,0,0,17,11a27.288,27.288,0,0,1-4.861-.98.5.5,0,0,0-.277,0A27.269,27.269,0,0,1,7,11a.5.5,0,0,0-.485.62C7.333,14.938,9.435,17,12,17s4.667-2.062,5.485-5.38A.5.5,0,0,0,17.394,11.192Z" fill="#ffe082"/>
    <path d="M5.985,6.379l-1-4a.5.5,0,0,0-.959-.037l-1,3a.5.5,0,0,0,.058.436l2,3A.5.5,0,0,0,5.5,9a.5.5,0,0,0,.145-.021A.5.5,0,0,0,6,8.5v-2A.481.481,0,0,0,5.985,6.379Z" fill="#cfd8dc"/>
    <path d="M20.974,5.342l-1-3A.482.482,0,0,0,19.481,2a.5.5,0,0,0-.466.378l-1,4A.481.481,0,0,0,18,6.5v2a.5.5,0,0,0,.355.479A.5.5,0,0,0,18.5,9a.5.5,0,0,0,.416-.223l2-3A.5.5,0,0,0,20.974,5.342Z" fill="#cfd8dc"/>
    <path d="M19,7A7,7,0,0,0,5,7a6.592,6.592,0,0,0,.153,1.366A4.075,4.075,0,0,0,5,9.5c0,1.425.645,2.5,1.572,2.507a2.619,2.619,0,0,0,.281.02A.917.917,0,0,0,7.092,12,27.046,27.046,0,0,0,12,11.02,27.023,27.023,0,0,0,16.91,12a1.7,1.7,0,0,0,.59,0c.855,0,1.5-1.075,1.5-2.5a4.075,4.075,0,0,0-.153-1.134A6.592,6.592,0,0,0,19,7Z" fill="#0277bd"/>
    <path d="M13.5,7a.5.5,0,0,1-.468-.324L12,3.924,10.968,6.676a.5.5,0,0,1-.937-.352l1.5-4a.521.521,0,0,1,.937,0l1.5,4A.5.5,0,0,1,13.5,7Z" fill="#fafafa"/>
    <path d="M13,6H11a.5.5,0,0,1,0-1h2a.5.5,0,0,1,0,1Z" fill="#fafafa"/>
    <g>
      <path d="M9,7C7.144,7,7,8.148,7,8.5S7.144,10,9,10c1.425,0,2.5-.645,2.5-1.5S10.425,7,9,7Z" fill="#ffe082"/>
      <path d="M15,7c-1.425,0-2.5.645-2.5,1.5S13.575,10,15,10c1.856,0,2-1.148,2-1.5S16.856,7,15,7Z" fill="#ffe082"/>
    </g>
    <path d="M21.649,17.327l-4.586-1.6a.5.5,0,0,0-.533.134A6.167,6.167,0,0,1,12,18a6.167,6.167,0,0,1-4.53-2.134.5.5,0,0,0-.533-.134l-4.586,1.6A3.5,3.5,0,0,0,0,20.633V23.5a.5.5,0,0,0,.5.5h23a.5.5,0,0,0,.5-.5V20.633A3.5,3.5,0,0,0,21.649,17.327Z" fill="#0277bd"/>
    <path d="M15.962,22.309A.5.5,0,0,0,15.5,22H13.309l-.862-1.724a.521.521,0,0,0-.895,0L10.691,22H8.5a.5.5,0,0,0-.354.854l1,1A.5.5,0,0,0,9.5,24h5a.5.5,0,0,0,.354-.146l1-1A.5.5,0,0,0,15.962,22.309Z" fill="#fafafa"/>
    <path d="M13,14H11a.5.5,0,0,1,0-1h2a.5.5,0,0,1,0,1Z" fill="#455a64"/>
  </g>
  <g>
    <path d="M18.5,7a6.5,6.5,0,0,0-13,0,6.443,6.443,0,0,0,.168,1.391A3.545,3.545,0,0,0,5.5,9.5c0,1.1.448,2,1,2,.1,0,.406.059.5,0,.734,2.963,2.579,5,5,5s4.266-2.037,5-5c.094.059.4,0,.5,0,.552,0,1-.9,1-2a3.545,3.545,0,0,0-.168-1.109A6.443,6.443,0,0,0,18.5,7Z" fill="none" stroke="#000" stroke-linecap="round" stroke-linejoin="round"/>
    <path d="M7,11.5a27.514,27.514,0,0,0,5-1" fill="none" stroke="#000" stroke-linecap="round" stroke-linejoin="round"/>
    <path d="M17,11.5a27.513,27.513,0,0,1-5-1" fill="none" stroke="#000" stroke-linecap="round" stroke-linejoin="round"/>
    <polyline points="10.5 6.5 12 2.5 13.5 6.5" fill="none" stroke="#000" stroke-linecap="round" stroke-linejoin="round"/>
    <line x1="11" y1="5.5" x2="13" y2="5.5" fill="none" stroke="#000" stroke-linecap="round" stroke-linejoin="round"/>
    <polyline points="5.5 6.5 4.5 2.5 3.5 5.5 5.5 8.5" fill="none" stroke="#000" stroke-linecap="round" stroke-linejoin="round"/>
    <polyline points="18.5 6.5 19.5 2.5 20.5 5.5 18.5 8.5" fill="none" stroke="#000" stroke-linecap="round" stroke-linejoin="round"/>
    <path d="M11,8.5c0,.552-.9,1-2,1s-1.5-.448-1.5-1,.4-1,1.5-1S11,7.948,11,8.5Z" fill="none" stroke="#000" stroke-linecap="round" stroke-linejoin="round"/>
    <path d="M13,8.5c0,.552.9,1,2,1s1.5-.448,1.5-1-.4-1-1.5-1S13,7.948,13,8.5Z" fill="none" stroke="#000" stroke-linecap="round" stroke-linejoin="round"/>
    <path d="M21.485,17.8,16.9,16.2A6.645,6.645,0,0,1,12,18.5a6.645,6.645,0,0,1-4.9-2.3L2.514,17.8A3,3,0,0,0,.5,20.633V23.5h9l-1-1H11l1-2,1,2h2.5l-1,1h9V20.633A3,3,0,0,0,21.485,17.8Z" fill="none" stroke="#000" stroke-linecap="round" stroke-linejoin="round"/>
    <line x1="11" y1="13.5" x2="13" y2="13.5" fill="none" stroke="#000" stroke-linecap="round" stroke-linejoin="round"/>
  </g>
</svg>
