<svg xmlns="http://www.w3.org/2000/svg" viewBox="0 0 24 24">
  <title>Female 1</title>
  <g>
    <path d="M20.854,13.146C19.9,12.19,19,8.615,19,7a.5.5,0,0,0-.5-.5H5.5A.5.5,0,0,0,5,7c0,1.615-.9,5.19-1.854,6.146a.5.5,0,0,0,0,.707C4.252,14.959,8.015,15.445,8.5,15.5l7.061,0c.425-.052,4.188-.537,5.293-1.643A.5.5,0,0,0,20.854,13.146Z" fill="#455a64"/>
    <path d="M18.8,8.227a.5.5,0,0,0-.473-.337c-4.122,0-8.18-3.732-8.33-4.39a.5.5,0,0,0-1,0C9,6.493,5.521,7.911,5.485,7.925a.5.5,0,0,0-.288.3A3.96,3.96,0,0,0,5,9.5c0,1.395.617,2.454,1.445,2.5C7.351,15.01,9.536,17,12,17s4.649-1.99,5.555-5c.828-.045,1.445-1.1,1.445-2.5A3.96,3.96,0,0,0,18.8,8.227Z" fill="#ffe082"/>
    <path d="M19.635,16.626l-2.572-.895a.5.5,0,0,0-.532.134A6.168,6.168,0,0,1,12,18a6.168,6.168,0,0,1-4.53-2.134.5.5,0,0,0-.532-.134l-2.572.895A6.5,6.5,0,0,0,0,22.766V23.5a.5.5,0,0,0,.5.5h23a.5.5,0,0,0,.5-.5v-.734A6.5,6.5,0,0,0,19.635,16.626Z" fill="#4caf50"/>
    <path d="M10.5,10h-1a.5.5,0,0,1,0-1h1a.5.5,0,0,1,0,1Z" fill="#455a64"/>
    <path d="M14.5,10h-1a.5.5,0,0,1,0-1h1a.5.5,0,0,1,0,1Z" fill="#455a64"/>
    <path d="M12,0A7.008,7.008,0,0,0,5,7a6.819,6.819,0,0,0,.182,1.5.5.5,0,0,0,.488.392.508.508,0,0,0,.184-.035C6,8.8,8.992,7.585,9.8,4.882,11.36,6.59,14.95,8.89,18.33,8.89a.5.5,0,0,0,.488-.392A6.819,6.819,0,0,0,19,7,7.008,7.008,0,0,0,12,0Z" fill="#455a64"/>
  </g>
  <g>
    <g>
      <path d="M18.5,7a6.5,6.5,0,0,0-13,0,6.443,6.443,0,0,0,.168,1.391A3.545,3.545,0,0,0,5.5,9.5c0,1.1.448,2,1,2a.565.565,0,0,0,.3-.1c.734,2.963,2.783,5.1,5.2,5.1s4.47-2.136,5.2-5.1a.565.565,0,0,0,.3.1c.552,0,1-.9,1-2a3.545,3.545,0,0,0-.168-1.109A6.443,6.443,0,0,0,18.5,7Z" fill="none" stroke="#000" stroke-linecap="round" stroke-linejoin="round"/>
      <path d="M19.471,17.1,16.9,16.2A6.645,6.645,0,0,1,12,18.5a6.645,6.645,0,0,1-4.9-2.3L4.529,17.1A6,6,0,0,0,.5,22.766V23.5h23v-.734A6,6,0,0,0,19.471,17.1Z" fill="none" stroke="#000" stroke-linecap="round" stroke-linejoin="round"/>
      <path d="M5.668,8.391S9.5,6.875,9.5,3.5c0,.906,4.457,4.891,8.832,4.891" fill="none" stroke="#000" stroke-linecap="round" stroke-linejoin="round"/>
      <line x1="9.5" y1="9.5" x2="10.5" y2="9.5" fill="none" stroke="#000" stroke-linecap="round" stroke-linejoin="round"/>
      <line x1="13.5" y1="9.5" x2="14.5" y2="9.5" fill="none" stroke="#000" stroke-linecap="round" stroke-linejoin="round"/>
    </g>
    <path d="M5.5,7c0,1.656-.906,5.406-2,6.5,1.016,1.016,5,1.5,5,1.5" fill="none" stroke="#000" stroke-linecap="round" stroke-linejoin="round"/>
    <path d="M18.5,7c0,1.656.906,5.406,2,6.5-1.016,1.016-5,1.5-5,1.5" fill="none" stroke="#000" stroke-linecap="round" stroke-linejoin="round"/>
  </g>
</svg>
