<svg xmlns="http://www.w3.org/2000/svg" viewBox="0 0 24 24">
  <title>Army Solider</title>
  <g>
    <path d="M23.311,19.981a3.5,3.5,0,0,0-2.11-2.553l-4.109-1.69a.5.5,0,0,0-.559.125A6.177,6.177,0,0,1,12,18a6.177,6.177,0,0,1-4.532-2.138.5.5,0,0,0-.559-.125L2.8,17.427A3.5,3.5,0,0,0,.689,19.982L.01,23.4A.5.5,0,0,0,.5,24h23a.5.5,0,0,0,.49-.6Z" fill="#9e9d24"/>
    <path d="M17.342,15.966l-.9-1.7A.5.5,0,0,0,16,14H8a.5.5,0,0,0-.441.266l-.9,1.7a.5.5,0,0,0,.073.572A7.161,7.161,0,0,0,12,19a7.161,7.161,0,0,0,5.269-2.462A.5.5,0,0,0,17.342,15.966Z" fill="#827717"/>
    <path d="M18.814,8.256l-.546-2.339a.5.5,0,0,0-.469-.386L6.237,5.094a.476.476,0,0,0-.509.4L5.193,8.233A4.087,4.087,0,0,0,5,9.5c0,1.393.615,2.451,1.441,2.5.908,3.011,3.1,5,5.559,5s4.65-1.99,5.559-5C18.385,11.951,19,10.893,19,9.5A4.1,4.1,0,0,0,18.814,8.256Z" fill="#ffe082"/>
    <path d="M15,7H9C7.748,7,7,7.935,7,9.5A2.5,2.5,0,0,0,9.5,12a3.652,3.652,0,0,0,2.5-.812A3.652,3.652,0,0,0,14.5,12,2.5,2.5,0,0,0,17,9.5C17,7.935,16.252,7,15,7Z" fill="#455a64"/>
    <path d="M20,11.5c0-2.828-1.1-3.385-1.324-3.468a.511.511,0,0,0-.657.287.486.486,0,0,0,.278.638c.007,0,.7.4.7,2.543a1.254,1.254,0,0,1-.387.929C17.573,13.466,14.9,13.5,13.81,13.5A1.673,1.673,0,0,0,12.5,13c-.869,0-1.5.42-1.5,1s.631,1,1.5,1a1.673,1.673,0,0,0,1.31-.5c1.83,0,4.3-.163,5.509-1.363A2.239,2.239,0,0,0,20,11.5Z" fill="#607d8b"/>
    <path d="M12,0C8.133,0,4,2.233,4,8.5a.5.5,0,0,0,.5.5h1a.5.5,0,0,0,.416-.223L6.708,7.59A23.047,23.047,0,0,0,12,8a14.781,14.781,0,0,0,4.479-.392L18.2,8.9a.5.5,0,0,0,.3.1h1a.5.5,0,0,0,.5-.5C20,2.233,15.867,0,12,0Z" fill="#006064"/>
  </g>
  <g>
    <path d="M5.668,8.391A3.545,3.545,0,0,0,5.5,9.5c0,1.1.448,2,1,2a.565.565,0,0,0,.3-.1c.734,2.963,2.783,5.1,5.2,5.1s4.47-2.136,5.2-5.1a.565.565,0,0,0,.3.1c.552,0,1-.9,1-2a3.545,3.545,0,0,0-.168-1.109" fill="none" stroke="#000" stroke-linecap="round" stroke-linejoin="round"/>
    <path d="M21.012,17.89,16.9,16.2A6.645,6.645,0,0,1,12,18.5a6.645,6.645,0,0,1-4.9-2.3L2.988,17.89a3,3,0,0,0-1.8,2.188L.5,23.5h23l-.685-3.423A3,3,0,0,0,21.012,17.89Z" fill="none" stroke="#000" stroke-linecap="round" stroke-linejoin="round"/>
    <path d="M18.5,8.5h1c0-5.437-3.358-8-7.5-8s-7.5,2.563-7.5,8h1L6.5,7s1,.5,5.5.5S16.5,7,16.5,7Z" fill="none" stroke="#000" stroke-linecap="round" stroke-linejoin="round"/>
    <line x1="7.101" y1="16.204" x2="8" y2="14.5" fill="none" stroke="#000" stroke-linecap="round" stroke-linejoin="round"/>
    <line x1="16.899" y1="16.204" x2="16" y2="14.5" fill="none" stroke="#000" stroke-linecap="round" stroke-linejoin="round"/>
    <path d="M12,10c0,1.1-1.4,1.5-2.5,1.5a2,2,0,0,1-2-2c0-1.1.4-2,1.5-2h6c1.1,0,1.5.9,1.5,2a2,2,0,0,1-2,2c-1.1,0-2.5-.4-2.5-1.5" fill="none" stroke="#000" stroke-linecap="round" stroke-linejoin="round"/>
    <ellipse cx="12.5" cy="14" rx="1" ry="0.5" fill="none" stroke="#000" stroke-linecap="round" stroke-linejoin="round"/>
    <path d="M13.5,14c1.094,0,6,.125,6-2.5s-1-3-1-3" fill="none" stroke="#000" stroke-linecap="round" stroke-linejoin="round"/>
  </g>
</svg>
