<svg xmlns="http://www.w3.org/2000/svg" viewBox="0 0 24 24">
  <title>Criminal</title>
  <g>
    <path d="M17.626,7.008a16.207,16.207,0,0,0-11.252,0C5.582,7.108,5,8.146,5,9.5c0,1.39.613,2.446,1.437,2.5.914,3.012,3.1,5,5.563,5s4.649-1.99,5.563-5C18.387,11.946,19,10.89,19,9.5,19,8.146,18.418,7.108,17.626,7.008Z" fill="#ffe082"/>
    <path d="M18.315,8.112A10.725,10.725,0,0,0,12,6,10.725,10.725,0,0,0,5.685,8.112.5.5,0,0,0,5.51,8.6,4.414,4.414,0,0,0,10,12c1.243,0,1.665-.448,1.872-1h.255c.2.545.624,1,1.879,1A4.411,4.411,0,0,0,18.49,8.6.5.5,0,0,0,18.315,8.112Z" fill="#607d8b"/>
    <path d="M19.635,16.626l-2.572-.895a.5.5,0,0,0-.532.134A6.168,6.168,0,0,1,12,18a6.168,6.168,0,0,1-4.53-2.134.5.5,0,0,0-.532-.134l-2.572.895A6.5,6.5,0,0,0,0,22.766V23.5a.5.5,0,0,0,.5.5h23a.5.5,0,0,0,.5-.5v-.734A6.5,6.5,0,0,0,19.635,16.626Z" fill="#cfd8dc"/>
    <path d="M10.5,9h-1a.5.5,0,0,1,0-1h1a.5.5,0,0,1,0,1Z" fill="#455a64"/>
    <path d="M14.5,9h-1a.5.5,0,0,1,0-1h1a.5.5,0,0,1,0,1Z" fill="#455a64"/>
    <path d="M17.977,5.084A5.966,5.966,0,0,0,12,0,5.966,5.966,0,0,0,6.023,5.084,1.427,1.427,0,0,0,5,6.5,1.483,1.483,0,0,0,6.485,8a.575.575,0,0,0,.157-.021A.488.488,0,0,0,6.8,7.915a15.241,15.241,0,0,1,10.391,0,.5.5,0,0,0,.173.07A.5.5,0,0,0,17.5,8h.015A1.483,1.483,0,0,0,19,6.5,1.427,1.427,0,0,0,17.977,5.084Z" fill="#37474f"/>
    <path d="M8,5.5a.5.5,0,0,1-.127-.983A18.12,18.12,0,0,1,12,4a.5.5,0,0,1,0,1,17.444,17.444,0,0,0-3.873.484A.52.52,0,0,1,8,5.5Z" fill="#c62828"/>
  </g>
  <g>
    <g>
      <path d="M19.471,17.1,16.9,16.2A6.645,6.645,0,0,1,12,18.5a6.645,6.645,0,0,1-4.9-2.3L4.529,17.1A6,6,0,0,0,.5,22.766V23.5h23v-.734A6,6,0,0,0,19.471,17.1Z" fill="none" stroke="#000" stroke-linecap="round" stroke-linejoin="round"/>
      <line x1="9.5" y1="8.5" x2="10.5" y2="8.5" fill="none" stroke="#000" stroke-linecap="round" stroke-linejoin="round"/>
      <line x1="13.5" y1="8.5" x2="14.5" y2="8.5" fill="none" stroke="#000" stroke-linecap="round" stroke-linejoin="round"/>
      <path d="M6.541,7.484l0,.025c-.015,0-.028-.009-.043-.009-.552,0-1,.9-1,2s.448,2,1,2a.563.563,0,0,0,.293-.1c.735,2.962,2.786,5.1,5.207,5.1s4.471-2.135,5.206-5.1a.563.563,0,0,0,.294.1c.552,0,1-.9,1-2s-.448-2-1-2c-.015,0-.029.007-.043.009l0-.025" fill="none" stroke="#000" stroke-linecap="round" stroke-linejoin="round"/>
      <path d="M12,6.5a15.327,15.327,0,0,1,5.5,1,1,1,0,0,0,0-2A5.408,5.408,0,0,0,12,.5a5.408,5.408,0,0,0-5.5,5,1,1,0,0,0,0,2A15.326,15.326,0,0,1,12,6.5Z" fill="none" stroke="#000" stroke-linecap="round" stroke-linejoin="round"/>
    </g>
    <path d="M8,5a17.807,17.807,0,0,1,4-.5" fill="none" stroke="#000" stroke-linecap="round" stroke-linejoin="round"/>
    <path d="M18,8.5a3.933,3.933,0,0,1-3.994,3c-1.276,0-1.38-.486-1.506-1h-1c-.126.514-.224,1-1.5,1a3.94,3.94,0,0,1-4-3" fill="none" stroke="#000" stroke-linecap="round" stroke-linejoin="round"/>
  </g>
</svg>
