<svg xmlns="http://www.w3.org/2000/svg" viewBox="0 0 24 24">
  <title>Darth Vader</title>
  <g>
    <path d="M23.975,23.342l-2-6a.5.5,0,0,0-.282-.3l-4.8-2a6.756,6.756,0,0,0,3.031-2.273.5.5,0,0,0,.052-.419c0-.014-.039-.107-.045-.121C18.952,9.9,16.416,4.5,14,4.5a2.989,2.989,0,0,0-1.281.306,1.67,1.67,0,0,1-1.437,0A2.989,2.989,0,0,0,10,4.5c-2.416,0-4.952,5.4-5.932,7.729-.006.012-.04.1-.044.117a.5.5,0,0,0,.052.419,6.756,6.756,0,0,0,3.031,2.273l-4.8,2a.5.5,0,0,0-.282.3l-2,6A.5.5,0,0,0,.5,24h23a.5.5,0,0,0,.475-.658Z" fill="#455a64"/>
    <path d="M19.944,12.262,18,6.419V4.5C18,1.4,14.491,0,12,0S6,1.4,6,4.5V6.419L4.056,12.262a.5.5,0,0,0,.936.353C6.435,9.188,8.617,5.5,10,5.5a2.017,2.017,0,0,1,.883.223,2.389,2.389,0,0,0,2.234,0A2.017,2.017,0,0,1,14,5.5c1.383,0,3.565,3.688,5.009,7.114a.5.5,0,0,0,.461.306.482.482,0,0,0,.176-.032A.5.5,0,0,0,19.944,12.262Z" fill="#37474f"/>
    <path d="M13.5,0h-3a.5.5,0,0,0-.5.5V2a2,2,0,0,0,4,0V.5A.5.5,0,0,0,13.5,0Z" fill="#607d8b"/>
    <path d="M15,14H9a.5.5,0,0,1-.4-.8l3-4a.519.519,0,0,1,.8,0l3,4a.5.5,0,0,1-.4.8Zm-5-1h4l-2-2.667Z" fill="#607d8b"/>
    <path d="M15,14a.476.476,0,0,1-.083-.007.5.5,0,0,1-.411-.575l.427-2.56L12,10.02l-2.934.839.427,2.56a.5.5,0,0,1-.986.164l-.5-3a.5.5,0,0,1,.355-.562l3.5-1a.507.507,0,0,1,.275,0l3.5,1a.5.5,0,0,1,.355.563l-.5,3A.5.5,0,0,1,15,14Z" fill="#607d8b"/>
    <rect x="6" y="19" width="11" height="5" rx="0.5" ry="0.5" fill="#607d8b"/>
    <path d="M10.5,22h-2a.5.5,0,0,1,0-1h2a.5.5,0,0,1,0,1Z" fill="#cfd8dc"/>
    <path d="M14.5,22h-2a.5.5,0,0,1,0-1h2a.5.5,0,0,1,0,1Z" fill="#cfd8dc"/>
    <path d="M11,8H9a.5.5,0,0,1-.412-.783A1.775,1.775,0,0,1,10,6.5a1.831,1.831,0,0,1,1.4.7A.5.5,0,0,1,11,8Zm-.4-.2h0Z" fill="#37474f"/>
    <path d="M15,8H13a.5.5,0,0,1-.4-.8A1.831,1.831,0,0,1,14,6.5a1.775,1.775,0,0,1,1.412.717A.5.5,0,0,1,15,8Z" fill="#37474f"/>
  </g>
  <g>
    <path d="M12,5.5c-.781,0-1.094-.5-2-.5-2.438,0-5.5,7.5-5.5,7.5" fill="none" stroke="#000" stroke-linecap="round" stroke-linejoin="round"/>
    <polygon points="15 13.5 12 9.5 9 13.5 15 13.5" fill="none" stroke="#000" stroke-linecap="round" stroke-linejoin="round"/>
    <path d="M12,5.5c.781,0,1.094-.5,2-.5,2.437,0,5.5,7.5,5.5,7.5" fill="none" stroke="#000" stroke-linecap="round" stroke-linejoin="round"/>
    <path d="M13.5.5V2A1.5,1.5,0,0,1,12,3.5h0A1.5,1.5,0,0,1,10.5,2V.5Z" fill="none" stroke="#000" stroke-linecap="round" stroke-linejoin="round"/>
    <polyline points="8.5 15 2.5 17.5 0.5 23.5 23.5 23.5 21.5 17.5 15.5 15" fill="none" stroke="#000" stroke-linecap="round" stroke-linejoin="round"/>
    <path d="M15.5,15a6.973,6.973,0,0,0,4-2.5l-2-6v-2c0-2.75-3.156-4-5.5-4s-5.5,1.25-5.5,4v2l-2,6a6.972,6.972,0,0,0,4,2.5" fill="none" stroke="#000" stroke-linecap="round" stroke-linejoin="round"/>
    <polyline points="15 13.5 15.5 10.5 12 9.5 8.5 10.5 9 13.5" fill="none" stroke="#000" stroke-linecap="round" stroke-linejoin="round"/>
    <polyline points="6.5 23.5 6.5 19.5 16.5 19.5 16.5 23.5" fill="none" stroke="#000" stroke-linecap="round" stroke-linejoin="round"/>
    <line x1="8.5" y1="21.5" x2="10.5" y2="21.5" fill="none" stroke="#000" stroke-linecap="round" stroke-linejoin="round"/>
    <line x1="12.5" y1="21.5" x2="14.5" y2="21.5" fill="none" stroke="#000" stroke-linecap="round" stroke-linejoin="round"/>
    <path d="M10,7a1.35,1.35,0,0,1,1,.5H9A1.274,1.274,0,0,1,10,7Z" fill="none" stroke="#000" stroke-linecap="round" stroke-linejoin="round"/>
    <path d="M14,7a1.35,1.35,0,0,0-1,.5h2A1.274,1.274,0,0,0,14,7Z" fill="none" stroke="#000" stroke-linecap="round" stroke-linejoin="round"/>
  </g>
</svg>
