<svg xmlns="http://www.w3.org/2000/svg" viewBox="0 0 24 24">
  <title>Nurse</title>
  <g>
    <path d="M20.854,14.146C19.9,13.19,19,9.615,19,8a.5.5,0,0,0-.5-.5H5.5A.5.5,0,0,0,5,8c0,1.615-.9,5.19-1.854,6.146a.5.5,0,0,0,0,.707C4.252,15.959,8.015,16.445,8.5,16.5l7.061,0c.425-.052,4.188-.537,5.293-1.643A.5.5,0,0,0,20.854,14.146Z" fill="#455a64"/>
    <path d="M18.8,9.227a.5.5,0,0,0-.473-.337c-4.122,0-8.18-3.732-8.33-4.39a.5.5,0,0,0-1,0C9,7.493,5.521,8.911,5.485,8.925a.5.5,0,0,0-.288.3A3.96,3.96,0,0,0,5,10.5c0,1.395.617,2.454,1.445,2.5C7.351,16.01,9.536,18,12,18s4.649-1.99,5.555-5c.828-.045,1.445-1.1,1.445-2.5A3.96,3.96,0,0,0,18.8,9.227Z" fill="#ffe082"/>
    <path d="M10.5,11h-1a.5.5,0,0,1,0-1h1a.5.5,0,0,1,0,1Z" fill="#455a64"/>
    <path d="M14.5,11h-1a.5.5,0,0,1,0-1h1a.5.5,0,0,1,0,1Z" fill="#455a64"/>
    <path d="M12,1A7.008,7.008,0,0,0,5,8a6.819,6.819,0,0,0,.182,1.5.5.5,0,0,0,.488.392.508.508,0,0,0,.184-.035C6,9.8,8.992,8.585,9.8,5.882,11.36,7.59,14.95,9.89,18.33,9.89a.5.5,0,0,0,.488-.392A6.819,6.819,0,0,0,19,8,7.008,7.008,0,0,0,12,1Z" fill="#455a64"/>
    <path d="M19.635,17.628l-2.57-.9a.5.5,0,0,0-.657.561l.51,2.808L12,20.992,7.082,20.1l.51-2.808a.5.5,0,0,0-.657-.561l-2.569.9A6.172,6.172,0,0,0,0,23.5a.5.5,0,0,0,.5.5h23a.5.5,0,0,0,.5-.5A6.171,6.171,0,0,0,19.635,17.628Z" fill="#cfd8dc"/>
    <line x1="7.5" y1="6.5" x2="6.975" y2="3.877" fill="none" stroke="#000" stroke-linecap="round" stroke-linejoin="round"/>
    <line x1="17.024" y1="3.877" x2="16.5" y2="6.5" fill="none" stroke="#000" stroke-linecap="round" stroke-linejoin="round"/>
    <path d="M17.69,1.038a16.12,16.12,0,0,0-11.38,0,.5.5,0,0,0-.3.561l1,5A.5.5,0,0,0,7.5,7h9a.5.5,0,0,0,.49-.4l1-5A.5.5,0,0,0,17.69,1.038Z" fill="#cfd8dc"/>
    <path d="M12,5a.5.5,0,0,1-.5-.5v-2a.5.5,0,0,1,1,0v2A.5.5,0,0,1,12,5Z" fill="#f44336"/>
    <path d="M13,4H11a.5.5,0,0,1,0-1h2a.5.5,0,0,1,0,1Z" fill="#f44336"/>
    <path d="M12.33,21.124l-4.9-4.3a.5.5,0,0,0-.821.287l-.6,3.3a.5.5,0,0,0,.4.581l5.5,1A.465.465,0,0,0,12,22a.5.5,0,0,0,.33-.876Z" fill="#b0bec5"/>
    <path d="M17.392,17.111a.5.5,0,0,0-.821-.287l-4.9,4.3A.5.5,0,0,0,12,22a.465.465,0,0,0,.089-.008l5.5-1a.5.5,0,0,0,.4-.581Z" fill="#b0bec5"/>
  </g>
  <g>
    <path d="M16.9,17.2l2.572.895A5.67,5.67,0,0,1,23.5,23.5H.5a5.67,5.67,0,0,1,4.029-5.4L7.1,17.2,12,21.5Z" fill="none" stroke="#000" stroke-linecap="round" stroke-linejoin="round"/>
    <line x1="9.5" y1="10.5" x2="10.5" y2="10.5" fill="none" stroke="#000" stroke-linecap="round" stroke-linejoin="round"/>
    <line x1="13.5" y1="10.5" x2="14.5" y2="10.5" fill="none" stroke="#000" stroke-linecap="round" stroke-linejoin="round"/>
    <path d="M5.5,8c0,1.656-.906,5.406-2,6.5,1.016,1.016,5,1.5,5,1.5" fill="none" stroke="#000" stroke-linecap="round" stroke-linejoin="round"/>
    <path d="M18.5,8c0,1.656.906,5.406,2,6.5-1.016,1.016-5,1.5-5,1.5" fill="none" stroke="#000" stroke-linecap="round" stroke-linejoin="round"/>
    <path d="M6.975,3.877A6.33,6.33,0,0,0,5.668,9.391,3.545,3.545,0,0,0,5.5,10.5c0,1.1.448,2,1,2a.565.565,0,0,0,.3-.1c.734,2.963,2.783,5.1,5.2,5.1s4.47-2.136,5.2-5.1a.565.565,0,0,0,.3.1c.552,0,1-.9,1-2a3.545,3.545,0,0,0-.168-1.109,6.329,6.329,0,0,0-1.307-5.514" fill="none" stroke="#000" stroke-linecap="round" stroke-linejoin="round"/>
    <line x1="7.5" y1="6.5" x2="6.975" y2="3.877" fill="none" stroke="#000" stroke-linecap="round" stroke-linejoin="round"/>
    <line x1="17.024" y1="3.877" x2="16.5" y2="6.5" fill="none" stroke="#000" stroke-linecap="round" stroke-linejoin="round"/>
    <path d="M18.332,9.391A12.216,12.216,0,0,1,11.21,6.5" fill="none" stroke="#000" stroke-linecap="round" stroke-linejoin="round"/>
    <path d="M9,6.5A7.169,7.169,0,0,1,5.668,9.391" fill="none" stroke="#000" stroke-linecap="round" stroke-linejoin="round"/>
    <path d="M12,.5a16.05,16.05,0,0,1,5.5,1l-1,5h-9l-1-5A16.049,16.049,0,0,1,12,.5Z" fill="none" stroke="#000" stroke-linecap="round" stroke-linejoin="round"/>
    <line x1="12" y1="2.5" x2="12" y2="4.5" fill="none" stroke="#000" stroke-linecap="round" stroke-linejoin="round"/>
    <line x1="11" y1="3.5" x2="13" y2="3.5" fill="none" stroke="#000" stroke-linecap="round" stroke-linejoin="round"/>
    <polyline points="16.899 17.204 17.5 20.5 12 21.5 6.5 20.5 7.101 17.204" fill="none" stroke="#000" stroke-linecap="round" stroke-linejoin="round"/>
  </g>
</svg>
