<svg xmlns="http://www.w3.org/2000/svg" viewBox="0 0 24 24">
  <title>Stormtrooper</title>
  <g>
    <path d="M19,9.25V8.5a.5.5,0,0,0-.854-.354c-.159.158-.315.335-.476.516A2.923,2.923,0,0,1,15.5,10c-.563,0-.987-.412-1.479-.89A2.97,2.97,0,0,0,12,8,2.97,2.97,0,0,0,9.979,9.11c-.491.478-.916.89-1.479.89A2.923,2.923,0,0,1,6.329,8.662c-.16-.181-.316-.357-.476-.516A.5.5,0,0,0,5,8.5v.75A2.871,2.871,0,0,0,4,11.5c0,1.775,2.265,2.452,2.36,2.48a.5.5,0,0,0,.363-.033L8.625,13a4.36,4.36,0,0,0,2.038-.872A3.019,3.019,0,0,1,12,11.5a3.019,3.019,0,0,1,1.337.624A4.36,4.36,0,0,0,15.375,13l1.9.951A.5.5,0,0,0,17.5,14a.524.524,0,0,0,.14-.02c.1-.028,2.36-.705,2.36-2.48A2.871,2.871,0,0,0,19,9.25Z" fill="#cfd8dc"/>
    <path d="M13.5,0h-3A4.5,4.5,0,0,0,6,4.5v1a.5.5,0,0,0,.5.5h11a.5.5,0,0,0,.5-.5v-1A4.5,4.5,0,0,0,13.5,0Z" fill="#cfd8dc"/>
    <path d="M18.264,5.557l-.41-.41A.5.5,0,0,0,17.5,5H6.5a.5.5,0,0,0-.354.146l-.41.41A2.493,2.493,0,0,0,5,7.33V8.5a.5.5,0,0,0,.146.354c.146.146.288.307.435.472A3.842,3.842,0,0,0,8.5,11a3.142,3.142,0,0,0,2.176-1.173C11.133,9.384,11.527,9,12,9s.867.384,1.324.827A3.142,3.142,0,0,0,15.5,11a3.842,3.842,0,0,0,2.919-1.675c.146-.165.289-.326.435-.472A.5.5,0,0,0,19,8.5V7.33A2.493,2.493,0,0,0,18.264,5.557Z" fill="#455a64"/>
    <path d="M8.5,9A.5.5,0,0,1,8,8.5V8H7.5a.5.5,0,0,1,0-1h3a.5.5,0,0,1,.224.947l-2,1A.5.5,0,0,1,8.5,9Z" fill="#fafafa"/>
    <path d="M15.5,9a.5.5,0,0,1-.224-.053l-2-1A.5.5,0,0,1,13.5,7h3a.5.5,0,0,1,0,1H16v.5a.5.5,0,0,1-.5.5Z" fill="#fafafa"/>
    <path d="M23.181,19.363a2.5,2.5,0,0,0-1.329-1.752l-1.13-.56a.5.5,0,0,0-.575.095l-.5.5a.521.521,0,0,0-.068.085l-3.5,5.5A.5.5,0,0,0,16.5,24h7a.5.5,0,0,0,.49-.6Z" fill="#455a64"/>
    <path d="M20.486,17.885a.5.5,0,0,0-.229-.313l-2.5-1.5A.494.494,0,0,0,17.5,16H6.5a.494.494,0,0,0-.257.071l-2.5,1.5a.5.5,0,0,0-.165.7l3.5,5.5A.5.5,0,0,0,7.5,24h9a.5.5,0,0,0,.422-.231l3.5-5.5A.5.5,0,0,0,20.486,17.885Z" fill="#cfd8dc"/>
    <path d="M7.922,23.231l-3.5-5.5a.521.521,0,0,0-.068-.085l-.5-.5a.5.5,0,0,0-.575-.095l-1.136.563A2.5,2.5,0,0,0,.819,19.361L.01,23.4A.5.5,0,0,0,.5,24h7a.5.5,0,0,0,.422-.769Z" fill="#455a64"/>
    <path d="M17.992,13.413a.5.5,0,0,0-.269-.36l-2-1A.508.508,0,0,0,15.5,12a3.392,3.392,0,0,1-1.619-.715A3.663,3.663,0,0,0,12,10.5a3.663,3.663,0,0,0-1.881.785A3.392,3.392,0,0,1,8.5,12a.508.508,0,0,0-.224.053l-2,1a.5.5,0,0,0-.269.36,5.005,5.005,0,0,0,.72,3.627A2.813,2.813,0,0,0,9,18c1.076,0,1.726-.237,1.986-.726a.921.921,0,0,0,.1-.274h1.836a.921.921,0,0,0,.1.274c.261.488.91.726,1.986.726a2.813,2.813,0,0,0,2.272-.96A5.005,5.005,0,0,0,17.992,13.413Z" fill="#b0bec5"/>
    <path d="M15,14a.993.993,0,0,0-.685.278L12.32,12.616a.464.464,0,0,0-.049-.027A.5.5,0,0,0,12,12.507a.49.49,0,0,0-.085.009.478.478,0,0,0-.1.029.485.485,0,0,0-.081.044.468.468,0,0,0-.051.028L9.685,14.278A1,1,0,1,0,9,16a.5.5,0,0,0,.181-.037.989.989,0,0,0,.742-.582L12,13.651l2.077,1.731a.989.989,0,0,0,.742.582A.5.5,0,0,0,15,16a1,1,0,0,0,0-2Z" fill="#455a64"/>
  </g>
  <g>
    <path d="M12,.5H10.5a4,4,0,0,0-4,4v1l-.414.414A2,2,0,0,0,5.5,7.328V9.5a2.323,2.323,0,0,0-1,2c0,1.417,2,2,2,2s-.708,4,2.5,4c2.167,0,1.5-1,1.5-1H12" fill="none" stroke="#000" stroke-linecap="round" stroke-linejoin="round"/>
    <polyline points="5.5 9.5 8.5 12.5 6.5 13.5" fill="none" stroke="#000" stroke-linecap="round" stroke-linejoin="round"/>
    <line x1="9" y1="15.5" x2="12" y2="13" fill="none" stroke="#000" stroke-linecap="round" stroke-linejoin="round"/>
    <line x1="6.5" y1="5.5" x2="12" y2="5.5" fill="none" stroke="#000" stroke-linecap="round" stroke-linejoin="round"/>
    <path d="M5.5,8.5c.781.781,1.5,2,3,2s2.125-2,3.5-2" fill="none" stroke="#000" stroke-linecap="round" stroke-linejoin="round"/>
    <polyline points="7.5 7.5 10.5 7.5 8.5 8.5 8.5 7.5" fill="none" stroke="#000" stroke-linecap="round" stroke-linejoin="round"/>
    <path d="M8.5,12.5c1.281,0,2.406-1.5,3.5-1.5" fill="none" stroke="#000" stroke-linecap="round" stroke-linejoin="round"/>
    <circle cx="9" cy="15" r="0.5" fill="none" stroke="#000" stroke-linecap="round" stroke-linejoin="round"/>
    <path d="M12,.5h1.5a4,4,0,0,1,4,4v1l.414.414A2,2,0,0,1,18.5,7.328V9.5a2.323,2.323,0,0,1,1,2c0,1.417-2,2-2,2s.708,4-2.5,4c-2.167,0-1.5-1-1.5-1H12" fill="none" stroke="#000" stroke-linecap="round" stroke-linejoin="round"/>
    <polyline points="18.5 9.5 15.5 12.5 17.5 13.5" fill="none" stroke="#000" stroke-linecap="round" stroke-linejoin="round"/>
    <line x1="15" y1="15.5" x2="12" y2="13" fill="none" stroke="#000" stroke-linecap="round" stroke-linejoin="round"/>
    <line x1="17.5" y1="5.5" x2="12" y2="5.5" fill="none" stroke="#000" stroke-linecap="round" stroke-linejoin="round"/>
    <path d="M18.5,8.5c-.781.781-1.5,2-3,2s-2.125-2-3.5-2" fill="none" stroke="#000" stroke-linecap="round" stroke-linejoin="round"/>
    <polyline points="16.5 7.5 13.5 7.5 15.5 8.5 15.5 7.5" fill="none" stroke="#000" stroke-linecap="round" stroke-linejoin="round"/>
    <path d="M15.5,12.5c-1.281,0-2.406-1.5-3.5-1.5" fill="none" stroke="#000" stroke-linecap="round" stroke-linejoin="round"/>
    <circle cx="15" cy="15" r="0.5" fill="none" stroke="#000" stroke-linecap="round" stroke-linejoin="round"/>
    <line x1="5.5" y1="12.5" x2="7" y2="11" fill="none" stroke="#000" stroke-linecap="round" stroke-linejoin="round"/>
    <line x1="18.5" y1="12.5" x2="17" y2="11" fill="none" stroke="#000" stroke-linecap="round" stroke-linejoin="round"/>
    <path d="M17.5,16.5,20,18l.5-.5,1.125.563a2,2,0,0,1,1.067,1.4L23.5,23.5H.5l.808-4.041a2,2,0,0,1,1.067-1.4L3.5,17.5,4,18l2.5-1.5" fill="none" stroke="#000" stroke-linecap="round" stroke-linejoin="round"/>
    <line x1="4" y1="18" x2="7.5" y2="23.5" fill="none" stroke="#000" stroke-linecap="round" stroke-linejoin="round"/>
    <line x1="20" y1="18" x2="16.5" y2="23.5" fill="none" stroke="#000" stroke-linecap="round" stroke-linejoin="round"/>
  </g>
</svg>
