<svg xmlns="http://www.w3.org/2000/svg" viewBox="0 0 24 24">
  <title>Vulverine</title>
  <g>
    <path d="M17.995,4.928A6.486,6.486,0,0,0,12,0,6.486,6.486,0,0,0,6.005,4.928a.489.489,0,0,0,0,.131l.06.51a.5.5,0,0,0,.125.275A3.077,3.077,0,0,0,8.5,7a1.507,1.507,0,0,1,1.142.465,4.947,4.947,0,0,1,.859,3.017.5.5,0,0,0,.109.331A1.9,1.9,0,0,0,12,11.5a1.9,1.9,0,0,0,1.391-.687.5.5,0,0,0,.109-.332,4.932,4.932,0,0,1,.852-3.014A1.512,1.512,0,0,1,15.5,7a3.077,3.077,0,0,0,2.312-1.156.5.5,0,0,0,.125-.275l.06-.51A.489.489,0,0,0,17.995,4.928Z" fill="#ffc107"/>
    <path d="M15,10H13a.5.5,0,0,0-.391.188A.932.932,0,0,1,12,10.5a.918.918,0,0,1-.609-.312A.5.5,0,0,0,11,10H9c-1.258,0-2,.983-2.035,2.778l.04.29a.494.494,0,0,0,.024.1C7.577,14.708,9.353,17,12,17s4.423-2.292,4.971-3.832a.494.494,0,0,0,.024-.1l.04-.29a.483.483,0,0,0,0-.08C17,10.983,16.258,10,15,10Z" fill="#ffe082"/>
    <path d="M19.542,0a.493.493,0,0,0-.536.416C19,.45,18.464,3.6,17.068,5.176A2.1,2.1,0,0,1,15.5,6a2.5,2.5,0,0,0-1.871.775C12.416,8.039,12.5,10.419,12.5,10.52A.5.5,0,0,0,13,11h2c.665,0,1.015.579,1.04,1.721a4.854,4.854,0,0,1-.035.708.5.5,0,0,0,.269.517A.49.49,0,0,0,16.5,14a.5.5,0,0,0,.35-.144,11.254,11.254,0,0,0,2.1-3.15C19.948,8.515,20,.829,20,.5A.5.5,0,0,0,19.542,0Z" fill="#455a64"/>
    <path d="M10.363,6.772A2.488,2.488,0,0,0,8.5,6a2.1,2.1,0,0,1-1.566-.822C5.539,3.607,5,.449,4.993.418A.5.5,0,0,0,4,.5c0,.326.052,8.012,1.044,10.2a11.254,11.254,0,0,0,2.1,3.15A.5.5,0,0,0,7.5,14a.49.49,0,0,0,.226-.055.5.5,0,0,0,.269-.517,4.847,4.847,0,0,1-.035-.707C7.985,11.579,8.335,11,9,11h2a.5.5,0,0,0,.5-.481C11.5,10.418,11.578,8.034,10.363,6.772Z" fill="#455a64"/>
    <path d="M17.153,15.769a.5.5,0,0,0-.622.094A6.172,6.172,0,0,1,12,18a6.172,6.172,0,0,1-4.531-2.138.5.5,0,0,0-.844.494l2.4,7.3A.5.5,0,0,0,9.5,24h5a.5.5,0,0,0,.475-.344l2.4-7.3A.5.5,0,0,0,17.153,15.769Z" fill="#ffc107"/>
    <path d="M4.916,23.223l-2.84-4.26a.5.5,0,0,0-.4-.223.517.517,0,0,0-.415.2A6.431,6.431,0,0,0,0,22.77v.73a.5.5,0,0,0,.5.5h4a.5.5,0,0,0,.416-.777Z" fill="#ffc107"/>
    <path d="M22.743,18.944a.474.474,0,0,0-.415-.2.5.5,0,0,0-.4.223l-2.84,4.26A.5.5,0,0,0,19.5,24h4a.5.5,0,0,0,.5-.5v-.73A6.431,6.431,0,0,0,22.743,18.944Z" fill="#ffc107"/>
    <path d="M9.975,23.344l-2.4-7.3A.5.5,0,0,0,7,15.71L.4,17.01a.5.5,0,0,0-.319.768l4,6A.5.5,0,0,0,4.5,24h5a.5.5,0,0,0,.475-.656Z" fill="#455a64"/>
    <path d="M23.961,17.308a.5.5,0,0,0-.365-.3L17,15.71a.5.5,0,0,0-.572.334l-2.4,7.3A.5.5,0,0,0,14.5,24h5a.5.5,0,0,0,.416-.223l4-6A.5.5,0,0,0,23.961,17.308Z" fill="#455a64"/>
    <path d="M15,9.5H14a.5.5,0,0,1-.224-.947l2-1a.5.5,0,0,1,.447.895l-.755.378A.492.492,0,0,1,15.5,9,.5.5,0,0,1,15,9.5Z" fill="#fafafa"/>
    <path d="M10,9.5H9A.5.5,0,0,1,8.5,9V8.809l-.724-.361a.5.5,0,1,1,.447-.895l.99.5.019.01.991.5A.5.5,0,0,1,10,9.5Z" fill="#fafafa"/>
    <path d="M13,14H11a.5.5,0,0,1,0-1h2a.5.5,0,0,1,0,1Z" fill="#455a64"/>
  </g>
  <g>
    <g>
      <path d="M7.5,13c.476,1.353,2.079,3.5,4.5,3.5" fill="none" stroke="#000" stroke-linecap="round" stroke-linejoin="round"/>
      <path d="M12,.5A5.981,5.981,0,0,0,6.5,5" fill="none" stroke="#000" stroke-linecap="round" stroke-linejoin="round"/>
      <polyline points="16 8 15 8.5 14 9 15 9" fill="none" stroke="#000" stroke-linecap="round" stroke-linejoin="round"/>
      <polyline points="9 8.5 9 9 10 9 8 8" fill="none" stroke="#000" stroke-linecap="round" stroke-linejoin="round"/>
      <path d="M16.5,13c-.477,1.353-2.079,3.5-4.5,3.5" fill="none" stroke="#000" stroke-linecap="round" stroke-linejoin="round"/>
      <path d="M12,.5A5.981,5.981,0,0,1,17.5,5" fill="none" stroke="#000" stroke-linecap="round" stroke-linejoin="round"/>
      <path d="M13,10.5s-.156-4,2.5-4c3,0,4-6,4-6s-.042,7.875-1,10a10.822,10.822,0,0,1-2,3s.417-3-1.5-3Z" fill="none" stroke="#000" stroke-linecap="round" stroke-linejoin="round"/>
      <path d="M11,10.5s.156-4-2.5-4c-3,0-4-6-4-6s.042,7.875,1,10a10.822,10.822,0,0,0,2,3s-.417-3,1.5-3Z" fill="none" stroke="#000" stroke-linecap="round" stroke-linejoin="round"/>
      <line x1="11" y1="13.5" x2="13" y2="13.5" fill="none" stroke="#000" stroke-linecap="round" stroke-linejoin="round"/>
      <g>
        <path d="M12,18.5a6.645,6.645,0,0,1-4.9-2.3l2.4,7.3h5l2.4-7.3A6.645,6.645,0,0,1,12,18.5Z" fill="none" stroke="#000" stroke-linecap="round" stroke-linejoin="round"/>
        <path d="M.5,22.766V23.5h4L1.656,19.234A5.987,5.987,0,0,0,.5,22.766Z" fill="none" stroke="#000" stroke-linecap="round" stroke-linejoin="round"/>
        <path d="M19.5,23.5h4v-.734a5.987,5.987,0,0,0-1.156-3.532Z" fill="none" stroke="#000" stroke-linecap="round" stroke-linejoin="round"/>
      </g>
      <g>
        <polygon points="7.101 16.204 0.5 17.5 4.5 23.5 9.5 23.5 7.101 16.204" fill="none" stroke="#000" stroke-linecap="round" stroke-linejoin="round"/>
        <polygon points="16.899 16.204 23.5 17.5 19.5 23.5 14.5 23.5 16.899 16.204" fill="none" stroke="#000" stroke-linecap="round" stroke-linejoin="round"/>
      </g>
    </g>
    <path d="M11,10.5a1.41,1.41,0,0,0,1,.5,1.4,1.4,0,0,0,1-.5" fill="none" stroke="#000" stroke-linecap="round" stroke-linejoin="round"/>
  </g>
</svg>
