<svg xmlns="http://www.w3.org/2000/svg" viewBox="0 0 24 24">
  <title>Einstein</title>
  <g>
    <path d="M22,8.5A4.719,4.719,0,0,0,20.125,5c.436-.523-.009-1.395-.18-1.73A6.712,6.712,0,0,0,14.5,0,6.783,6.783,0,0,0,12,.375,6.783,6.783,0,0,0,9.5,0,6.712,6.712,0,0,0,4.055,3.273c-.171.336-.615,1.207-.18,1.73A4.719,4.719,0,0,0,2,8.5c0,.739.066,1.513.517,1.818a3.4,3.4,0,0,0,.609,3.513c.272.307.912,1.021,1.528.709a.824.824,0,0,0,.41-.556A3.612,3.612,0,0,0,7.5,15h9a3.612,3.612,0,0,0,2.436-1.015.824.824,0,0,0,.41.556c.614.313,1.256-.4,1.528-.709a3.4,3.4,0,0,0,.609-3.513C21.934,10.013,22,9.239,22,8.5Z" fill="#455a64"/>
    <path d="M24,23.5a.5.5,0,0,1-.5.5H.5a.5.5,0,0,1-.5-.5,6.151,6.151,0,0,1,4.37-5.87l2.57-.9a.5.5,0,0,1,.53.14A6.648,6.648,0,0,0,10,18.62a5.14,5.14,0,0,0,1,.28,4.778,4.778,0,0,0,1,.1,6.182,6.182,0,0,0,4.53-2.13.5.5,0,0,1,.53-.14l2.57.9A6.151,6.151,0,0,1,24,23.5Z" fill="#009688"/>
    <path d="M10.5,11h-1a.5.5,0,0,1,0-1h1a.5.5,0,0,1,0,1Z"/>
    <path d="M14.5,11h-1a.5.5,0,0,1,0-1h1a.5.5,0,0,1,0,1Z"/>
    <path d="M18,8.13c0-.043,0-.086,0-.13A6,6,0,0,0,6,8c0,.043,0,.087,0,.13A2.668,2.668,0,0,0,5,10.5c0,1.391.614,2.448,1.439,2.5.907,3.012,3.1,5,5.561,5s4.653-1.99,5.561-5c.825-.05,1.439-1.107,1.439-2.5A2.668,2.668,0,0,0,18,8.13Z" fill="#ffe082"/>
    <path d="M12,16a2.324,2.324,0,0,1-2-2.5.5.5,0,0,1,.5-.5h3a.5.5,0,0,1,.5.5A2.324,2.324,0,0,1,12,16Z" fill="#f44336"/>
    <path d="M8.5,9.5a.5.5,0,0,1-.347-.86A2.225,2.225,0,0,1,9.5,8a.5.5,0,0,1,0,1,1.361,1.361,0,0,0-.653.36A.5.5,0,0,1,8.5,9.5Z" fill="#455a64"/>
    <path d="M15.5,9.5a.5.5,0,0,1-.345-.137A1.339,1.339,0,0,0,14.5,9a.5.5,0,0,1,0-1,2.225,2.225,0,0,1,1.347.64A.5.5,0,0,1,15.5,9.5Z" fill="#455a64"/>
    <polygon points="10 18.62 10 24 11 24 11 18.9 10 18.62" fill="#00796b"/>
    <rect x="16" y="21" width="4" height="3" rx="0.5" ry="0.5" fill="#455a64"/>
    <path d="M14.5,14a.5.5,0,0,1-.4-.2,1.985,1.985,0,0,0-1.146-.777.7.7,0,0,0-.578.308.5.5,0,1,1-.752-.658A1.69,1.69,0,0,1,13,12.022,2.9,2.9,0,0,1,14.9,13.2a.5.5,0,0,1-.4.8Z" fill="#455a64"/>
    <path d="M9.5,14a.5.5,0,0,1-.4-.8A2.9,2.9,0,0,1,11,12.022a1.7,1.7,0,0,1,1.372.648.5.5,0,1,1-.752.658.7.7,0,0,0-.58-.308A1.965,1.965,0,0,0,9.9,13.8.5.5,0,0,1,9.5,14Z" fill="#455a64"/>
  </g>
  <g>
    <g>
      <path d="M19.471,18.1,16.9,17.2A6.645,6.645,0,0,1,12,19.5a6.645,6.645,0,0,1-4.9-2.3L4.529,18.1A5.67,5.67,0,0,0,.5,23.5h23A5.67,5.67,0,0,0,19.471,18.1Z" fill="none" stroke="#000" stroke-linecap="round" stroke-linejoin="round"/>
      <line x1="9.5" y1="10.5" x2="10.5" y2="10.5" fill="none" stroke="#000" stroke-linecap="round" stroke-linejoin="round"/>
      <line x1="13.5" y1="10.5" x2="14.5" y2="10.5" fill="none" stroke="#000" stroke-linecap="round" stroke-linejoin="round"/>
      <path d="M17.5,8.5c-.015,0-.029.007-.043.009A4.845,4.845,0,0,0,17.5,8a5.5,5.5,0,0,0-11,0,4.845,4.845,0,0,0,.043.509c-.015,0-.028-.009-.043-.009-.552,0-1,.9-1,2s.448,2,1,2a.563.563,0,0,0,.293-.1c.735,2.962,2.786,5.1,5.207,5.1s4.471-2.135,5.206-5.1a.563.563,0,0,0,.294.1c.552,0,1-.9,1-2S18.052,8.5,17.5,8.5Z" fill="none" stroke="#000" stroke-linecap="round" stroke-linejoin="round"/>
    </g>
    <path d="M12,1C12,.75,10.75.5,9.5.5a6.219,6.219,0,0,0-5,3c-1.083,2.125,1,1,1,1s-3,1.5-3,4,1,1,1,1-1.625,2.167,0,4,1-1,1-1a3.873,3.873,0,0,0,3,2" fill="none" stroke="#000" stroke-linecap="round" stroke-linejoin="round"/>
    <path d="M12,1c0-.25,1.25-.5,2.5-.5a6.219,6.219,0,0,1,5,3c1.083,2.125-1,1-1,1s3,1.5,3,4-1,1-1,1,1.625,2.167,0,4-1-1-1-1a3.873,3.873,0,0,1-3,2" fill="none" stroke="#000" stroke-linecap="round" stroke-linejoin="round"/>
    <path d="M12,13c1.152-1.317,2.5.5,2.5.5" fill="none" stroke="#000" stroke-linecap="round" stroke-linejoin="round"/>
    <path d="M12,13c-1.152-1.317-2.5.5-2.5.5" fill="none" stroke="#000" stroke-linecap="round" stroke-linejoin="round"/>
    <path d="M13.5,13.5a1.836,1.836,0,0,1-1.5,2,1.836,1.836,0,0,1-1.5-2Z" fill="none" stroke="#000" stroke-linecap="round" stroke-linejoin="round"/>
    <path d="M9.5,8.5a1.831,1.831,0,0,0-1,.5" fill="none" stroke="#000" stroke-linecap="round" stroke-linejoin="round"/>
    <path d="M14.5,8.5a1.831,1.831,0,0,1,1,.5" fill="none" stroke="#000" stroke-linecap="round" stroke-linejoin="round"/>
    <line x1="10.5" y1="19.5" x2="10.5" y2="23.5" fill="none" stroke="#000" stroke-linecap="round" stroke-linejoin="round"/>
    <polyline points="16.5 23.5 16.5 21.5 19.5 21.5 19.5 23.5" fill="none" stroke="#000" stroke-linecap="round" stroke-linejoin="round"/>
  </g>
</svg>
