<svg xmlns="http://www.w3.org/2000/svg" viewBox="0 0 24 24">
  <title>Spy</title>
  <g>
    <path d="M12.277,23.084,8,20.232V19.5a.5.5,0,0,0-.342-.474L6.27,18.563l-.917-.917a.5.5,0,0,0-.458-.136l-.53.117A6.172,6.172,0,0,0,0,23.5a.5.5,0,0,0,.5.5H12a.5.5,0,0,0,.277-.916Z" fill="#607d8b"/>
    <path d="M17.5,8a.6.6,0,0,0-.091.009H6.592A.6.6,0,0,0,6.5,8C5.645,8,5,9.075,5,10.5c0,1.391.614,2.448,1.438,2.5.909,3.012,3.1,5,5.562,5s4.653-1.99,5.562-5c.824-.05,1.438-1.107,1.438-2.5C19,9.075,18.355,8,17.5,8Z" fill="#ffe082"/>
    <path d="M19.574,17.611l-.47-.1a.5.5,0,0,0-.458.136l-.917.917-1.388.463A.5.5,0,0,0,16,19.5v.732l-4.277,2.852A.5.5,0,0,0,12,24H23.5a.5.5,0,0,0,.5-.5A6.189,6.189,0,0,0,19.574,17.611Z" fill="#607d8b"/>
    <path d="M12.186,8.544C11.82,8.163,11.167,8,10,8c-1.213,0-1.856.158-2.219.544a1.443,1.443,0,0,0-.292,1.176c.005.09.012.184.012.279a1.838,1.838,0,0,0,2,2c1.253,0,3-.761,3-2,0-.083,0-.165.007-.245A1.515,1.515,0,0,0,12.186,8.544Z" fill="#455a64"/>
    <path d="M16.233,8.544C15.87,8.158,15.227,8,14.014,8c-1.167,0-1.82.163-2.186.544a1.515,1.515,0,0,0-.321,1.211c0,.08.007.161.007.245,0,1.239,1.739,2,2.986,2a1.862,1.862,0,0,0,2.014-2c0-.1.006-.189.012-.279A1.443,1.443,0,0,0,16.233,8.544Z" fill="#455a64"/>
    <path d="M17.584,4.507a.5.5,0,0,0-.577.408.47.47,0,0,0,0,.084H6.99a.47.47,0,0,0,0-.084.5.5,0,0,0-.577-.408C2.535,5.173,2,5.858,2,6.5,2,8.474,8.286,9,12,9s10-.526,10-2.5C22,5.858,21.465,5.173,17.584,4.507Z" fill="#607d8b"/>
    <path d="M17.99,5.9a.508.508,0,0,1-.22.52A11.285,11.285,0,0,1,12,7.78,11.285,11.285,0,0,1,6.23,6.42a.508.508,0,0,1-.22-.52,12.442,12.442,0,0,1,.46-1.63A11.336,11.336,0,0,1,6.89,3.2C7.7,1.41,8.85,0,10,0a3.038,3.038,0,0,1,2,.79A3.038,3.038,0,0,1,14,0c1.15,0,2.3,1.41,3.11,3.2a11.336,11.336,0,0,1,.42,1.07A12.442,12.442,0,0,1,17.99,5.9Z" fill="#455a64"/>
    <path d="M17.53,4.27C16.87,4.94,15.3,6,12,6S7.13,4.94,6.47,4.27A11.336,11.336,0,0,1,6.89,3.2a.305.305,0,0,1,.05.07C6.97,3.31,7.98,5,12,5c4.06,0,5.05-1.72,5.06-1.73a.305.305,0,0,1,.05-.07A11.336,11.336,0,0,1,17.53,4.27Z" fill="#607d8b"/>
    <path d="M12.412,23.217l-5.5-8a.5.5,0,0,0-.57-.191l-3,1a.5.5,0,0,0-.2.828l2.5,2.5a.5.5,0,0,0,.2.121L7,19.86v.64a.5.5,0,0,0,.223.416l4.5,3a.5.5,0,0,0,.689-.7Z" fill="#455a64"/>
    <path d="M20.658,16.026l-3-1a.5.5,0,0,0-.57.191l-5.5,8a.5.5,0,0,0,.689.7l4.5-3A.5.5,0,0,0,17,20.5v-.64l1.158-.386a.5.5,0,0,0,.2-.121l2.5-2.5a.5.5,0,0,0-.2-.828Z" fill="#455a64"/>
  </g>
  <g>
    <g>
      <path d="M12,23.5H.5a5.67,5.67,0,0,1,4.029-5.4L5,18" fill="none" stroke="#000" stroke-linecap="round" stroke-linejoin="round"/>
      <path d="M6.543,8.509c-.015,0-.028-.009-.043-.009-.552,0-1,.9-1,2s.448,2,1,2a.563.563,0,0,0,.293-.1c.735,2.962,2.786,5.1,5.207,5.1s4.471-2.135,5.206-5.1a.563.563,0,0,0,.294.1c.552,0,1-.9,1-2s-.448-2-1-2c-.015,0-.029.007-.043.009" fill="none" stroke="#000" stroke-linecap="round" stroke-linejoin="round"/>
      <polygon points="17.5 15.5 20.5 16.5 18 19 16.5 19.5 16.5 20.5 12 23.5 6.5 15.5 3.5 16.5 6 19 7.5 19.5 7.5 20.5 12 23.5 17.5 15.5" fill="none" stroke="#000" stroke-linecap="round" stroke-linejoin="round"/>
      <path d="M12,23.5H23.5a5.67,5.67,0,0,0-4.029-5.4L19,18" fill="none" stroke="#000" stroke-linecap="round" stroke-linejoin="round"/>
    </g>
    <path d="M12,10c0,.828-1.4,1.5-2.5,1.5A1.35,1.35,0,0,1,8,10c0-.828-.4-1.5,2-1.5C12.312,8.5,12,9.172,12,10Z" fill="none" stroke="#000" stroke-linecap="round" stroke-linejoin="round"/>
    <path d="M12.014,10c0,.828,1.381,1.5,2.486,1.5A1.361,1.361,0,0,0,16.014,10c0-.828.4-1.5-2-1.5C11.7,8.5,12.014,9.172,12.014,10Z" fill="none" stroke="#000" stroke-linecap="round" stroke-linejoin="round"/>
    <path d="M6.5,5c-2.137.367-4,.874-4,1.5,0,1.1,4.253,2,9.5,2s9.5-.9,9.5-2c0-.626-1.864-1.133-4-1.5" fill="none" stroke="#000" stroke-linecap="round" stroke-linejoin="round"/>
    <path d="M17.5,6C16.875,3.063,15.25.5,14,.5a2.7,2.7,0,0,0-2,1,2.7,2.7,0,0,0-2-1C8.75.5,7.125,3.063,6.5,6" fill="none" stroke="#000" stroke-linecap="round" stroke-linejoin="round"/>
    <path d="M7.5,4.5s.833,1,4.5,1,4.5-1,4.5-1" fill="none" stroke="#000" stroke-linecap="round" stroke-linejoin="round"/>
  </g>
</svg>
