<svg xmlns="http://www.w3.org/2000/svg" viewBox="0 0 24 24">
  <title>Fire Fighjter</title>
  <g>
    <path d="M18.941,6.765A.5.5,0,0,0,18.5,6.5H5.5a.5.5,0,0,0-.441.265C5.016,6.846,4,8.8,4,13.5v2a.5.5,0,0,0,.276.447l2,1A.5.5,0,0,0,6.5,17h11a.5.5,0,0,0,.224-.053l2-1A.5.5,0,0,0,20,15.5v-2C20,8.8,18.984,6.846,18.941,6.765Z" fill="#ffa000"/>
    <path d="M10.621,17.815a6.427,6.427,0,0,1-3.152-1.952.5.5,0,0,0-.559-.125L2.8,17.427A3.5,3.5,0,0,0,.69,19.982L.01,23.4A.5.5,0,0,0,.5,24h10a.5.5,0,0,0,.5-.5V18.3A.5.5,0,0,0,10.621,17.815Z" fill="#ffc107"/>
    <path d="M23.31,19.981a3.5,3.5,0,0,0-2.11-2.554l-4.11-1.69a.5.5,0,0,0-.559.125,6.427,6.427,0,0,1-3.152,1.952A.5.5,0,0,0,13,18.3v5.2a.5.5,0,0,0,.5.5h10a.5.5,0,0,0,.49-.6Z" fill="#ffc107"/>
    <path d="M13.8,17.9a.5.5,0,0,0-.44-.08,5.242,5.242,0,0,1-2.72,0,.5.5,0,0,0-.64.48v5.2a.5.5,0,0,0,.5.5h3a.5.5,0,0,0,.5-.5V18.3A.5.5,0,0,0,13.8,17.9Z" fill="#ffa000"/>
    <path d="M17.3,14.4a1.4,1.4,0,0,0-1.965-.205A4.306,4.306,0,0,1,12,16a4.394,4.394,0,0,1-3.375-1.843,1.415,1.415,0,0,0-1.927.258,1.437,1.437,0,0,0,.034,2.123A7.163,7.163,0,0,0,12,19a7.159,7.159,0,0,0,5.261-2.454A1.461,1.461,0,0,0,17.3,14.4Z" fill="#455a64"/>
    <path d="M18.62,7.251A.855.855,0,0,0,18,7H6a.855.855,0,0,0-.62.251C4.994,7.64,5,8.314,5,9.248V9.5c0,1.39.613,2.446,1.437,2.5A8.513,8.513,0,0,0,7.9,14.843,5.288,5.288,0,0,0,12,17a5.3,5.3,0,0,0,4.133-2.2A8.631,8.631,0,0,0,17.562,12C18.386,11.947,19,10.891,19,9.5V9.248C19,8.314,19.006,7.64,18.62,7.251Z" fill="#ffe082"/>
    <path d="M13.5,1h-3A5.506,5.506,0,0,0,5,6.5V7a.5.5,0,0,0,.235.424l2.784,1.74A5.494,5.494,0,0,0,10.934,10h2.132a5.494,5.494,0,0,0,2.915-.836l2.784-1.74A.5.5,0,0,0,19,7V6.5A5.506,5.506,0,0,0,13.5,1Z" fill="#ffc107"/>
    <path d="M18.843,18.136A.5.5,0,0,0,18,18.5l.011.97a1.235,1.235,0,0,1-.214.15,1.367,1.367,0,0,0-.8,1.212A1.236,1.236,0,0,0,18.366,22a1.769,1.769,0,0,0,1.074-.351A1.418,1.418,0,0,0,20,20.5,3.769,3.769,0,0,0,18.843,18.136Z" fill="#f44336"/>
    <path d="M13.812.609a3,3,0,0,0-3.625,0A.5.5,0,0,0,10,1V5a2,2,0,0,0,4,0V1A.5.5,0,0,0,13.812.609Z" fill="#455a64"/>
  </g>
  <g>
    <g>
      <path d="M21.012,17.89,16.9,16.2A6.645,6.645,0,0,1,12,18.5a6.645,6.645,0,0,1-4.9-2.3L2.988,17.89a3,3,0,0,0-1.8,2.188L.5,23.5h23l-.685-3.423A3,3,0,0,0,21.012,17.89Z" fill="none" stroke="#000" stroke-linecap="round" stroke-linejoin="round"/>
      <path d="M6,7.5c-.552,0-.5.9-.5,2s.448,2,1,2a.563.563,0,0,0,.293-.1c.735,2.962,2.786,5.1,5.207,5.1s4.471-2.135,5.206-5.1a.563.563,0,0,0,.294.1c.552,0,1-.9,1-2s.052-2-.5-2" fill="none" stroke="#000" stroke-linecap="round" stroke-linejoin="round"/>
      <line x1="10.5" y1="18.5" x2="10.5" y2="23.5" fill="none" stroke="#000" stroke-linecap="round" stroke-linejoin="round"/>
      <line x1="13.5" y1="18.5" x2="13.5" y2="23.5" fill="none" stroke="#000" stroke-linecap="round" stroke-linejoin="round"/>
      <path d="M13.5,5V1a2.5,2.5,0,0,0-3,0V5A1.5,1.5,0,0,0,12,6.5h0A1.5,1.5,0,0,0,13.5,5Z" fill="none" stroke="#000" stroke-linecap="round" stroke-linejoin="round"/>
      <path d="M10.5,1.5h0a5,5,0,0,0-5,5V7L8.284,8.74a5,5,0,0,0,2.65.76h2.132a5,5,0,0,0,2.65-.76L18.5,7V6.5a5,5,0,0,0-5-5h0" fill="none" stroke="#000" stroke-linecap="round" stroke-linejoin="round"/>
      <path d="M5.5,7s-1,1.875-1,6.5v2l2,1" fill="none" stroke="#000" stroke-linecap="round" stroke-linejoin="round"/>
      <path d="M18.5,7s1,1.875,1,6.5v2l-2,1" fill="none" stroke="#000" stroke-linecap="round" stroke-linejoin="round"/>
      <path d="M8.287,14.528c-.573-.573-2.263.6-1.186,1.676" fill="none" stroke="#000" stroke-linecap="round" stroke-linejoin="round"/>
      <path d="M15.732,14.5c.573-.573,2.243.624,1.167,1.7" fill="none" stroke="#000" stroke-linecap="round" stroke-linejoin="round"/>
    </g>
    <path d="M18.5,18.5a3.282,3.282,0,0,1,1,2c0,1.239-2,1.3-2,.333,0-.819,1-.736,1-1.333Z" fill="none" stroke="#000" stroke-linecap="round" stroke-linejoin="round"/>
  </g>
</svg>
