<svg xmlns="http://www.w3.org/2000/svg" viewBox="0 0 24 24">
  <title>Maid</title>
  <g>
    <path d="M20.854,15.146C19.9,14.19,19,10.615,19,9a.5.5,0,0,0-.5-.5H5.5A.5.5,0,0,0,5,9c0,1.615-.9,5.19-1.854,6.146a.5.5,0,0,0,0,.707C4.252,16.959,8.015,17.445,8.5,17.5l7.061,0c.425-.052,4.188-.537,5.293-1.643A.5.5,0,0,0,20.854,15.146Z" fill="#455a64"/>
    <path d="M18.8,10.227a.5.5,0,0,0-.473-.337c-4.122,0-8.18-3.732-8.33-4.39a.5.5,0,0,0-1,0C9,8.493,5.521,9.911,5.485,9.925a.5.5,0,0,0-.288.3A3.96,3.96,0,0,0,5,11.5c0,1.395.617,2.454,1.445,2.5C7.351,17.01,9.536,19,12,19s4.649-1.99,5.555-5c.828-.045,1.445-1.1,1.445-2.5A3.96,3.96,0,0,0,18.8,10.227Z" fill="#ffe082"/>
    <path d="M12,2A7.008,7.008,0,0,0,5,9a6.819,6.819,0,0,0,.182,1.5.5.5,0,0,0,.488.392.508.508,0,0,0,.184-.035C6,10.8,8.992,9.585,9.8,6.882,11.36,8.59,14.95,10.89,18.33,10.89a.5.5,0,0,0,.488-.392A6.819,6.819,0,0,0,19,9,7.008,7.008,0,0,0,12,2Z" fill="#455a64"/>
    <path d="M10.5,12h-1a.5.5,0,0,1,0-1h1a.5.5,0,0,1,0,1Z" fill="#455a64"/>
    <path d="M14.5,12h-1a.5.5,0,0,1,0-1h1a.5.5,0,0,1,0,1Z" fill="#455a64"/>
    <path d="M12,16.5c-1.394,0-1.847-.612-1.924-.735a.5.5,0,0,1,.833-.552c.026.027.289.287,1.091.287.844,0,1.091-.287,1.093-.29a.485.485,0,0,1,.68-.146.512.512,0,0,1,.15.7C13.847,15.888,13.394,16.5,12,16.5Z" fill="#455a64"/>
    <path d="M16.5,4a1.394,1.394,0,0,1-.507-.17A2,2,0,0,0,14,2a2,2,0,0,0-4,0A2,2,0,0,0,8.007,3.83,1.394,1.394,0,0,1,7.5,4a1.5,1.5,0,0,0,0,3,.5.5,0,0,0,.142-.021A26.281,26.281,0,0,1,12,6a26.281,26.281,0,0,1,4.358.979A.5.5,0,0,0,16.5,7a1.5,1.5,0,0,0,0-3Z" fill="#cfd8dc"/>
    <path d="M20.873,23.167A2.584,2.584,0,0,1,20.4,19.8l.12-.16a.5.5,0,0,0-.222-.767c-.214-.082-.429-.164-.664-.245l-2.57-.9a.494.494,0,0,0-.534.134A6.172,6.172,0,0,1,12,20a6.172,6.172,0,0,1-4.531-2.138.5.5,0,0,0-.534-.134l-2.569.9c-.235.082-.45.164-.665.246a.5.5,0,0,0-.222.767l.125.167a2.584,2.584,0,0,1-.478,3.36A.5.5,0,0,0,3.5,24h17a.5.5,0,0,0,.373-.833Z" fill="#cfd8dc"/>
    <g>
      <path d="M4.28,19.04a.5.5,0,0,0-.582-.166C1.87,19.588,0,20.7,0,23.5a.5.5,0,0,0,.5.5h3a.5.5,0,0,0,.373-.167A3.583,3.583,0,0,0,4.4,19.2Z" fill="#78909c"/>
      <path d="M22.734,20.3A7.322,7.322,0,0,0,20.3,18.874a.5.5,0,0,0-.582.166l-.113.15a3.586,3.586,0,0,0,.521,4.643A.5.5,0,0,0,20.5,24h3a.5.5,0,0,0,.5-.5A4.193,4.193,0,0,0,22.734,20.3Z" fill="#78909c"/>
    </g>
  </g>
  <g>
    <g>
      <g>
        <path d="M5.5,9a6.443,6.443,0,0,0,.168,1.391A3.545,3.545,0,0,0,5.5,11.5c0,1.1.448,2,1,2a.565.565,0,0,0,.3-.1c.734,2.963,2.783,5.1,5.2,5.1s4.47-2.136,5.2-5.1a.565.565,0,0,0,.3.1c.552,0,1-.9,1-2a3.545,3.545,0,0,0-.168-1.109A6.443,6.443,0,0,0,18.5,9" fill="none" stroke="#000" stroke-linecap="round" stroke-linejoin="round"/>
        <path d="M19.471,19.1,16.9,18.2A6.645,6.645,0,0,1,12,20.5a6.645,6.645,0,0,1-4.9-2.3L4.529,19.1C2.117,19.938.5,20.946.5,23.5h23C23.5,20.946,21.883,19.938,19.471,19.1Z" fill="none" stroke="#000" stroke-linecap="round" stroke-linejoin="round"/>
        <path d="M10.5,6a9.48,9.48,0,0,0,7.832,4.391" fill="none" stroke="#000" stroke-linecap="round" stroke-linejoin="round"/>
        <path d="M5.668,10.391S9.937,6.979,10,6" fill="none" stroke="#000" stroke-linecap="round" stroke-linejoin="round"/>
        <line x1="9.5" y1="11.5" x2="10.5" y2="11.5" fill="none" stroke="#000" stroke-linecap="round" stroke-linejoin="round"/>
        <line x1="13.5" y1="11.5" x2="14.5" y2="11.5" fill="none" stroke="#000" stroke-linecap="round" stroke-linejoin="round"/>
      </g>
      <path d="M8.5,17s-3.984-.484-5-1.5c1.094-1.094,2-4.844,2-6.5,0-3.958,2-4.5,2-4.5" fill="none" stroke="#000" stroke-linecap="round" stroke-linejoin="round"/>
      <path d="M15.5,17s3.984-.484,5-1.5c-1.094-1.094-2-4.844-2-6.5a5.238,5.238,0,0,0-2-4.5" fill="none" stroke="#000" stroke-linecap="round" stroke-linejoin="round"/>
      <path d="M10.5,15.5s.312.5,1.5.5,1.5-.5,1.5-.5" fill="none" stroke="#000" stroke-linecap="round" stroke-linejoin="round"/>
      <path d="M16.5,4.5c-.321,0-1-.279-1-.5A1.5,1.5,0,0,0,14,2.5a1.485,1.485,0,0,0-.658.158A1.485,1.485,0,0,0,13.5,2a1.5,1.5,0,0,0-3,0,1.485,1.485,0,0,0,.158.658A1.485,1.485,0,0,0,10,2.5,1.5,1.5,0,0,0,8.5,4c0,.221-.679.5-1,.5a1,1,0,0,0,0,2,28.147,28.147,0,0,1,4.5-1,28.147,28.147,0,0,1,4.5,1,1,1,0,0,0,0-2Z" fill="none" stroke="#000" stroke-linecap="round" stroke-linejoin="round"/>
    </g>
    <path d="M4,19.5a3.071,3.071,0,0,1-.5,4" fill="none" stroke="#000" stroke-linecap="round" stroke-linejoin="round"/>
    <path d="M20,19.5a3.071,3.071,0,0,0,.5,4" fill="none" stroke="#000" stroke-linecap="round" stroke-linejoin="round"/>
  </g>
</svg>
