<svg xmlns="http://www.w3.org/2000/svg" viewBox="0 0 24 24">
  <title>Female User</title>
  <path d="M19.743,18.045l-3.831-.958-.221-.885a12.684,12.684,0,0,0,4.063-1.272.5.5,0,0,0,.242-.4.507.507,0,0,0-.191-.428C19.787,14.09,18,12.614,18,7.5,18,3.187,16.991,1,15,1h-.3A3.2,3.2,0,0,0,12,0C10.121,0,6,1.889,6,7.5c0,5.114-1.787,6.59-1.8,6.6a.5.5,0,0,0,.042.829,12.444,12.444,0,0,0,4.066,1.276l-.221.883-3.83.958A5.612,5.612,0,0,0,0,23.5a.5.5,0,0,0,.5.5h23a.5.5,0,0,0,.5-.5A5.612,5.612,0,0,0,19.743,18.045Z" fill="#455a64"/>
  <path d="M19.622,18.531,15.5,17.5l-.427-1.708A12.905,12.905,0,0,0,19.5,14.5s-2-1.5-2-7-1.667-6-2.5-6h-.5A2.788,2.788,0,0,0,12,.5C10.625.5,6.5,2,6.5,7.5s-2,7-2,7a12.649,12.649,0,0,0,4.426,1.294L8.5,17.5,4.378,18.531A5.12,5.12,0,0,0,.5,23.5v0h23v0A5.12,5.12,0,0,0,19.622,18.531Z" fill="none" stroke="#000" stroke-linecap="round" stroke-linejoin="round"/>
</svg>
