<svg xmlns="http://www.w3.org/2000/svg" viewBox="0 0 24 24">
  <title>Clown</title>
  <g>
    <path d="M22.843,6.867A.516.516,0,0,0,23,6.5C23,4.086,20.661,3,19,3a4.584,4.584,0,0,0-2.645.895A12.245,12.245,0,0,0,12,3a12.245,12.245,0,0,0-4.355.895A4.584,4.584,0,0,0,5,3C3.339,3,1,4.086,1,6.5a.516.516,0,0,0,.157.367c.123.117.2.185,1.109.174A5.544,5.544,0,0,0,1,10.5a.5.5,0,0,0,.5.5c.125,0,.158,0,.931-.391a3.286,3.286,0,0,0,.695,3.222c.268.3.9,1.013,1.515.713a.8.8,0,0,0,.42-.561A3.6,3.6,0,0,0,7.5,15h9a3.594,3.594,0,0,0,2.439-1.017.8.8,0,0,0,.42.561c.619.3,1.247-.408,1.515-.713a3.286,3.286,0,0,0,.695-3.222c.772.391.805.391.931.391a.5.5,0,0,0,.5-.5,5.544,5.544,0,0,0-1.267-3.459C22.652,7.052,22.721,6.984,22.843,6.867Z" fill="#f44336"/>
    <path d="M18,8.154c0-.051,0-.1,0-.154,0-3.2-1.075-3.854-1.291-3.954-.249-.116-9.167-.116-9.419,0C7.075,4.146,6,4.8,6,8c0,.044,0,.087,0,.13A2.669,2.669,0,0,0,5,10.5c0,1.391.614,2.448,1.439,2.5.908,3.012,3.1,5,5.561,5s4.653-1.99,5.561-5c.825-.05,1.439-1.107,1.439-2.5A2.621,2.621,0,0,0,18,8.154Z" fill="#ffe082"/>
    <path d="M10.5,11h-1a.5.5,0,0,1,0-1h1a.5.5,0,0,1,0,1Z" fill="#455a64"/>
    <path d="M14.5,11h-1a.5.5,0,0,1,0-1h1a.5.5,0,0,1,0,1Z" fill="#455a64"/>
    <path d="M12,16a2.723,2.723,0,0,1-3-2.5.5.5,0,0,1,1,0c0,.869.841,1.5,2,1.5,1.122,0,2-.659,2-1.5a.5.5,0,0,1,1,0A2.754,2.754,0,0,1,12,16Z" fill="#f44336"/>
    <path d="M8.5,9.5a.5.5,0,0,1-.346-.86A2.221,2.221,0,0,1,9.5,8a.5.5,0,0,1,0,1,1.369,1.369,0,0,0-.654.36A.5.5,0,0,1,8.5,9.5Z" fill="#455a64"/>
    <path d="M15.5,9.5a.5.5,0,0,1-.345-.137A1.337,1.337,0,0,0,14.5,9a.5.5,0,0,1,0-1,2.221,2.221,0,0,1,1.346.64A.5.5,0,0,1,15.5,9.5Z" fill="#455a64"/>
    <path d="M12,13a1,1,0,1,1,1-1A1,1,0,0,1,12,13Z" fill="#f44336"/>
    <path d="M12.219.051a.492.492,0,0,0-.437,0C10.983.439,7,2.48,7,4.5a.5.5,0,0,0,.713.452A11.5,11.5,0,0,1,12,4a11.5,11.5,0,0,1,4.287.952A.493.493,0,0,0,16.5,5a.5.5,0,0,0,.5-.5C17,2.48,13.017.439,12.219.051Z" fill="#f44336"/>
    <path d="M20.873,23.167c-1.682-1.882-.479-4.338-.42-4.454l.08-.17a.5.5,0,0,0-.258-.674c-.2-.085-.423-.169-.64-.242l-1.979-.689a.514.514,0,0,0-.473.128A.583.583,0,0,0,17,17.56a2.851,2.851,0,0,1-.715,2.05C15.469,20.532,14.026,21,12,21s-3.455-.464-4.276-1.378a2.863,2.863,0,0,1-.717-2.158.5.5,0,0,0-.662-.526l-1.973.688c-.22.074-.439.157-.648.241a.5.5,0,0,0-.256.7l.086.163c.013.025,1.265,2.547-.427,4.44A.5.5,0,0,0,3.5,24h17a.5.5,0,0,0,.373-.833Z" fill="#cfd8dc"/>
    <path d="M17.987,17.356a.5.5,0,0,0-.33-.417l-.59-.21a.5.5,0,0,0-.536.133A6.172,6.172,0,0,1,12,19a6.172,6.172,0,0,1-4.531-2.138.5.5,0,0,0-.536-.133l-.59.21a.65.65,0,0,0-.339.5,3.87,3.87,0,0,0,.96,2.832C7.981,21.419,9.675,22,12,22s4.019-.581,5.036-1.728A3.886,3.886,0,0,0,17.987,17.356Z" fill="#8e24aa"/>
    <path d="M4.442,18.267l-.09-.17a.5.5,0,0,0-.632-.229c-1.6.658-3.72,1.883-3.72,4.9v.73a.5.5,0,0,0,.5.5h3a.5.5,0,0,0,.373-.167C6.016,21.436,4.511,18.4,4.442,18.267Z" fill="#8e24aa"/>
    <path d="M20.268,17.867a.5.5,0,0,0-.64.25l-.074.156c-.065.128-1.57,3.162.573,5.56A.5.5,0,0,0,20.5,24h3a.5.5,0,0,0,.5-.5v-.73C24,19.732,21.87,18.517,20.268,17.867Z" fill="#8e24aa"/>
  </g>
  <g>
    <g>
      <line x1="9.5" y1="10.5" x2="10.5" y2="10.5" fill="none" stroke="#000" stroke-linecap="round" stroke-linejoin="round"/>
      <line x1="13.5" y1="10.5" x2="14.5" y2="10.5" fill="none" stroke="#000" stroke-linecap="round" stroke-linejoin="round"/>
      <path d="M16.5,4.5s1,.462,1,3.5a4.845,4.845,0,0,1-.043.509c.015,0,.028-.009.043-.009.552,0,1,.9,1,2s-.448,2-1,2a.563.563,0,0,1-.294-.1c-.735,2.962-2.786,5.1-5.206,5.1s-4.471-2.135-5.207-5.1a.563.563,0,0,1-.293.1c-.552,0-1-.9-1-2s.448-2,1-2c.015,0,.028.007.043.009A4.845,4.845,0,0,1,6.5,8c0-3.038,1-3.5,1-3.5" fill="none" stroke="#000" stroke-linecap="round" stroke-linejoin="round"/>
    </g>
    <path d="M7.5,14.5a3.873,3.873,0,0,1-3-2s.625,2.833-1,1,0-4,0-4-2,1.042-2,1a5.4,5.4,0,0,1,2-4,15.272,15.272,0,0,1-2,0c0-2.208,2.25-3,3.5-3a3.319,3.319,0,0,1,2.5,1,11.921,11.921,0,0,1,4.5-1,11.921,11.921,0,0,1,4.5,1,3.319,3.319,0,0,1,2.5-1c1.25,0,3.5.79,3.5,3a15.272,15.272,0,0,1-2,0,5.4,5.4,0,0,1,2,4c0,.042-2-1-2-1s1.625,2.167,0,4-1-1-1-1a3.873,3.873,0,0,1-3,2" fill="none" stroke="#000" stroke-linecap="round" stroke-linejoin="round"/>
    <path d="M14.5,13.5a2.267,2.267,0,0,1-2.5,2,2.23,2.23,0,0,1-2.5-2" fill="none" stroke="#000" stroke-linecap="round" stroke-linejoin="round"/>
    <path d="M9.5,8.5a1.831,1.831,0,0,0-1,.5" fill="none" stroke="#000" stroke-linecap="round" stroke-linejoin="round"/>
    <path d="M14.5,8.5a1.831,1.831,0,0,1,1,.5" fill="none" stroke="#000" stroke-linecap="round" stroke-linejoin="round"/>
    <circle cx="12" cy="12" r="0.5" fill="none" stroke="#000" stroke-linecap="round" stroke-linejoin="round"/>
    <path d="M16.5,4.5c0-1.812-4.5-4-4.5-4s-4.5,2.188-4.5,4" fill="none" stroke="#000" stroke-linecap="round" stroke-linejoin="round"/>
    <path d="M19.471,18.1,16.9,17.2A6.645,6.645,0,0,1,12,19.5a6.645,6.645,0,0,1-4.9-2.3L4.529,18.1C2.117,18.938.5,20.212.5,22.766V23.5h23v-.734C23.5,20.212,21.883,18.938,19.471,18.1Z" fill="none" stroke="#000" stroke-linecap="round" stroke-linejoin="round"/>
    <path d="M4,18.5s1.437,2.833-.5,5" fill="none" stroke="#000" stroke-linecap="round" stroke-linejoin="round"/>
    <path d="M20,18.5s-1.438,2.833.5,5" fill="none" stroke="#000" stroke-linecap="round" stroke-linejoin="round"/>
    <path d="M6.5,17.5s-.479,4,5.5,4,5.5-4,5.5-4" fill="none" stroke="#000" stroke-linecap="round" stroke-linejoin="round"/>
  </g>
</svg>
