<svg xmlns="http://www.w3.org/2000/svg" viewBox="0 0 24 24">
  <title>Jack Sparrow</title>
  <g>
    <path d="M15.941,1.185l-.185-.113A8.2,8.2,0,0,0,12,0,8.2,8.2,0,0,0,8.238,1.074l-.18.11a.5.5,0,0,0,.147.912A11.626,11.626,0,0,1,11.7,3.9a.5.5,0,0,0,.606,0,11.584,11.584,0,0,1,3.49-1.8.5.5,0,0,0,.147-.912Z" fill="#455a64"/>
    <path d="M16.5,7h-9a.5.5,0,0,0-.5.5v6a.509.509,0,0,0,.066.25C7.144,13.883,8.977,17,12,17s4.856-3.117,4.934-3.25A.509.509,0,0,0,17,13.5v-6A.5.5,0,0,0,16.5,7Z" fill="#ffe082"/>
    <path d="M23.5,24H.5a.5.5,0,0,1-.5-.5v-.734a6.5,6.5,0,0,1,4.365-6.14l2.572-.895a.5.5,0,0,1,.532.135A6.17,6.17,0,0,0,12,18a6.17,6.17,0,0,0,4.53-2.134.5.5,0,0,1,.532-.135l2.572.895A6.506,6.506,0,0,1,24,22.766V23.5A.5.5,0,0,1,23.5,24Z" fill="#616161"/>
    <path d="M10.5,10h-1a.5.5,0,0,1,0-1h1a.5.5,0,0,1,0,1Z" fill="#455a64"/>
    <path d="M14.5,10h-1a.5.5,0,0,1,0-1h1a.5.5,0,0,1,0,1Z" fill="#455a64"/>
    <path d="M14.5,13.5a.5.5,0,0,1-.432-.248A.679.679,0,0,0,13.5,13a1.268,1.268,0,0,1-1.2-.473c-.043-.05-.092-.107-.158-.174a.5.5,0,0,1,.707-.707c.087.087.152.163.209.229a1.214,1.214,0,0,0,.092.1A1.248,1.248,0,0,0,13.5,12a1.67,1.67,0,0,1,1.432.748.5.5,0,0,1-.18.684A.492.492,0,0,1,14.5,13.5Z" fill="#455a64"/>
    <path d="M9.5,13.5a.492.492,0,0,1-.252-.068.5.5,0,0,1-.18-.684A1.67,1.67,0,0,1,10.5,12a1.1,1.1,0,0,0,.351-.028c.011-.009.053-.058.087-.1.057-.065.122-.142.209-.229a.5.5,0,0,1,.707.707c-.066.066-.115.124-.158.174A1.268,1.268,0,0,1,10.5,13a.676.676,0,0,0-.568.252A.5.5,0,0,1,9.5,13.5Z" fill="#455a64"/>
    <path d="M12,15.5a.5.5,0,0,1-.447-.276l-.5-1A.5.5,0,0,1,11.5,13.5h1a.5.5,0,0,1,.447.724l-.5,1A.5.5,0,0,1,12,15.5Z" fill="#455a64"/>
    <g>
      <path d="M10.5,16.5,11,21s-.8-4.5,1-4.5S13,21,13,21l.5-4.5Z" fill="#455a64"/>
      <path d="M13,21.5a.6.6,0,0,1-.072,0,.5.5,0,0,1-.426-.551l.161-1.446a4.052,4.052,0,0,0-.356-2.353.382.382,0,0,0-.615,0,4.155,4.155,0,0,0-.354,2.377l.158,1.422a.5.5,0,0,1-.426.551.507.507,0,0,1-.563-.408,13.1,13.1,0,0,1-.168-1.5L10,16.556A.5.5,0,0,1,10.5,16h3a.5.5,0,0,1,.5.556l-.337,3.03a13.1,13.1,0,0,1-.168,1.5A.5.5,0,0,1,13,21.5Z" fill="#455a64"/>
    </g>
    <rect x="7" y="5" width="10" height="3" rx="0.5" ry="0.5" fill="#455a64"/>
    <path d="M18.5,20.5A.5.5,0,0,1,18,20V6.5a.5.5,0,0,1,1,0V20A.5.5,0,0,1,18.5,20.5Z" fill="#607d8b"/>
    <path d="M16.5,20.5A.5.5,0,0,1,16,20V5.5a.5.5,0,0,1,1,0V20A.5.5,0,0,1,16.5,20.5Z" fill="#607d8b"/>
    <path d="M7.5,20.5A.5.5,0,0,1,7,20V5.5a.5.5,0,0,1,1,0V20A.5.5,0,0,1,7.5,20.5Z" fill="#607d8b"/>
    <path d="M5.5,20.5A.5.5,0,0,1,5,20V5.5a.5.5,0,0,1,1,0V20A.5.5,0,0,1,5.5,20.5Z" fill="#607d8b"/>
    <path d="M12.3,3.1A12.419,12.419,0,0,0,8.442,1.125,3.913,3.913,0,0,0,7.5,1C5.443,1,2.768,3.53,2.655,3.639a.5.5,0,0,0-.009.715l2.5,2.5A.5.5,0,0,0,5.5,7l.04,0a.506.506,0,0,0,.366-.205A2.081,2.081,0,0,1,7.5,6H10a.5.5,0,0,0,.354-.146l2-2A.5.5,0,0,0,12.3,3.1Z" fill="#607d8b"/>
    <path d="M21.345,3.639C21.232,3.53,18.557,1,16.5,1a3.848,3.848,0,0,0-.935.124A12.412,12.412,0,0,0,11.7,3.1a.5.5,0,0,0-.05.751l2,2A.5.5,0,0,0,14,6h2.5a2.087,2.087,0,0,1,1.593.789A.5.5,0,0,0,18.458,7L18.5,7a.5.5,0,0,0,.354-.146l2.5-2.5a.5.5,0,0,0-.009-.715Z" fill="#607d8b"/>
    <path d="M18.5,13a1,1,0,1,1,1-1A1,1,0,0,1,18.5,13Z" fill="#f44336"/>
    <path d="M18.5,15a1,1,0,1,1,1-1A1,1,0,0,1,18.5,15Z" fill="#f44336"/>
    <path d="M14.354,5.146l-2-2a.5.5,0,0,0-.707,0l-2,2A.5.5,0,0,0,10,6h4a.5.5,0,0,0,.354-.854Z" fill="#37474f"/>
  </g>
  <g>
    <g>
      <path d="M19.471,17.1,16.9,16.2A6.645,6.645,0,0,1,12,18.5a6.645,6.645,0,0,1-4.9-2.3L4.529,17.1A6,6,0,0,0,.5,22.766V23.5h23v-.734A6,6,0,0,0,19.471,17.1Z" fill="none" stroke="#000" stroke-linecap="round" stroke-linejoin="round"/>
      <line x1="9.5" y1="9.5" x2="10.5" y2="9.5" fill="none" stroke="#000" stroke-linecap="round" stroke-linejoin="round"/>
      <line x1="13.5" y1="9.5" x2="14.5" y2="9.5" fill="none" stroke="#000" stroke-linecap="round" stroke-linejoin="round"/>
      <path d="M16.5,13.5s-1.729,3-4.5,3-4.5-3-4.5-3" fill="none" stroke="#000" stroke-linecap="round" stroke-linejoin="round"/>
      <path d="M12.5,12c.365.365.292.5,1,.5a1.162,1.162,0,0,1,1,.5" fill="none" stroke="#000" stroke-linecap="round" stroke-linejoin="round"/>
      <path d="M11.5,12c-.365.365-.292.5-1,.5a1.162,1.162,0,0,0-1,.5" fill="none" stroke="#000" stroke-linecap="round" stroke-linejoin="round"/>
      <polygon points="11.5 14 12 15 12.5 14 11.5 14" fill="none" stroke="#000" stroke-linecap="round" stroke-linejoin="round"/>
      <path d="M10.5,16.5,11,21s-.8-4.5,1-4.5S13,21,13,21l.5-4.5" fill="none" stroke="#000" stroke-linecap="round" stroke-linejoin="round"/>
      <polyline points="7.5 5.5 7.5 7.5 16.5 7.5 16.5 5.5" fill="none" stroke="#000" stroke-linecap="round" stroke-linejoin="round"/>
      <line x1="5.5" y1="6.5" x2="5.5" y2="20" fill="none" stroke="#000" stroke-linecap="round" stroke-linejoin="round"/>
      <line x1="7.5" y1="7.5" x2="7.5" y2="18.5" fill="none" stroke="#000" stroke-linecap="round" stroke-linejoin="round"/>
      <line x1="18.5" y1="6.5" x2="18.5" y2="20" fill="none" stroke="#000" stroke-linecap="round" stroke-linejoin="round"/>
      <line x1="16.5" y1="7.5" x2="16.5" y2="18.5" fill="none" stroke="#000" stroke-linecap="round" stroke-linejoin="round"/>
      <path d="M12,3.5s-2.625-2-4.5-2S3,4,3,4L5.5,6.5a2.6,2.6,0,0,1,2-1H10Z" fill="none" stroke="#000" stroke-linecap="round" stroke-linejoin="round"/>
      <path d="M12,3.5s2.625-2,4.5-2S21,4,21,4L18.5,6.5a2.6,2.6,0,0,0-2-1H14Z" fill="none" stroke="#000" stroke-linecap="round" stroke-linejoin="round"/>
      <line x1="10" y1="5.5" x2="14" y2="5.5" fill="none" stroke="#000" stroke-linecap="round" stroke-linejoin="round"/>
      <path d="M8.5,1.5A7.735,7.735,0,0,1,12,.5a7.735,7.735,0,0,1,3.5,1" fill="none" stroke="#000" stroke-linecap="round" stroke-linejoin="round"/>
    </g>
    <circle cx="18.5" cy="12" r="0.5" fill="none" stroke="#000" stroke-linecap="round" stroke-linejoin="round"/>
    <circle cx="18.5" cy="14" r="0.5" fill="none" stroke="#000" stroke-linecap="round" stroke-linejoin="round"/>
  </g>
</svg>
