<svg xmlns="http://www.w3.org/2000/svg" viewBox="0 0 24 24">
  <title>Steve Jobs</title>
  <g>
    <path d="M18.8,8.228a.507.507,0,0,0-.515-.336l-.838.069c-.077-.815-.234-2.488-.343-3.8A2.339,2.339,0,0,0,14.76,2a3.144,3.144,0,0,0-2.08.714A1.021,1.021,0,0,1,12,3c-.528,0-.722-.036-.823-.149a2.365,2.365,0,0,0-3.486-.138,2.7,2.7,0,0,0-.859,1.746L6.544,7.94c-.258-.026-.576-.051-.875-.051a.5.5,0,0,0-.473.338A3.975,3.975,0,0,0,5,9.5c0,1.394.616,2.451,1.443,2.5.094.327.192.618.3.9a.505.505,0,0,0,.113.172l.342.342c.9.9,1.126,1.093,2.3,1.093a2.175,2.175,0,0,0,1.557-.882c.364-.384.6-.618.943-.618s.58.234.943.618A2.175,2.175,0,0,0,14.5,14.5c1.174,0,1.4-.187,2.28-1.065l.373-.371a.5.5,0,0,0,.115-.179c.1-.278.2-.571.289-.887C18.384,11.951,19,10.893,19,9.5A3.975,3.975,0,0,0,18.8,8.228Z" fill="#ffe082"/>
    <path d="M12,0A7.008,7.008,0,0,0,5,7a6.742,6.742,0,0,0,.182,1.5.5.5,0,0,0,.488.392,9.982,9.982,0,0,1,1.254.1A.5.5,0,0,0,7.5,8.541l.33-4a1.7,1.7,0,0,1,.542-1.1,1.326,1.326,0,0,1,2.058.066A1.916,1.916,0,0,0,12,4a2.018,2.018,0,0,0,1.338-.533A2.179,2.179,0,0,1,14.76,3a1.346,1.346,0,0,1,1.352,1.241c.15,1.813.391,4.307.391,4.307A.5.5,0,0,0,17,9l.042,0,1.33-.11a.5.5,0,0,0,.446-.39A6.742,6.742,0,0,0,19,7,7.008,7.008,0,0,0,12,0Z" fill="#455a64"/>
    <path d="M17.062,12.3a.5.5,0,0,0-.623.063l-.366.364c-.772.772-.772.772-1.573.772-.275,0-.5-.217-.832-.57A2.294,2.294,0,0,0,12,12a2.294,2.294,0,0,0-1.668.93c-.336.354-.556.57-.832.57-.8,0-.8,0-1.591-.8l-.347-.348a.5.5,0,0,0-.821.529C7.616,15.244,9.518,18,12,18s4.334-2.637,5.258-5.1A.5.5,0,0,0,17.062,12.3Z" fill="#455a64"/>
    <path d="M19.635,16.626l-2.572-.895a.5.5,0,0,0-.533.135C15.318,17.188,13.657,19,12,19s-3.318-1.812-4.53-3.134a.5.5,0,0,0-.533-.135l-2.572.895A6.505,6.505,0,0,0,0,22.766V23.5a.5.5,0,0,0,.5.5h23a.5.5,0,0,0,.5-.5v-.734A6.505,6.505,0,0,0,19.635,16.626Z" fill="#2196f3"/>
    <circle cx="9.5" cy="10" r="2" fill="#607d8b"/>
    <circle cx="9.5" cy="10" r="1" fill="#cfd8dc"/>
    <circle cx="14.5" cy="10" r="2" fill="#607d8b"/>
    <circle cx="14.5" cy="10" r="1" fill="#cfd8dc"/>
    <path d="M8,10.5a.5.5,0,0,1-.354-.146l-1.5-1.5a.5.5,0,0,1,.707-.707l1.5,1.5A.5.5,0,0,1,8,10.5Z" fill="#607d8b"/>
    <path d="M16,10.5a.5.5,0,0,1-.354-.854l1.5-1.5a.5.5,0,1,1,.707.707l-1.5,1.5A.5.5,0,0,1,16,10.5Z" fill="#607d8b"/>
    <path d="M13,10.5a.5.5,0,0,1-.417-.223.754.754,0,0,0-1.168,0,.5.5,0,0,1-.832-.555,1.749,1.749,0,0,1,2.832,0A.5.5,0,0,1,13,10.5Z" fill="#607d8b"/>
    <path d="M12.5,15h-1a.5.5,0,0,1,0-1h1a.5.5,0,0,1,0,1Z" fill="#fafafa"/>
  </g>
  <g>
    <path d="M18.5,7a6.5,6.5,0,0,0-13,0,6.443,6.443,0,0,0,.168,1.391A3.545,3.545,0,0,0,5.5,9.5c0,1.1.448,2,1,2a.565.565,0,0,0,.3-.1c.734,2.963,2.783,6.1,5.2,6.1s4.47-3.136,5.2-6.1a.565.565,0,0,0,.3.1c.552,0,1-.9,1-2a3.545,3.545,0,0,0-.168-1.109A6.443,6.443,0,0,0,18.5,7Z" fill="none" stroke="#000" stroke-linecap="round" stroke-linejoin="round"/>
    <path d="M19.471,17.1,16.9,16.2c-1.325,1.446-3.043,3.3-4.9,3.3s-3.574-1.85-4.9-3.3L4.529,17.1A6,6,0,0,0,.5,22.766V23.5h23v-.734A6,6,0,0,0,19.471,17.1Z" fill="none" stroke="#000" stroke-linecap="round" stroke-linejoin="round"/>
    <path d="M18.332,8.391,17,8.5s-.243-2.494-.391-4.3a1.852,1.852,0,0,0-1.848-1.7h0a2.647,2.647,0,0,0-1.753.594A1.52,1.52,0,0,1,12,3.5c-.563,0-.944-.028-1.2-.324A1.732,1.732,0,0,0,9.512,2.5h0a2.186,2.186,0,0,0-2.179,2L7,8.5a10.513,10.513,0,0,0-1.332-.109" fill="none" stroke="#000" stroke-linecap="round" stroke-linejoin="round"/>
    <circle cx="9.5" cy="10" r="1.5" fill="none" stroke="#000" stroke-linecap="round" stroke-linejoin="round"/>
    <circle cx="14.5" cy="10" r="1.5" fill="none" stroke="#000" stroke-linecap="round" stroke-linejoin="round"/>
    <line x1="8" y1="10" x2="6.5" y2="8.5" fill="none" stroke="#000" stroke-linecap="round" stroke-linejoin="round"/>
    <line x1="16" y1="10" x2="17.5" y2="8.5" fill="none" stroke="#000" stroke-linecap="round" stroke-linejoin="round"/>
    <path d="M11,10a1.25,1.25,0,0,1,2,0" fill="none" stroke="#000" stroke-linecap="round" stroke-linejoin="round"/>
    <path d="M7.5,13c.891.891.969,1,2,1s1.375-1.5,2.5-1.5" fill="none" stroke="#000" stroke-linecap="round" stroke-linejoin="round"/>
    <path d="M16.5,13c-.891.891-.969,1-2,1s-1.375-1.5-2.5-1.5" fill="none" stroke="#000" stroke-linecap="round" stroke-linejoin="round"/>
    <line x1="11.5" y1="14.5" x2="12.5" y2="14.5" fill="none" stroke="#000" stroke-linecap="round" stroke-linejoin="round"/>
  </g>
</svg>
