<svg xmlns="http://www.w3.org/2000/svg" viewBox="0 0 24 24">
  <title>Predator</title>
  <g>
    <path d="M20.207,17.545l-5.5-2.5a.5.5,0,0,0-.561.1L13.293,16H10.707l-.854-.854a.5.5,0,0,0-.561-.1l-5.5,2.5a.5.5,0,0,0-.248.662l2.5,5.5A.5.5,0,0,0,6.5,24h11a.5.5,0,0,0,.455-.293l2.5-5.5A.5.5,0,0,0,20.207,17.545Z" fill="#757575"/>
    <path d="M4.5,16.5a.5.5,0,0,1-.485-.38C2.2,8.767,3.586,5.558,4.573,4.3A3.1,3.1,0,0,1,7,3,.5.5,0,0,1,7,4a2.1,2.1,0,0,0-1.64.915c-.7.9-2.149,3.765-.375,10.965a.5.5,0,0,1-.366.605A.508.508,0,0,1,4.5,16.5Z" fill="#455a64"/>
    <path d="M6.5,15.5a.5.5,0,0,1-.441-.263c-2.155-4-.388-8.159-.011-8.952a.5.5,0,1,1,.9.43,9.278,9.278,0,0,0-.011,8.048.5.5,0,0,1-.44.737Z" fill="#455a64"/>
    <path d="M19.64,16.5a.508.508,0,0,1-.12-.015.5.5,0,0,1-.366-.605c1.774-7.2.329-10.066-.375-10.965A2.1,2.1,0,0,0,17.14,4a.5.5,0,0,1,0-1,3.1,3.1,0,0,1,2.427,1.3c.986,1.259,2.371,4.468.559,11.821A.5.5,0,0,1,19.64,16.5Z" fill="#455a64"/>
    <path d="M17.639,15.5a.5.5,0,0,1-.44-.737,9.278,9.278,0,0,0-.011-8.048.5.5,0,1,1,.9-.43c.376.793,2.144,4.949-.011,8.952A.5.5,0,0,1,17.639,15.5Z" fill="#455a64"/>
    <path d="M6.955,23.293l-2.5-5.5a.493.493,0,0,0-.1-.146l-.5-.5a.5.5,0,0,0-.575-.095l-1.135.563A2.49,2.49,0,0,0,.82,19.361L.01,23.4A.5.5,0,0,0,.5,24h6a.5.5,0,0,0,.455-.707Z" fill="#616161"/>
    <path d="M23.181,19.363a2.5,2.5,0,0,0-1.329-1.752l-1.13-.56a.5.5,0,0,0-.575.095l-.5.5a.493.493,0,0,0-.1.146l-2.5,5.5A.5.5,0,0,0,17.5,24h6a.5.5,0,0,0,.49-.6Z" fill="#616161"/>
    <path d="M18,6A6,6,0,0,0,6,6,5.914,5.914,0,0,0,7.421,9.863,6.269,6.269,0,0,0,6.5,12.5c0,1.395,1.89,2.19,2.89,2.417A.5.5,0,0,0,10,14.43V12.809l2-1,2,1V14.5a.5.5,0,0,0,.5.5c.871,0,3.5-.887,3.5-2.5a7.021,7.021,0,0,0-1.122-3.011A6.011,6.011,0,0,0,18,6Z" fill="#757575"/>
    <path d="M11.667,9.028A14.72,14.72,0,0,1,7.854,7.146.5.5,0,0,0,7,7.51C7.039,9.5,8.329,11,10,11c1.545,0,1.984-.971,2-1.484A.5.5,0,0,0,11.667,9.028Z" fill="#424242"/>
    <path d="M16.7,7.04a.5.5,0,0,0-.549.106,14.72,14.72,0,0,1-3.813,1.882A.5.5,0,0,0,12,9.516c.016.514.455,1.484,2,1.484,1.671,0,2.961-1.5,3-3.49A.5.5,0,0,0,16.7,7.04Z" fill="#424242"/>
    <path d="M14.724,12.053l-2.54-1.27a.534.534,0,0,0-.545.089L9.276,12.053A.5.5,0,0,0,9,12.5v3a.5.5,0,0,0,.146.354l1,1A.5.5,0,0,0,10.5,17h3a.5.5,0,0,0,.354-.146l1-1A.5.5,0,0,0,15,15.5v-3A.5.5,0,0,0,14.724,12.053Z" fill="#9e9e9e"/>
  </g>
  <g>
    <path d="M14.5,15.5,20,18l.5-.5,1.125.563a2,2,0,0,1,1.067,1.4L23.5,23.5H.5l.808-4.041a2,2,0,0,1,1.067-1.4L3.5,17.5,4,18l5.5-2.5,1,1h3Z" fill="none" stroke="#000" stroke-linecap="round" stroke-linejoin="round"/>
    <line x1="4" y1="18" x2="6.5" y2="23.5" fill="none" stroke="#000" stroke-linecap="round" stroke-linejoin="round"/>
    <line x1="20" y1="18" x2="17.5" y2="23.5" fill="none" stroke="#000" stroke-linecap="round" stroke-linejoin="round"/>
    <path d="M17.5,6A5.5,5.5,0,1,0,8.025,9.795,7.088,7.088,0,0,0,7,12.5c0,.99,1.534,1.712,2.5,1.927V15.5l1,1h3l1-1v-1c.781,0,3-.812,3-2a8.044,8.044,0,0,0-1.223-3.046A5.474,5.474,0,0,0,17.5,6Zm-8,8.427V12.5l1-.5m3,0,1,.5v2m-7-7c.906.906,4,2,4,2s-.031,1-1.5,1S7.531,9.094,7.5,7.5Zm9,0c-.906.906-4,2-4,2s.031,1,1.5,1S16.469,9.094,16.5,7.5ZM7,3.5C4.667,3.5,2.333,7.208,4.5,16m2-9.5a9.785,9.785,0,0,0,0,8.5M17.14,3.5c2.333,0,4.667,3.708,2.5,12.5m-2-9.5a9.785,9.785,0,0,1,0,8.5" fill="none" stroke="#000" stroke-linecap="round" stroke-linejoin="round"/>
  </g>
</svg>
