<svg xmlns="http://www.w3.org/2000/svg" viewBox="0 0 24 24">
  <title>Santa Claus</title>
  <g>
    <path d="M17.792,6.824a.5.5,0,0,0-.451-.067A22.712,22.712,0,0,1,12,7.5a22.712,22.712,0,0,1-5.341-.743A.5.5,0,0,0,6,7.23V8.5a.5.5,0,0,0,.22.414c.088.154.25.559.383.89C7.175,11.228,7.886,13,9,13a4.014,4.014,0,0,0,1.888-.595A2.642,2.642,0,0,1,12,12a2.642,2.642,0,0,1,1.112.405A4.014,4.014,0,0,0,15,13c1.114,0,1.825-1.772,2.4-3.2.133-.331.295-.735.383-.89A.5.5,0,0,0,18,8.5V7.23A.5.5,0,0,0,17.792,6.824Z" fill="#ffe082"/>
    <path d="M19.622,16.622l-3.471-1.1A.5.5,0,0,0,16,15.5H8a.5.5,0,0,0-.151.023l-3.483,1.1A6.5,6.5,0,0,0,0,22.766V23.5a.5.5,0,0,0,.5.5h23a.5.5,0,0,0,.5-.5v-.734A6.509,6.509,0,0,0,19.622,16.622Z" fill="#f44336"/>
    <path d="M10.5,10h-1a.5.5,0,0,1,0-1h1a.5.5,0,0,1,0,1Z" fill="#455a64"/>
    <path d="M14.5,10h-1a.5.5,0,0,1,0-1h1a.5.5,0,0,1,0,1Z" fill="#455a64"/>
    <path d="M18.924,3.217l-.077-.077C18.713,3.012,15.546,0,12.5,0A6.09,6.09,0,0,0,8.086,2.354a3.732,3.732,0,0,0-1.067,2.31.5.5,0,0,0,.388.4c.292.062.649.164,1.049.276A13.559,13.559,0,0,0,12,6a13.619,13.619,0,0,0,3.57-.669A7.685,7.685,0,0,1,17,5h.164a.5.5,0,0,0,.376.17h0a.5.5,0,0,0,.485-.39.98.98,0,0,1,.681-.729.5.5,0,0,0,.216-.834Z" fill="#f44336"/>
    <path d="M18.485,6.381l-.5-2A.5.5,0,0,0,17.5,4H17a7.439,7.439,0,0,0-1.7.369A12.859,12.859,0,0,1,12,5a12.8,12.8,0,0,1-3.272-.626c-.424-.12-.8-.228-1.12-.294-.479-.1-.817-.13-1,.116A5.516,5.516,0,0,0,5.5,7a.5.5,0,0,0,.146.354,1.726,1.726,0,0,0,.694.351A23.575,23.575,0,0,0,12,8.5a23.611,23.611,0,0,0,5.658-.795,1.736,1.736,0,0,0,.7-.352A.5.5,0,0,0,18.5,7V6.5A.491.491,0,0,0,18.485,6.381Z" fill="#cfd8dc"/>
    <path d="M18.721,8.351A1.821,1.821,0,0,0,17.5,8c-.456,0-.613.39-1.031,1.431C15.785,11.136,15.29,12,15,12a3.141,3.141,0,0,1-1.425-.481A3.425,3.425,0,0,0,12,11a3.425,3.425,0,0,0-1.575.519A3.141,3.141,0,0,1,9,12c-.29,0-.785-.864-1.469-2.569C7.113,8.391,6.957,8,6.531,8h0a1.835,1.835,0,0,0-1.25.35A.874.874,0,0,0,5,9c0,1.413.228,2.038.5,2.308a8.346,8.346,0,0,0,.59,3.481,4.182,4.182,0,0,0,1.292,1.035,4.415,4.415,0,0,1,.762.529A5.765,5.765,0,0,0,12,18a5.765,5.765,0,0,0,3.854-1.646,4.415,4.415,0,0,1,.762-.529,4.182,4.182,0,0,0,1.292-1.035,8.346,8.346,0,0,0,.59-3.481c.275-.27.5-.895.5-2.308A.874.874,0,0,0,18.721,8.351Z" fill="#cfd8dc"/>
    <path d="M12,15c-1.394,0-1.848-.612-1.924-.735a.5.5,0,0,1,.833-.552C10.936,13.74,11.2,14,12,14c.844,0,1.091-.287,1.093-.29a.488.488,0,0,1,.681-.146.512.512,0,0,1,.15.7C13.848,14.388,13.394,15,12,15Z" fill="#455a64"/>
    <path d="M19,3a1.662,1.662,0,0,0-.567.09,1.962,1.962,0,0,0-1.371,1.435A1.648,1.648,0,0,0,17,5a1.89,1.89,0,0,0,.478,1.279A1.917,1.917,0,0,0,19,7a2,2,0,0,0,0-4Z" fill="#d32f2f"/>
  </g>
  <g>
    <g>
      <path d="M8,16,4.529,17.1A6,6,0,0,0,.5,22.766V23.5h23v-.734A6,6,0,0,0,19.471,17.1L16,16" fill="none" stroke="#000" stroke-linecap="round" stroke-linejoin="round"/>
      <line x1="9.5" y1="9.5" x2="10.5" y2="9.5" fill="none" stroke="#000" stroke-linecap="round" stroke-linejoin="round"/>
      <line x1="13.5" y1="9.5" x2="14.5" y2="9.5" fill="none" stroke="#000" stroke-linecap="round" stroke-linejoin="round"/>
      <path d="M12,8c-1.906,0-5.531-.562-6-1A5.062,5.062,0,0,1,7,4.5c.844,0,3.094,1,5,1" fill="none" stroke="#000" stroke-linecap="round" stroke-linejoin="round"/>
      <path d="M7.5,4.5c0-.854,2.125-4,5-4s6,3,6,3" fill="none" stroke="#000" stroke-linecap="round" stroke-linejoin="round"/>
      <circle cx="19" cy="5" r="1.5" fill="none" stroke="#000" stroke-linecap="round" stroke-linejoin="round"/>
      <path d="M17.5,8.5c-.344,0-1.313,4-2.5,4s-2.031-1-3-1-1.813,1-3,1-2.156-4-2.5-4" fill="none" stroke="#000" stroke-linecap="round" stroke-linejoin="round"/>
      <path d="M12,5.5c1.906,0,4.156-1,5-1h.5" fill="none" stroke="#000" stroke-linecap="round" stroke-linejoin="round"/>
      <path d="M12,8c1.906,0,5.531-.562,6-1V6.5" fill="none" stroke="#000" stroke-linecap="round" stroke-linejoin="round"/>
      <path d="M17.5,7.5v1s1-.062,1,.5-.063,2-.5,2c0,.688-.063,2.875-.5,3.5s-1.5,1-2,1.5A5.235,5.235,0,0,1,12,17.5,5.235,5.235,0,0,1,8.5,16c-.5-.5-1.563-.875-2-1.5S6,11.688,6,11c-.438,0-.5-1.437-.5-2s1-.5,1-.5v-1" fill="none" stroke="#000" stroke-linecap="round" stroke-linejoin="round"/>
    </g>
    <path d="M10.5,14s.312.5,1.5.5,1.5-.5,1.5-.5" fill="none" stroke="#000" stroke-linecap="round" stroke-linejoin="round"/>
  </g>
</svg>
