<svg xmlns="http://www.w3.org/2000/svg" viewBox="0 0 24 24">
  <title>Skeleton</title>
  <g>
    <path d="M16.028,10h-8a.5.5,0,0,0-.5.5c0,3.444,1.683,5.5,4.5,5.5s4.5-2.056,4.5-5.5A.5.5,0,0,0,16.028,10Z" fill="#b0bec5"/>
    <path d="M18.03,6A6,6,0,1,0,6.667,8.69a2.686,2.686,0,0,0-.137.81c0,.764.814,1.134,1.468,1.431.212.1.531.241.574.27a1.592,1.592,0,0,1,.045.24c.119.766.4,2.56,3.413,2.56s3.291-1.793,3.412-2.56a.671.671,0,0,0,.018-.191,3.083,3.083,0,0,1,.6-.318c.653-.3,1.468-.667,1.468-1.431a2.644,2.644,0,0,0-.138-.81A6.052,6.052,0,0,0,18.03,6Z" fill="#cfd8dc"/>
    <path d="M11.529,12a.526.526,0,0,1-.078-.006.5.5,0,0,1-.417-.571c.277-1.774.644-1.923.994-1.923s.717.148.994,1.923a.5.5,0,0,1-.988.154l-.006-.038-.006.038A.5.5,0,0,1,11.529,12Z" fill="#fafafa"/>
    <path d="M10.036,6.5a1.23,1.23,0,0,0-.842.371A2.319,2.319,0,0,0,8.528,8.5a1.392,1.392,0,0,0,1.5,1.5c.8,0,1.5-.935,1.5-2A1.324,1.324,0,0,0,10.036,6.5Z" fill="#fafafa"/>
    <path d="M14.862,6.871a1.2,1.2,0,0,0-.818-.371A1.334,1.334,0,0,0,12.528,8c0,1.065.7,2,1.5,2a1.392,1.392,0,0,0,1.5-1.5A2.319,2.319,0,0,0,14.862,6.871Z" fill="#fafafa"/>
    <path d="M8.47,22.541a3.968,3.968,0,0,1-2.792-.9.806.806,0,0,1-.1-.857.5.5,0,0,1,.943.3,4.045,4.045,0,0,0,2.423.42,4.58,4.58,0,0,0,2.236-.865.5.5,0,0,1,.7.012.5.5,0,0,1,0,.7,5.234,5.234,0,0,1-2.769,1.14A3.878,3.878,0,0,1,8.47,22.541Z" fill="#b0bec5"/>
    <path d="M8.528,24c-1.467,0-3.156-.283-3.5-1.076a.692.692,0,0,1,.136-.767.5.5,0,0,1,.86.408,5.318,5.318,0,0,0,2.5.435,5.892,5.892,0,0,0,2.728-.419.5.5,0,0,1,.687.149.494.494,0,0,1-.132.682A6.184,6.184,0,0,1,8.528,24Z" fill="#b0bec5"/>
    <path d="M7.851,20.546c-.894,0-1.349-.151-1.745-.779a.5.5,0,0,1,.846-.533c.205.324.3.36,2.051.268a11.138,11.138,0,0,0,2.371-.477.5.5,0,0,1,.311.951,12.055,12.055,0,0,1-2.629.523C8.579,20.524,8.185,20.546,7.851,20.546Z" fill="#b0bec5"/>
    <path d="M15.53,22.541a3.878,3.878,0,0,1-.644-.048,5.234,5.234,0,0,1-2.769-1.14.5.5,0,0,1,.707-.707,4.6,4.6,0,0,0,2.231.86,4.051,4.051,0,0,0,2.423-.42.5.5,0,0,1,.943-.3.806.806,0,0,1-.1.857A3.968,3.968,0,0,1,15.53,22.541Zm1.99-1.326h0Z" fill="#b0bec5"/>
    <path d="M15.472,24a6.184,6.184,0,0,1-3.282-.588.5.5,0,0,1,.564-.824h0A5.969,5.969,0,0,0,15.472,23a5.318,5.318,0,0,0,2.5-.435.5.5,0,0,1,.86-.408.692.692,0,0,1,.136.767C18.628,23.717,16.938,24,15.472,24Zm2.636-1.157h0Z" fill="#b0bec5"/>
    <path d="M16.149,20.546c-.334,0-.729-.021-1.2-.047a12.055,12.055,0,0,1-2.629-.523.5.5,0,0,1,.31-.951A11.234,11.234,0,0,0,15,19.5c1.75.093,1.847.057,2.051-.268a.5.5,0,0,1,.846.533C17.5,20.395,17.043,20.546,16.149,20.546Z" fill="#b0bec5"/>
    <path d="M7.028,18a.5.5,0,0,1-.354-.854,4.973,4.973,0,0,1,1.688-1.118.5.5,0,0,1,.332.943,4.046,4.046,0,0,0-1.312.882A.5.5,0,0,1,7.028,18Z" fill="#b0bec5"/>
    <path d="M17.028,18a.5.5,0,0,1-.354-.146,4.054,4.054,0,0,0-1.314-.883.5.5,0,0,1,.334-.942,4.973,4.973,0,0,1,1.687,1.118.5.5,0,0,1-.354.854Z" fill="#b0bec5"/>
    <path d="M7.062,16.141a.671.671,0,0,0-.758-.088,25.329,25.329,0,0,1-2.91.966.5.5,0,0,0-.284.756c.541.825,1.9,2.726,2.9,2.726h.04c.441-.021.79-.391,1.035-1.1C7.344,18.674,7.7,16.7,7.062,16.141Z" fill="#cfd8dc"/>
    <path d="M4.035,19.837A.571.571,0,0,0,3.7,19.53,4.307,4.307,0,0,1,2.52,17.908a.5.5,0,0,0-.343-.386.5.5,0,0,0-.5.124c-.858.858-.708,5.143-.645,5.9a.5.5,0,0,0,.5.458h1a.5.5,0,0,0,.5-.5,7.275,7.275,0,0,1,.591-1.839C4.029,20.655,4.2,20.2,4.035,19.837Z" fill="#cfd8dc"/>
    <path d="M20.939,17.324a.5.5,0,0,0-.334-.306,25.392,25.392,0,0,1-2.91-.966.674.674,0,0,0-.758.088c-.635.559-.281,2.533-.026,3.263.245.705.594,1.074,1.035,1.1h.04c1.006,0,2.362-1.9,2.9-2.726A.5.5,0,0,0,20.939,17.324Z" fill="#cfd8dc"/>
    <path d="M22.325,17.646a.5.5,0,0,0-.845.262,4.4,4.4,0,0,1-1.159,1.615.687.687,0,0,0-.356.313c-.168.358.006.818.416,1.824a7.275,7.275,0,0,1,.591,1.839.5.5,0,0,0,.5.5h1a.5.5,0,0,0,.5-.458C23.033,22.789,23.184,18.5,22.325,17.646Z" fill="#cfd8dc"/>
    <path d="M13.44,17.717a1.749,1.749,0,0,0-2.824,0,.5.5,0,0,0-.08.373l1,5.5a.5.5,0,0,0,.984,0l1-5.5A.5.5,0,0,0,13.44,17.717Z" fill="#cfd8dc"/>
  </g>
  <g>
    <g>
      <path d="M16.847,8.65a5.5,5.5,0,1,0-9.638,0" fill="none" stroke="#000" stroke-linecap="round" stroke-linejoin="round"/>
      <path d="M16.528,7.5c0,.6.5,1.25.5,2s-1.792,1.042-2,1.5.125,2.5-3,2.5-2.792-2.042-3-2.5-2-.75-2-1.5.5-1.4.5-2" fill="none" stroke="#000" stroke-linecap="round" stroke-linejoin="round"/>
      <path d="M11.528,11.5s.234-1.5.5-1.5.5,1.5.5,1.5" fill="none" stroke="#000" stroke-linecap="round" stroke-linejoin="round"/>
      <path d="M10.028,7c.635,0,1,.176,1,1s-.529,1.5-1,1.5a.9.9,0,0,1-1-1C9.028,7.682,9.593,6.982,10.028,7Z" fill="none" stroke="#000" stroke-linecap="round" stroke-linejoin="round"/>
      <path d="M14.028,7c-.635,0-1,.176-1,1s.529,1.5,1,1.5a.9.9,0,0,0,1-1C15.028,7.682,14.464,6.982,14.028,7Z" fill="none" stroke="#000" stroke-linecap="round" stroke-linejoin="round"/>
      <path d="M8.028,10.5c0,1.125.187,5,4,5" fill="none" stroke="#000" stroke-linecap="round" stroke-linejoin="round"/>
      <path d="M16.028,10.5c0,1.125-.188,5-4,5" fill="none" stroke="#000" stroke-linecap="round" stroke-linejoin="round"/>
      <path d="M3.528,17.5S5.2,20.042,6.028,20s1.25-3.875.5-3.5A27.044,27.044,0,0,1,3.528,17.5Z" fill="none" stroke="#000" stroke-linecap="round" stroke-linejoin="round"/>
      <path d="M2.528,23.5c0-1,1.4-3.375,1-3.5a4.284,4.284,0,0,1-1.5-2c-.521.521-.646,3.771-.5,5.5Z" fill="none" stroke="#000" stroke-linecap="round" stroke-linejoin="round"/>
      <path d="M6.028,21c-.313.656,1.8,1.207,3,1a4.845,4.845,0,0,0,2.5-1" fill="none" stroke="#000" stroke-linecap="round" stroke-linejoin="round"/>
      <path d="M5.528,22.5c-.333.354.729,1,3,1a5.87,5.87,0,0,0,3-.5" fill="none" stroke="#000" stroke-linecap="round" stroke-linejoin="round"/>
      <path d="M6.528,19.5c.375.594.75.594,2.5.5a11.631,11.631,0,0,0,2.5-.5" fill="none" stroke="#000" stroke-linecap="round" stroke-linejoin="round"/>
      <path d="M20.472,17.5s-1.667,2.542-2.5,2.5-1.25-3.875-.5-3.5A27.044,27.044,0,0,0,20.472,17.5Z" fill="none" stroke="#000" stroke-linecap="round" stroke-linejoin="round"/>
      <path d="M21.472,23.5c0-1-1.4-3.375-1-3.5a4.283,4.283,0,0,0,1.5-2c.521.521.646,3.771.5,5.5Z" fill="none" stroke="#000" stroke-linecap="round" stroke-linejoin="round"/>
      <path d="M17.972,21c.312.656-1.8,1.207-3,1a4.845,4.845,0,0,1-2.5-1" fill="none" stroke="#000" stroke-linecap="round" stroke-linejoin="round"/>
      <path d="M18.472,22.5c.333.354-.729,1-3,1a5.87,5.87,0,0,1-3-.5" fill="none" stroke="#000" stroke-linecap="round" stroke-linejoin="round"/>
      <path d="M17.472,19.5c-.375.594-.75.594-2.5.5a11.63,11.63,0,0,1-2.5-.5" fill="none" stroke="#000" stroke-linecap="round" stroke-linejoin="round"/>
      <path d="M7.028,17.5a4.462,4.462,0,0,1,1.5-1" fill="none" stroke="#000" stroke-linecap="round" stroke-linejoin="round"/>
      <path d="M17.028,17.5a4.463,4.463,0,0,0-1.5-1" fill="none" stroke="#000" stroke-linecap="round" stroke-linejoin="round"/>
    </g>
    <path d="M11.028,18l1,5.5,1-5.5a1.25,1.25,0,0,0-2,0Z" fill="none" stroke="#000" stroke-linecap="round" stroke-linejoin="round"/>
  </g>
</svg>
