<svg xmlns="http://www.w3.org/2000/svg" viewBox="0 0 24 24">
  <title>Astronaut</title>
  <g>
    <path d="M23.2,19.43a2.468,2.468,0,0,0-1.472-1.8l-2.271-.98a.493.493,0,0,0-.55.117.528.528,0,0,0-.1.088,8.946,8.946,0,0,1-13.619,0,.5.5,0,0,0-.093-.1.5.5,0,0,0-.556-.11l-2.262.977a2.471,2.471,0,0,0-1.48,1.8L.01,23.4A.5.5,0,0,0,.5,24h23a.5.5,0,0,0,.49-.6Z" fill="#cfd8dc"/>
    <path d="M19.669,17.037a2.441,2.441,0,0,0-1.92-1.663.493.493,0,0,0-.439.172,6.962,6.962,0,0,1-10.617-.007.675.675,0,0,0-.462-.174,2.518,2.518,0,0,0-1.9,1.672.5.5,0,0,0,.1.468,9.947,9.947,0,0,0,15.143,0A.5.5,0,0,0,19.669,17.037Z" fill="#607d8b"/>
    <path d="M12,0A8.009,8.009,0,0,0,4,8v3a7.944,7.944,0,0,0,1.921,5.187.5.5,0,0,0,.057.055A8,8,0,0,0,20,11V8A8.009,8.009,0,0,0,12,0Z" fill="#cfd8dc"/>
    <path d="M12,5C8.075,5,5,6.538,5,8.5v3C5,13.462,8.075,15,12,15s7-1.538,7-3.5v-3C19,6.538,15.925,5,12,5Z" fill="#455a64"/>
    <path d="M7.5,12a.5.5,0,0,1-.5-.5V9.186a1.485,1.485,0,0,1,.792-1.326A9.219,9.219,0,0,1,12,7c2.66,0,4.4.813,4.868,1.325A.5.5,0,0,1,16.132,9,6.879,6.879,0,0,0,12,8a8.3,8.3,0,0,0-3.745.746A.488.488,0,0,0,8,9.186V11.5A.5.5,0,0,1,7.5,12Z" fill="#37474f"/>
    <path d="M12.5,14c-.869,0-1.5-.42-1.5-1s.631-1,1.5-1,1.5.42,1.5,1S13.369,14,12.5,14Zm.541-.87h0ZM12.5,13h0Z" fill="#37474f"/>
    <path d="M13.5,13.5a.5.5,0,0,1,0-1c1.062,0,4.3-1.465,4.5-2.036a.483.483,0,0,1,.5-.482.514.514,0,0,1,.5.518C19,11.9,14.6,13.5,13.5,13.5Z" fill="#37474f"/>
  </g>
  <g>
    <g>
      <path d="M18.5,8.5c0-1.657-2.91-3-6.5-3s-6.5,1.343-6.5,3v3c0,1.657,2.91,3,6.5,3s6.5-1.343,6.5-3Z" fill="none" stroke="#000" stroke-linecap="round" stroke-linejoin="round"/>
      <path d="M16.5,8.663C16.142,8.273,14.545,7.5,12,7.5a8.91,8.91,0,0,0-3.977.8.986.986,0,0,0-.523.883V11.5" fill="none" stroke="#000" stroke-linecap="round" stroke-linejoin="round"/>
    </g>
    <path d="M21.533,18.086l-2.271-.973a9.477,9.477,0,0,1-14.524,0l-2.271.973a2,2,0,0,0-1.173,1.446L.5,23.5h23l-.794-3.968A2,2,0,0,0,21.533,18.086Z" fill="none" stroke="#000" stroke-linecap="round" stroke-linejoin="round"/>
    <path d="M19.5,8a7.5,7.5,0,0,0-15,0v3a7.5,7.5,0,0,0,15,0Z" fill="none" stroke="#000" stroke-linecap="round" stroke-linejoin="round"/>
    <path d="M17.536,16.059c.618-.618,1.725-.179,1.725,1.053" fill="none" stroke="#000" stroke-linecap="round" stroke-linejoin="round"/>
    <path d="M6.464,16.059c-.618-.618-1.725-.179-1.725,1.053" fill="none" stroke="#000" stroke-linecap="round" stroke-linejoin="round"/>
    <ellipse cx="12.5" cy="13" rx="1" ry="0.5" fill="none" stroke="#000" stroke-linecap="round" stroke-linejoin="round"/>
    <path d="M13.5,13c1.1,0,5-1.583,5-2.5" fill="none" stroke="#000" stroke-linecap="round" stroke-linejoin="round"/>
  </g>
</svg>
