<svg xmlns="http://www.w3.org/2000/svg" viewBox="0 0 24 24">
  <title>Iron Man</title>
  <g>
    <path d="M20.207,17.545l-5.5-2.5a.5.5,0,0,0-.561.1L13.293,16H10.707l-.854-.854a.5.5,0,0,0-.561-.1l-5.5,2.5a.5.5,0,0,0-.275.586l1.5,5.5A.5.5,0,0,0,5.5,24h3a.5.5,0,0,0,.5-.5c0-1.385,1.641-2.5,3-2.5s3,1.115,3,2.5a.5.5,0,0,0,.5.5h3a.5.5,0,0,0,.482-.369l1.5-5.5A.5.5,0,0,0,20.207,17.545Z" fill="#f44336"/>
    <path d="M5.982,23.369l-1.5-5.5a.5.5,0,0,0-.129-.222l-.5-.5a.5.5,0,0,0-.576-.094l-1.134.562A2.491,2.491,0,0,0,.82,19.362L.01,23.4A.5.5,0,0,0,.5,24h5a.5.5,0,0,0,.482-.631Z" fill="#ffc107"/>
    <path d="M23.181,19.363a2.494,2.494,0,0,0-1.329-1.751l-1.13-.56a.5.5,0,0,0-.576.094l-.5.5a.5.5,0,0,0-.129.222l-1.5,5.5A.5.5,0,0,0,18.5,24h5a.5.5,0,0,0,.49-.6Z" fill="#ffc107"/>
    <path d="M12,20c-1.888,0-4,1.5-4,3.5a.5.5,0,0,0,.5.5h7a.5.5,0,0,0,.5-.5C16,21.5,13.888,20,12,20Z" fill="#eceff1"/>
    <path d="M17.985,6.622A.5.5,0,0,0,18,6.5c0-1.919-.112-4.319-.646-4.854A7.233,7.233,0,0,0,14.675.418a.5.5,0,0,0-.6.3L13.162,3H10.838L9.924.714a.5.5,0,0,0-.6-.3A7.233,7.233,0,0,0,6.646,1.646C6.112,2.181,6,4.581,6,6.5a.443.443,0,0,0,.016.117C6,6.742,6,6.871,6,7a3.344,3.344,0,0,0,.023.349A.506.506,0,0,0,6,7.5v3a.5.5,0,0,0,.5.5,2.706,2.706,0,0,1,2.008.8,1.751,1.751,0,0,1,.484,1.336.5.5,0,0,0,.777.458L10.653,13h2.694l.883.595a.5.5,0,0,0,.777-.458,1.751,1.751,0,0,1,.484-1.336A2.706,2.706,0,0,1,17.5,11a.5.5,0,0,0,.5-.5v-3a.476.476,0,0,0-.024-.149A3.27,3.27,0,0,0,18,7C18,6.873,18,6.746,17.985,6.622Z" fill="#ffc107"/>
    <g>
      <path d="M16.974,6.342a.5.5,0,0,0-.632-.316l-3,1A.5.5,0,0,0,13.5,8H16a.5.5,0,0,0,.5-.5V7.027l.158-.053A.5.5,0,0,0,16.974,6.342Z" fill="#fafafa"/>
      <path d="M10.658,7.026l-3-1a.5.5,0,1,0-.316.948L8,7.194V7.5a.5.5,0,0,0,.5.5h2a.5.5,0,0,0,.158-.974Z" fill="#fafafa"/>
    </g>
    <path d="M14.989.679a.5.5,0,0,0-.312-.26A10.262,10.262,0,0,0,12,0,10.262,10.262,0,0,0,9.323.419.5.5,0,0,0,9,1.085l1.04,2.6A.5.5,0,0,0,10.5,4h3a.5.5,0,0,0,.464-.314L15,1.085A.5.5,0,0,0,14.989.679Z" fill="#f44336"/>
    <path d="M9.763,13.6a.5.5,0,0,0,.225-.376,2.737,2.737,0,0,0-.743-2.1A3.7,3.7,0,0,0,6.5,10a.5.5,0,0,0-.5.5v1a.5.5,0,0,0,.1.3l1.5,2A.5.5,0,0,0,8,14H9a.5.5,0,0,0,.273-.081Z" fill="#f44336"/>
    <path d="M17.5,10a3.7,3.7,0,0,0-2.745,1.125,2.737,2.737,0,0,0-.743,2.1.5.5,0,0,0,.225.376l.49.32A.5.5,0,0,0,15,14h1a.5.5,0,0,0,.4-.2l1.5-2a.5.5,0,0,0,.1-.3v-1A.5.5,0,0,0,17.5,10Z" fill="#f44336"/>
    <path d="M16.447,13.276A.5.5,0,0,0,16,13h-.849l-1.374-.916A.5.5,0,0,0,13.5,12h-3a.5.5,0,0,0-.279.085L8.852,13H8a.5.5,0,0,0-.4.8l1.5,2a.5.5,0,0,0,.624.147L11.618,15h.764l1.895.947A.5.5,0,0,0,14.9,15.8l1.5-2A.5.5,0,0,0,16.447,13.276Z" fill="#ffa000"/>
    <path d="M14.724,15.053l-2-1A.5.5,0,0,0,12.5,14h-1a.5.5,0,0,0-.224.053l-2,1a.5.5,0,0,0-.13.8l1,1A.5.5,0,0,0,10.5,17h3a.5.5,0,0,0,.354-.146l1-1a.5.5,0,0,0-.13-.8Z" fill="#d32f2f"/>
  </g>
  <g>
    <g>
      <g>
        <g>
          <path d="M17.5,11.5v-4a.375.375,0,0,1-.043.009A4.845,4.845,0,0,0,17.5,7c0-.169-.01-.335-.025-.5H17.5s0-4-.5-4.5A9.713,9.713,0,0,0,12,.5,9.713,9.713,0,0,0,7,2c-.5.5-.5,4.5-.5,4.5h.025c-.015.165-.025.331-.025.5a4.845,4.845,0,0,0,.043.509A.374.374,0,0,1,6.5,7.5v4" fill="none" stroke="#000" stroke-linecap="round" stroke-linejoin="round"/>
          <polyline points="16.5 6.5 13.5 7.5 16 7.5 16 7" fill="none" stroke="#000" stroke-linecap="round" stroke-linejoin="round"/>
          <polyline points="8.5 7 8.5 7.5 10.5 7.5 7.5 6.5" fill="none" stroke="#000" stroke-linecap="round" stroke-linejoin="round"/>
          <polyline points="9.5 1 10.5 3.5 13.5 3.5 14.5 1" fill="none" stroke="#000" stroke-linecap="round" stroke-linejoin="round"/>
          <polyline points="8 13.5 9 13.5 10.5 12.5 13.5 12.5 15 13.5 16 13.5" fill="none" stroke="#000" stroke-linecap="round" stroke-linejoin="round"/>
        </g>
        <path d="M8.5,23.5c0-1.657,1.843-3,3.5-3s3.5,1.343,3.5,3" fill="none" stroke="#000" stroke-linecap="round" stroke-linejoin="round"/>
        <path d="M6.5,10.5a2.752,2.752,0,0,1,3,2.5" fill="none" stroke="#000" stroke-linecap="round" stroke-linejoin="round"/>
        <path d="M17.5,10.5a2.752,2.752,0,0,0-3,2.5" fill="none" stroke="#000" stroke-linecap="round" stroke-linejoin="round"/>
        <polyline points="6.5 11.5 9.5 15.5 11.5 14.5 12.5 14.5 14.5 15.5 17.5 11.5" fill="none" stroke="#000" stroke-linecap="round" stroke-linejoin="round"/>
      </g>
      <path d="M14.5,15.5,20,18l.5-.5,1.125.563a2,2,0,0,1,1.067,1.4L23.5,23.5H.5l.808-4.041a2,2,0,0,1,1.067-1.4L3.5,17.5,4,18l5.5-2.5,1,1h3Z" fill="none" stroke="#000" stroke-linecap="round" stroke-linejoin="round"/>
    </g>
    <line x1="4" y1="18" x2="5.5" y2="23.5" fill="none" stroke="#000" stroke-linecap="round" stroke-linejoin="round"/>
    <line x1="20" y1="18" x2="18.5" y2="23.5" fill="none" stroke="#000" stroke-linecap="round" stroke-linejoin="round"/>
  </g>
</svg>
