<svg xmlns="http://www.w3.org/2000/svg" viewBox="0 0 24 24">
  <title>Jason</title>
  <g>
    <path d="M12.2,22.543,7.621,20.515l-1.476-.369,1.429-4.287a.5.5,0,0,0-.124-.515.5.5,0,0,0-.516-.115l-2.569.9A6.511,6.511,0,0,0,0,22.27V23a.5.5,0,0,0,.5.5H12a.5.5,0,0,0,.2-.957Z" fill="#757575"/>
    <path d="M17.21,15.308a.5.5,0,0,0-.678.055A6.174,6.174,0,0,1,12,17.5a6.174,6.174,0,0,1-4.532-2.138.5.5,0,0,0-.783.616l4.9,7.3a.5.5,0,0,0,.83,0l4.9-7.3A.5.5,0,0,0,17.21,15.308Z" fill="#9e9e9e"/>
    <path d="M19.635,16.128l-2.569-.9a.5.5,0,0,0-.516.115.5.5,0,0,0-.124.515l1.43,4.289-1.559.4-4.5,2a.5.5,0,0,0,.2.957H23.5A.5.5,0,0,0,24,23v-.73A6.511,6.511,0,0,0,19.635,16.128Z" fill="#757575"/>
    <path d="M12.415,22.722l-4.9-7.3a.507.507,0,0,0-.482-.217.5.5,0,0,0-.407.337l-1.6,4.8a.5.5,0,0,0,.354.644l1.918.472,4.5,2a.5.5,0,0,0,.618-.735Z" fill="#424242"/>
    <path d="M18.975,20.342l-1.6-4.8a.5.5,0,0,0-.407-.337.508.508,0,0,0-.482.217l-4.9,7.3a.5.5,0,0,0,.618.735l4.418-1.972,2-.5a.5.5,0,0,0,.354-.644Z" fill="#424242"/>
    <path d="M12,.5a6.007,6.007,0,0,0-6,6V8.75c0,4.273,2.691,7.75,6,7.75s6-3.477,6-7.75V6.5A6.007,6.007,0,0,0,12,.5Z" fill="#cfd8dc"/>
    <circle cx="12" cy="10.5" r="0.5" fill="#455a64"/>
    <circle cx="10.5" cy="12" r="0.5" fill="#455a64"/>
    <circle cx="8.5" cy="11" r="0.5" fill="#455a64"/>
    <circle cx="10.5" cy="14" r="0.5" fill="#455a64"/>
    <circle cx="13.5" cy="12" r="0.5" fill="#455a64"/>
    <circle cx="15.5" cy="11" r="0.5" fill="#455a64"/>
    <circle cx="13.5" cy="14" r="0.5" fill="#455a64"/>
    <circle cx="10.5" cy="3" r="0.5" fill="#455a64"/>
    <circle cx="9.5" cy="5" r="0.5" fill="#455a64"/>
    <circle cx="13.5" cy="3" r="0.5" fill="#455a64"/>
    <circle cx="14.5" cy="5" r="0.5" fill="#455a64"/>
    <path d="M10.734,7.287A1.446,1.446,0,0,0,9.629,7H9.371a1.449,1.449,0,0,0-1.105.288A.965.965,0,0,0,8,8a1.5,1.5,0,0,0,3,0A.965.965,0,0,0,10.734,7.287Z" fill="#455a64"/>
    <path d="M15.734,7.287A1.446,1.446,0,0,0,14.629,7h-.258a1.449,1.449,0,0,0-1.105.288A.965.965,0,0,0,13,8a1.5,1.5,0,0,0,3,0A.965.965,0,0,0,15.734,7.287Z" fill="#455a64"/>
    <path d="M12,7a.5.5,0,0,1-.224-.053l-1-.5a.5.5,0,0,1,.447-.895L12,5.941l.776-.389a.5.5,0,0,1,.447.895l-1,.5A.5.5,0,0,1,12,7Z" fill="#f44336"/>
  </g>
  <g>
    <g>
      <path d="M19.471,16.6,16.9,15.7A6.645,6.645,0,0,1,12,18a6.645,6.645,0,0,1-4.9-2.3L4.529,16.6A6,6,0,0,0,.5,22.266V23h23v-.734A6,6,0,0,0,19.471,16.6Z" fill="none" stroke="#000" stroke-linecap="round" stroke-linejoin="round"/>
      <polyline points="7 16 5.5 20.5 7.5 21 12 23" fill="none" stroke="#000" stroke-linecap="round" stroke-linejoin="round"/>
      <polyline points="17 16 18.5 20.5 16.5 21 12 23" fill="none" stroke="#000" stroke-linecap="round" stroke-linejoin="round"/>
      <polyline points="7 16 12 23 17 16" fill="none" stroke="#000" stroke-linecap="round" stroke-linejoin="round"/>
    </g>
    <path d="M17.5,6.5a5.5,5.5,0,0,0-11,0V8.75c0,4,2.462,7.25,5.5,7.25s5.5-3.246,5.5-7.25Z" fill="none" stroke="#000" stroke-linecap="round" stroke-linejoin="round"/>
    <circle cx="12" cy="10.5" r="0.5"/>
    <circle cx="10.5" cy="12" r="0.5"/>
    <circle cx="8.5" cy="11" r="0.5"/>
    <circle cx="10.5" cy="14" r="0.5"/>
    <circle cx="13.5" cy="12" r="0.5"/>
    <circle cx="15.5" cy="11" r="0.5"/>
    <circle cx="13.5" cy="14" r="0.5"/>
    <circle cx="10.5" cy="3" r="0.5"/>
    <circle cx="9.5" cy="5" r="0.5"/>
    <circle cx="13.5" cy="3" r="0.5"/>
    <circle cx="14.5" cy="5" r="0.5"/>
    <path d="M10.5,8a1,1,0,0,1-2,0c0-.552.448-.5,1-.5S10.5,7.448,10.5,8Z" fill="none" stroke="#000" stroke-linecap="round" stroke-linejoin="round"/>
    <path d="M15.5,8a1,1,0,0,1-2,0c0-.552.448-.5,1-.5S15.5,7.448,15.5,8Z" fill="none" stroke="#000" stroke-linecap="round" stroke-linejoin="round"/>
    <polyline points="11 6 12 6.5 13 6" fill="none" stroke="#000" stroke-linecap="round" stroke-linejoin="round"/>
  </g>
</svg>
