<svg xmlns="http://www.w3.org/2000/svg" viewBox="0 0 24 24">
  <title>Elvis</title>
  <g>
    <path d="M18.8,8.228a.513.513,0,0,0-.514-.336l-.961.08A4.744,4.744,0,0,1,17,6.5a.5.5,0,0,0-.5-.5C13.56,6,11.056,4,11,3.5a.5.5,0,0,0-1,0,1.314,1.314,0,0,1-.346.981A3,3,0,0,1,7.631,5a.873.873,0,0,0-.7.254A4.617,4.617,0,0,0,6.47,7.933c-.244-.023-.53-.043-.8-.043a.5.5,0,0,0-.473.337A3.973,3.973,0,0,0,5,9.5c0,1.443.676,2.565,1.532,2.5l1.3,2.716a.5.5,0,0,0,.06.1A5.3,5.3,0,0,0,12,17a5.3,5.3,0,0,0,4.111-2.188.5.5,0,0,0,.06-.1L17.468,12C18.346,12.064,19,10.943,19,9.5A3.973,3.973,0,0,0,18.8,8.228Z" fill="#ffe082"/>
    <path d="M12.017,0H12A7.008,7.008,0,0,0,5,7a6.789,6.789,0,0,0,.182,1.5.5.5,0,0,0,.488.392,10.029,10.029,0,0,1,1.255.1A.5.5,0,0,0,7.5,8.463,7.545,7.545,0,0,1,7.63,6a3.817,3.817,0,0,0,2.729-.811,2.053,2.053,0,0,0,.333-.434,9.131,9.131,0,0,0,5.344,2.229A7.339,7.339,0,0,0,16.543,8.7.5.5,0,0,0,17,9h.041l1.33-.11a.5.5,0,0,0,.447-.39A6.789,6.789,0,0,0,19,7V5.921A6.2,6.2,0,0,0,20,2C20,.85,17.314.177,12.017,0Z" fill="#455a64"/>
    <path d="M9.884,14.18l-2.5-3a.5.5,0,0,0-.273-.167.508.508,0,0,0-.426-.1.5.5,0,0,0-.377.6l.7,3.1A.5.5,0,0,0,7.5,15h2a.5.5,0,0,0,.384-.82Z" fill="#455a64"/>
    <path d="M17.315,10.913a.5.5,0,0,0-.426.1.5.5,0,0,0-.273.167l-2.5,3A.5.5,0,0,0,14.5,15h2a.5.5,0,0,0,.488-.389l.7-3.1A.5.5,0,0,0,17.315,10.913Z" fill="#455a64"/>
    <path d="M10.5,10h-1a.5.5,0,0,1,0-1h1a.5.5,0,0,1,0,1Z" fill="#455a64"/>
    <path d="M14.5,10h-1a.5.5,0,0,1,0-1h1a.5.5,0,0,1,0,1Z" fill="#455a64"/>
    <path d="M19.574,17.611l-.47-.1a.5.5,0,0,0-.458.136l-.917.917-1.388.463A.5.5,0,0,0,16,19.5v.732L12,22.9,8,20.232V19.5a.5.5,0,0,0-.342-.474L6.27,18.563l-.917-.917a.5.5,0,0,0-.458-.136l-.53.117A6.172,6.172,0,0,0,0,23.5a.5.5,0,0,0,.5.5h23a.5.5,0,0,0,.5-.5A6.189,6.189,0,0,0,19.574,17.611Z" fill="#cfd8dc"/>
    <path d="M12.412,23.217l-5.5-8a.5.5,0,0,0-.57-.191l-3,1a.5.5,0,0,0-.2.828l2.5,2.5a.5.5,0,0,0,.2.121L7,19.86v.64a.5.5,0,0,0,.223.416l4.5,3a.5.5,0,0,0,.689-.7Z" fill="#f44336"/>
    <path d="M20.658,16.026l-3-1a.5.5,0,0,0-.57.191l-5.5,8a.5.5,0,0,0,.689.7l4.5-3A.5.5,0,0,0,17,20.5v-.64l1.158-.386a.5.5,0,0,0,.2-.121l2.5-2.5a.5.5,0,0,0-.2-.828Z" fill="#f44336"/>
  </g>
  <g>
    <path d="M5.668,8.391A10.513,10.513,0,0,1,7,8.5s-.219-3,.5-3,3,.094,3-2c0,.906,2.937,3,6,3a6.087,6.087,0,0,0,.5,2l1.332-.109" fill="none" stroke="#000" stroke-linecap="round" stroke-linejoin="round"/>
    <line x1="9.5" y1="9.5" x2="10.5" y2="9.5" fill="none" stroke="#000" stroke-linecap="round" stroke-linejoin="round"/>
    <line x1="13.5" y1="9.5" x2="14.5" y2="9.5" fill="none" stroke="#000" stroke-linecap="round" stroke-linejoin="round"/>
    <path d="M16.5,6.5c3,0,3-3.25,3-4.5S12,.5,12,.5" fill="none" stroke="#000" stroke-linecap="round" stroke-linejoin="round"/>
    <path d="M12,.5A6.5,6.5,0,0,0,5.5,7a6.443,6.443,0,0,0,.168,1.391A3.545,3.545,0,0,0,5.5,9.5c0,1.1.448,2,1,2a.565.565,0,0,0,.3-.1" fill="none" stroke="#000" stroke-linecap="round" stroke-linejoin="round"/>
    <path d="M17.2,11.4a.565.565,0,0,0,.3.1c.552,0,1-.9,1-2a3.545,3.545,0,0,0-.168-1.109A6.443,6.443,0,0,0,18.5,7V6" fill="none" stroke="#000" stroke-linecap="round" stroke-linejoin="round"/>
    <path d="M8.284,14.5A4.79,4.79,0,0,0,12,16.5a4.79,4.79,0,0,0,3.715-2" fill="none" stroke="#000" stroke-linecap="round" stroke-linejoin="round"/>
    <polyline points="6.796 11.401 7.5 14.5 9.5 14.5 7 11.5" fill="none" stroke="#000" stroke-linecap="round" stroke-linejoin="round"/>
    <polyline points="17.204 11.401 16.5 14.5 14.5 14.5 17 11.5" fill="none" stroke="#000" stroke-linecap="round" stroke-linejoin="round"/>
    <path d="M12,23.5H.5a5.67,5.67,0,0,1,4.029-5.4L5,18" fill="none" stroke="#000" stroke-linecap="round" stroke-linejoin="round"/>
    <polygon points="17.5 15.5 20.5 16.5 18 19 16.5 19.5 16.5 20.5 12 23.5 6.5 15.5 3.5 16.5 6 19 7.5 19.5 7.5 20.5 12 23.5 17.5 15.5" fill="none" stroke="#000" stroke-linecap="round" stroke-linejoin="round"/>
    <path d="M12,23.5H23.5a5.67,5.67,0,0,0-4.029-5.4L19,18" fill="none" stroke="#000" stroke-linecap="round" stroke-linejoin="round"/>
  </g>
</svg>
