<svg xmlns="http://www.w3.org/2000/svg" viewBox="0 0 24 24">
  <title>User</title>
  <path d="M19.743,18.045l-3.831-.958-.326-1.3a6.892,6.892,0,0,0,1.935-3.839,1.5,1.5,0,0,0,1.084-1.258l.25-2A1.5,1.5,0,0,0,17.9,7.1l.092-1.883.374-.374a2.308,2.308,0,0,0,.054-3.117A4.2,4.2,0,0,0,14.63,0a6.589,6.589,0,0,0-3.79,1C6.58,1.091,6,3.07,6,5c0,.449.109,1.46.18,2.07A1.5,1.5,0,0,0,5.145,8.686l.25,2a1.5,1.5,0,0,0,1.2,1.287,6.939,6.939,0,0,0,1.839,3.722l-.348,1.393-3.831.958A5.612,5.612,0,0,0,0,23.5a.5.5,0,0,0,.5.5h23a.5.5,0,0,0,.5-.5A5.612,5.612,0,0,0,19.743,18.045Z" fill="#455a64"/>
  <path d="M19.622,18.531,15.5,17.5l-.47-1.879A6.358,6.358,0,0,0,17.068,11.5h.049a1,1,0,0,0,.992-.876l.25-2A1,1,0,0,0,17.378,7.5L17.5,5l.5-.5A1.843,1.843,0,0,0,18,2,3.736,3.736,0,0,0,14.63.5,6.015,6.015,0,0,0,11,1.5C6.971,1.54,6.5,3.219,6.5,5c0,.628.236,2.5.236,2.5h-.1A1,1,0,0,0,5.64,8.624l.25,2a1,1,0,0,0,.992.876h.163A6.376,6.376,0,0,0,8.99,15.539L8.5,17.5,4.378,18.531A5.12,5.12,0,0,0,.5,23.5v0h23v0A5.12,5.12,0,0,0,19.622,18.531Z" fill="none" stroke="#000" stroke-linecap="round" stroke-linejoin="round"/>
</svg>
