<svg xmlns="http://www.w3.org/2000/svg" viewBox="0 0 24 24">
  <title>Bat Man</title>
  <g>
    <path d="M23.757,19.071l-4.775-2.865L18,.469a.5.5,0,0,0-.853-.322L15.426,1.867a7.2,7.2,0,0,0-6.852,0L6.854.146A.5.5,0,0,0,6,.469L5.018,16.207.243,19.071A.5.5,0,0,0,0,19.5v4a.5.5,0,0,0,.5.5h23a.5.5,0,0,0,.5-.5v-4A.5.5,0,0,0,23.757,19.071Z" fill="#455a64"/>
    <path d="M15.985,10.379a.5.5,0,0,0-.622-.36L12,10.98l-3.363-.961a.506.506,0,0,0-.387.048.5.5,0,0,0-.235.312l-1,4a.5.5,0,0,0,.208.537l3,2A.5.5,0,0,0,10.5,17h3a.5.5,0,0,0,.277-.084l3-2a.5.5,0,0,0,.208-.537Z" fill="#ffe082"/>
    <path d="M13,14H11a.5.5,0,0,1,0-1h2a.5.5,0,0,1,0,1Z" fill="#455a64"/>
    <path d="M14.5,9h-1a.5.5,0,0,1-.224-.947l2-1a.5.5,0,0,1,.447.895l-.755.377A.5.5,0,0,1,14.5,9Z" fill="#37474f"/>
    <path d="M10.5,9h-1A.5.5,0,0,1,9,8.5V8.309l-.724-.362a.5.5,0,1,1,.447-.895l.99.5.019.009.991.5A.5.5,0,0,1,10.5,9Z" fill="#37474f"/>
  </g>
  <g>
    <line x1="11" y1="13.5" x2="13" y2="13.5" fill="none" stroke="#000" stroke-linecap="round" stroke-linejoin="round"/>
    <path d="M12,1.5a6.38,6.38,0,0,1,3.5,1l2-2,1,16,5,3v4H.5v-4l5-3,1-16,2,2A6.38,6.38,0,0,1,12,1.5Z" fill="none" stroke="#000" stroke-linecap="round" stroke-linejoin="round"/>
    <polygon points="8.5 10.5 12 11.5 15.5 10.5 16.5 14.5 13.5 16.5 10.5 16.5 7.5 14.5 8.5 10.5" fill="none" stroke="#000" stroke-linecap="round" stroke-linejoin="round"/>
    <polyline points="15.5 7.5 14.5 8 13.5 8.5 14.5 8.5" fill="none" stroke="#000" stroke-linecap="round" stroke-linejoin="round"/>
    <polyline points="9.5 8 9.5 8.5 10.5 8.5 8.5 7.5" fill="none" stroke="#000" stroke-linecap="round" stroke-linejoin="round"/>
  </g>
</svg>
