<svg xmlns="http://www.w3.org/2000/svg" viewBox="0 0 24 24">
  <title>Bellboy</title>
  <g>
    <path d="M19.635,17.628l-2.569-.9a.5.5,0,0,0-.533.134A6.174,6.174,0,0,1,12,19a6.174,6.174,0,0,1-4.532-2.138.5.5,0,0,0-.533-.134l-2.569.9A6.174,6.174,0,0,0,0,23.5a.5.5,0,0,0,.5.5h23a.5.5,0,0,0,.5-.5A6.174,6.174,0,0,0,19.635,17.628Z" fill="#cfd8dc"/>
    <path d="M17.342,16.966l-.9-1.7A.5.5,0,0,0,16,15H8a.5.5,0,0,0-.441.266l-.9,1.7a.5.5,0,0,0,.073.572A7.159,7.159,0,0,0,12,20a7.159,7.159,0,0,0,5.269-2.462A.5.5,0,0,0,17.342,16.966Z" fill="#455a64"/>
    <circle cx="10.5" cy="21.5" r="0.5" fill="#455a64"/>
    <circle cx="13.5" cy="21.5" r="0.5" fill="#455a64"/>
    <path d="M17.971,8.116C17.983,7.552,18,6.625,18,6.5a.5.5,0,0,0-.733-.442A12.35,12.35,0,0,1,12,7a12.35,12.35,0,0,1-5.267-.942A.5.5,0,0,0,6,6.5c0,.125.017,1.052.029,1.616A2.639,2.639,0,0,0,5,10.5c0,1.39.613,2.446,1.437,2.5.914,3.012,3.1,5,5.563,5s4.649-1.99,5.563-5C18.387,12.946,19,11.89,19,10.5A2.639,2.639,0,0,0,17.971,8.116Z" fill="#ffe082"/>
    <path d="M10.5,11h-1a.5.5,0,0,1,0-1h1a.5.5,0,0,1,0,1Z" fill="#455a64"/>
    <path d="M14.5,11h-1a.5.5,0,0,1,0-1h1a.5.5,0,0,1,0,1Z" fill="#455a64"/>
    <path d="M17.924,2.235C17.867,2.144,16.476,0,12,0S6.133,2.144,6.076,2.235A.5.5,0,0,0,6,2.5v4a.5.5,0,0,0,.266.441A13.017,13.017,0,0,0,12,8a13.017,13.017,0,0,0,5.734-1.059A.5.5,0,0,0,18,6.5v-4A.5.5,0,0,0,17.924,2.235Z" fill="#f44336"/>
    <path d="M12,4a14.41,14.41,0,0,1-4.156-.525.5.5,0,0,1,.312-.95A13.725,13.725,0,0,0,12,3a13.725,13.725,0,0,0,3.845-.476.5.5,0,0,1,.312.95A14.41,14.41,0,0,1,12,4Z" fill="#c62828"/>
    <path d="M12,15.5c-1.394,0-1.848-.612-1.924-.735a.5.5,0,0,1,.833-.552c.026.027.289.287,1.091.287.844,0,1.091-.287,1.093-.29a.488.488,0,0,1,.681-.146.512.512,0,0,1,.15.7C13.848,14.888,13.394,15.5,12,15.5Z" fill="#455a64"/>
  </g>
  <g>
    <g>
      <g>
        <path d="M19.471,18.1,16.9,17.2A6.645,6.645,0,0,1,12,19.5a6.645,6.645,0,0,1-4.9-2.3L4.529,18.1A5.67,5.67,0,0,0,.5,23.5h23A5.67,5.67,0,0,0,19.471,18.1Z" fill="none" stroke="#000" stroke-linecap="round" stroke-linejoin="round"/>
        <line x1="9.5" y1="10.5" x2="10.5" y2="10.5" fill="none" stroke="#000" stroke-linecap="round" stroke-linejoin="round"/>
        <line x1="13.5" y1="10.5" x2="14.5" y2="10.5" fill="none" stroke="#000" stroke-linecap="round" stroke-linejoin="round"/>
        <path d="M6.5,6.5c0,.173.025,1.84.043,2.009-.015,0-.028-.009-.043-.009-.552,0-1,.9-1,2s.448,2,1,2a.563.563,0,0,0,.293-.1c.735,2.962,2.786,5.1,5.207,5.1s4.471-2.135,5.206-5.1a.563.563,0,0,0,.294.1c.552,0,1-.9,1-2s-.448-2-1-2c-.015,0-.029.007-.043.009.018-.169.043-1.835.043-2.009" fill="none" stroke="#000" stroke-linecap="round" stroke-linejoin="round"/>
      </g>
      <path d="M17.5,6v.5a12.579,12.579,0,0,1-5.5,1,12.579,12.579,0,0,1-5.5-1v-4S7.75.5,12,.5s5.5,2,5.5,2Z" fill="none" stroke="#000" stroke-linecap="round" stroke-linejoin="round"/>
      <line x1="7.101" y1="17.204" x2="8" y2="15.5" fill="none" stroke="#000" stroke-linecap="round" stroke-linejoin="round"/>
      <line x1="16.899" y1="17.204" x2="16" y2="15.5" fill="none" stroke="#000" stroke-linecap="round" stroke-linejoin="round"/>
      <path d="M8,3a14.013,14.013,0,0,0,4,.5A14.013,14.013,0,0,0,16,3" fill="none" stroke="#000" stroke-linecap="round" stroke-linejoin="round"/>
    </g>
    <circle cx="10.5" cy="21.5" r="0.5"/>
    <circle cx="13.5" cy="21.5" r="0.5"/>
    <path d="M10.5,14.5s.312.5,1.5.5,1.5-.5,1.5-.5" fill="none" stroke="#000" stroke-linecap="round" stroke-linejoin="round"/>
  </g>
</svg>
