<svg xmlns="http://www.w3.org/2000/svg" viewBox="0 0 24 24">
  <title>Chaplin</title>
  <g>
    <path d="M12.2,23.043,7.621,21.015l-1.359-.34,1.672-2.927a.5.5,0,0,0-.658-.7L2.1,19.643A2.447,2.447,0,0,0,.812,21.216l-.78,2.11A.5.5,0,0,0,.5,24H12a.5.5,0,0,0,.2-.957Z" fill="#607d8b"/>
    <path d="M23.969,23.326l-.764-2.058a2.489,2.489,0,0,0-1.3-1.626l-5.18-2.59a.5.5,0,0,0-.658.7l1.674,2.929-1.443.366-4.5,2A.5.5,0,0,0,12,24H23.5a.5.5,0,0,0,.469-.674Z" fill="#607d8b"/>
    <path d="M17.5,8a.645.645,0,0,0-.091.009H6.592A.658.658,0,0,0,6.5,8C5.645,8,5,9.075,5,10.5c0,1.391.614,2.448,1.439,2.5.908,3.012,3.1,5,5.561,5s4.653-1.99,5.561-5c.825-.05,1.439-1.107,1.439-2.5C19,9.075,18.355,8,17.5,8Z" fill="#ffe082"/>
    <path d="M12.4,23.2l-4.5-6a.481.481,0,0,0-.431-.2.5.5,0,0,0-.4.251l-2,3.5a.5.5,0,0,0,.313.733l1.918.472,4.5,2a.5.5,0,0,0,.6-.757Z" fill="#455a64"/>
    <path d="M18.934,20.752l-2-3.5a.5.5,0,0,0-.4-.251.491.491,0,0,0-.431.2l-4.5,6a.5.5,0,0,0,.6.757l4.418-1.972,2-.5a.5.5,0,0,0,.313-.733Z" fill="#455a64"/>
    <path d="M17.5,4.5H6.5a.489.489,0,0,0-.084.007C4.825,4.78,3,5.254,3,6.5,3,8.343,7.649,9,12,9s9-.657,9-2.5C21,5.254,19.175,4.78,17.5,4.5Z" fill="#607d8b"/>
    <path d="M18,4.5V6a.493.493,0,0,1-.4.49A29.281,29.281,0,0,1,12,7a29.281,29.281,0,0,1-5.6-.51A.493.493,0,0,1,6,6V4.5a4.1,4.1,0,0,1,.13-1.06A4.512,4.512,0,0,1,10.5,0h3a4.5,4.5,0,0,1,4.37,3.43A4.181,4.181,0,0,1,18,4.5Z" fill="#455a64"/>
    <path d="M10.5,11h-1a.5.5,0,0,1,0-1h1a.5.5,0,0,1,0,1Z" fill="#455a64"/>
    <path d="M14.5,11h-1a.5.5,0,0,1,0-1h1a.5.5,0,0,1,0,1Z" fill="#455a64"/>
    <path d="M8.5,10a.5.5,0,0,1-.346-.86A2.221,2.221,0,0,1,9.5,8.5a.5.5,0,0,1,0,1,1.369,1.369,0,0,0-.654.36A.5.5,0,0,1,8.5,10Z" fill="#455a64"/>
    <path d="M15.5,10a.5.5,0,0,1-.345-.137A1.337,1.337,0,0,0,14.5,9.5a.5.5,0,0,1,0-1,2.221,2.221,0,0,1,1.346.64A.5.5,0,0,1,15.5,10Z" fill="#455a64"/>
    <path d="M13,15H11a.5.5,0,0,1-.447-.724l.5-1A.5.5,0,0,1,11.5,13h1a.5.5,0,0,1,.447.276l.5,1A.5.5,0,0,1,13,15Z" fill="#455a64"/>
    <path d="M18,4.5v.21l-.15.15C17.73,4.97,16.55,6,12,6S6.27,4.97,6.15,4.86L6,4.71V4.5a4.1,4.1,0,0,1,.13-1.06l.72.7a3.076,3.076,0,0,0,1.04.43A15.98,15.98,0,0,0,12,5c4.1,0,5.15-.86,5.16-.87l.71-.7A4.181,4.181,0,0,1,18,4.5Z" fill="#cfd8dc"/>
  </g>
  <g>
    <g>
      <g>
        <path d="M6.543,8.509c-.015,0-.028-.009-.043-.009-.552,0-1,.9-1,2s.448,2,1,2a.563.563,0,0,0,.293-.1c.735,2.962,2.786,5.1,5.207,5.1s4.471-2.135,5.206-5.1a.563.563,0,0,0,.294.1c.552,0,1-.9,1-2s-.448-2-1-2c-.015,0-.029.007-.043.009" fill="none" stroke="#000" stroke-linecap="round" stroke-linejoin="round"/>
        <path d="M.5,23.5l.777-2.108a2,2,0,0,1,1.046-1.3L7.5,17.5,5.5,21l2,.5,4.5,2Z" fill="none" stroke="#000" stroke-linecap="round" stroke-linejoin="round"/>
        <path d="M23.5,23.5l-.777-2.108a2,2,0,0,0-1.046-1.3L16.5,17.5l2,3.5-2,.5-4.5,2Z" fill="none" stroke="#000" stroke-linecap="round" stroke-linejoin="round"/>
        <polyline points="7.5 17.5 12 23.5 16.5 17.5" fill="none" stroke="#000" stroke-linecap="round" stroke-linejoin="round"/>
      </g>
      <path d="M6.5,5c-2.137.367-3,.874-3,1.5,0,1.1,3.253,2,8.5,2s8.5-.9,8.5-2c0-.626-.864-1.133-3-1.5" fill="none" stroke="#000" stroke-linecap="round" stroke-linejoin="round"/>
      <path d="M6.5,4.5s1.018,1,5.5,1,5.5-1,5.5-1" fill="none" stroke="#000" stroke-linecap="round" stroke-linejoin="round"/>
    </g>
    <path d="M6.5,6V4.5a4,4,0,0,1,4-4h3a4,4,0,0,1,4,4V6" fill="none" stroke="#000" stroke-linecap="round" stroke-linejoin="round"/>
    <g>
      <line x1="9.5" y1="10.5" x2="10.5" y2="10.5" fill="none" stroke="#000" stroke-linecap="round" stroke-linejoin="round"/>
      <line x1="13.5" y1="10.5" x2="14.5" y2="10.5" fill="none" stroke="#000" stroke-linecap="round" stroke-linejoin="round"/>
    </g>
    <path d="M9.5,9a1.831,1.831,0,0,0-1,.5" fill="none" stroke="#000" stroke-linecap="round" stroke-linejoin="round"/>
    <path d="M14.5,9a1.831,1.831,0,0,1,1,.5" fill="none" stroke="#000" stroke-linecap="round" stroke-linejoin="round"/>
    <polygon points="11.5 13.5 11 14.5 13 14.5 12.5 13.5 11.5 13.5" fill="none" stroke="#000" stroke-linecap="round" stroke-linejoin="round"/>
  </g>
</svg>
