<svg xmlns="http://www.w3.org/2000/svg" viewBox="0 0 24 24">
  <title>Master Yoda</title>
  <g>
    <path d="M18.173,14l-2.36-1.89A.5.5,0,0,0,15.5,12h-7a.5.5,0,0,0-.313.109L5.827,14a.5.5,0,0,0,.142.86c.081.029.167.055.258.081l.05.007A1.218,1.218,0,0,0,6.405,15a1.048,1.048,0,0,1,.212.1h0c.02.012.039.022.06.032C7.87,15.694,10.771,17,12,17c1.069,0,3.412-.977,5.189-1.8.019-.009.166-.088.184-.1a1.258,1.258,0,0,1,.274-.128l.126-.037c.091-.026.177-.052.258-.081a.5.5,0,0,0,.142-.86Z" fill="#388e3c"/>
    <path d="M19.631,12.692A3.8,3.8,0,0,0,16.5,10h-9a3.8,3.8,0,0,0-3.131,2.692c-.078.452-.078,1.569,1.6,2.168a.5.5,0,0,0,.48-.08L8.676,13h6.648l2.224,1.78a.5.5,0,0,0,.48.08C19.709,14.262,19.709,13.145,19.631,12.692Z" fill="#ffc107"/>
    <path d="M17.418,14.509a.5.5,0,0,0-.646-.213A17.5,17.5,0,0,1,12,16a19.066,19.066,0,0,1-4.9-1.772.5.5,0,0,0-.484.872c1.269.82,3.647,4.367,4.458,5.665a.5.5,0,0,0,.395.234H11.5a.5.5,0,0,0,.391-.187c.036-.045,3.63-4.521,5.361-5.643A.5.5,0,0,0,17.418,14.509Z" fill="#455a64"/>
    <path d="M22.442,3.459A.84.84,0,0,0,21.569,3a8.166,8.166,0,0,0-3.182,1.128c-.282.145-.634.324-.886.432a4.552,4.552,0,0,0-1.593-2.438A4.246,4.246,0,0,0,13.069,0a1.763,1.763,0,0,0-1.035.3A1.757,1.757,0,0,0,11,0,4.341,4.341,0,0,0,8.092,2.123,4.446,4.446,0,0,0,6.562,4.558c-.251-.107-.6-.286-.881-.43A8.166,8.166,0,0,0,2.5,3a.84.84,0,0,0-.873.459c-.261.6.388,1.292,1.286,2.243A7.525,7.525,0,0,1,4,7c0,.939,1.835,2.134,3.062,2.828A5.915,5.915,0,0,0,8.706,12.9,5.99,5.99,0,0,0,12,14a6.2,6.2,0,0,0,3.363-1.1,5.914,5.914,0,0,0,1.644-3.076c1.228-.694,3.063-1.888,3.061-2.8A6.687,6.687,0,0,1,21.156,5.7C22.055,4.751,22.7,4.063,22.442,3.459Z" fill="#4caf50"/>
    <path d="M10.5,8h-1a.5.5,0,0,1,0-1h1a.5.5,0,0,1,0,1Z" fill="#455a64"/>
    <path d="M14.5,8h-1a.5.5,0,0,1,0-1h1a.5.5,0,0,1,0,1Z" fill="#455a64"/>
    <path d="M9.5,5a.5.5,0,0,1-.485-.379l-.5-2a.5.5,0,1,1,.971-.242l.5,2a.5.5,0,0,1-.364.606A.513.513,0,0,1,9.5,5Z" fill="#388e3c"/>
    <path d="M7.5,7.5a.5.5,0,0,1-.354-.854c1.728-1.727,3.146-2.062,4.207-1a.5.5,0,1,1-.707.707.99.99,0,0,0-1.2-.2,5.27,5.27,0,0,0-1.593,1.2A.5.5,0,0,1,7.5,7.5Z" fill="#455a64"/>
    <path d="M14.5,5a.477.477,0,0,1-.137-.02.5.5,0,0,1-.344-.617l.569-2a.493.493,0,0,1,.617-.344.5.5,0,0,1,.344.617l-.569,2A.5.5,0,0,1,14.5,5Z" fill="#388e3c"/>
    <path d="M16.5,7.5a.5.5,0,0,1-.354-.146,5.27,5.27,0,0,0-1.593-1.2.992.992,0,0,0-1.2.2.5.5,0,0,1-.707-.707c1.063-1.062,2.48-.727,4.207,1A.5.5,0,0,1,16.5,7.5Z" fill="#455a64"/>
    <path d="M12,5.5a.5.5,0,0,1-.5-.5V1a.5.5,0,0,1,1,0V5A.5.5,0,0,1,12,5.5Z" fill="#388e3c"/>
    <path d="M22.98,23.362l-2-7a.5.5,0,0,0-.168-.253L18.173,14a.5.5,0,0,0-.483-.079c-.061.021-.126.04-.193.06l-.19.062a1.866,1.866,0,0,0-.439.2c-.045.022-.09.046-.157.087-1.5.975-4.121,4.058-5.16,5.318-.865-1.329-3.015-4.5-4.388-5.389a.541.541,0,0,0-.052-.029,2.26,2.26,0,0,0-.462-.208L6.5,13.979c-.067-.02-.133-.038-.193-.06A.494.494,0,0,0,5.827,14l-2.64,2.11a.5.5,0,0,0-.168.253l-2,7A.5.5,0,0,0,1.5,24h21a.5.5,0,0,0,.48-.638Z" fill="#ffa000"/>
    <path d="M7.5,24a.5.5,0,0,1-.474-.339,45.631,45.631,0,0,0-1.962-4.916.5.5,0,1,1,.871-.49,45.513,45.513,0,0,1,2.038,5.084.5.5,0,0,1-.312.635A.515.515,0,0,1,7.5,24Z" fill="#ffc107"/>
    <path d="M16.5,24a.515.515,0,0,1-.161-.026.5.5,0,0,1-.312-.635,45.513,45.513,0,0,1,2.038-5.084.5.5,0,1,1,.871.49,45.713,45.713,0,0,0-1.962,4.916A.5.5,0,0,1,16.5,24Z" fill="#ffc107"/>
    <path d="M11.5,24a.5.5,0,0,1-.5-.5v-3a.5.5,0,0,1,1,0v3A.5.5,0,0,1,11.5,24Z" fill="#ffc107"/>
  </g>
  <g>
    <g>
      <line x1="9.5" y1="7.5" x2="10.5" y2="7.5" fill="none" stroke="#000" stroke-linecap="round" stroke-linejoin="round"/>
      <line x1="13.5" y1="7.5" x2="14.5" y2="7.5" fill="none" stroke="#000" stroke-linecap="round" stroke-linejoin="round"/>
      <line x1="9" y1="2.5" x2="9.5" y2="4.5" fill="none" stroke="#000" stroke-linecap="round" stroke-linejoin="round"/>
      <path d="M7.5,7C8.583,5.917,9.937,4.938,11,6" fill="none" stroke="#000" stroke-linecap="round" stroke-linejoin="round"/>
      <path d="M12,13.5a5.67,5.67,0,0,0,3.069-1c1.031-.75,1.5-3,1.5-3s3-1.656,3-2.5,3.656-3.5,2-3.5-4.5,2.25-4.5,1.5S16,2.5,15.5,2.5c0-.562-1.618-2-2.431-2s-1,.5-1,.5H12s-.188-.5-1-.5-2.5,1.438-2.5,2C8,2.5,7,4.25,7,5S4.156,3.5,2.5,3.5s2,2.656,2,3.5,3,2.5,3,2.5.469,2.25,1.5,3a5.472,5.472,0,0,0,3,1" fill="none" stroke="#000" stroke-linecap="round" stroke-linejoin="round"/>
      <line x1="15.069" y1="2.5" x2="14.5" y2="4.5" fill="none" stroke="#000" stroke-linecap="round" stroke-linejoin="round"/>
      <path d="M16.5,7C15.417,5.917,14.062,4.938,13,6" fill="none" stroke="#000" stroke-linecap="round" stroke-linejoin="round"/>
      <line x1="12" y1="1" x2="12" y2="5" fill="none" stroke="#000" stroke-linecap="round" stroke-linejoin="round"/>
      <path d="M5.5,18.5a45.947,45.947,0,0,1,2,5" fill="none" stroke="#000" stroke-linecap="round" stroke-linejoin="round"/>
      <polyline points="15.5 12.5 20.5 16.5 22.5 23.5 1.5 23.5 3.5 16.5 8.5 12.5" fill="none" stroke="#000" stroke-linecap="round" stroke-linejoin="round"/>
      <path d="M18.5,18.5a45.947,45.947,0,0,0-2,5" fill="none" stroke="#000" stroke-linecap="round" stroke-linejoin="round"/>
      <path d="M16.5,10.5c1.458,0,4.583,3.042,1,4-1.51.4-6,6-6,6s-3.491-5.6-5-6c-3.583-.958-.458-4,1-4" fill="none" stroke="#000" stroke-linecap="round" stroke-linejoin="round"/>
    </g>
    <line x1="11.5" y1="20.5" x2="11.5" y2="23.5" fill="none" stroke="#000" stroke-linecap="round" stroke-linejoin="round"/>
    <path d="M6.5,14.5s4.125,2,5.5,2,5.5-2,5.5-2" fill="none" stroke="#000" stroke-linecap="round" stroke-linejoin="round"/>
  </g>
</svg>
