<svg xmlns="http://www.w3.org/2000/svg" viewBox="0 0 24 24">
  <title>Dispacher 2</title>
  <g>
    <g>
      <path d="M20.854,13.146C19.9,12.19,19,8.615,19,7a.5.5,0,0,0-.5-.5H5.5A.5.5,0,0,0,5,7c0,1.615-.9,5.19-1.854,6.146a.5.5,0,0,0,0,.707C4.252,14.959,8.015,15.445,8.5,15.5l7.061,0c.425-.052,4.188-.537,5.293-1.643A.5.5,0,0,0,20.854,13.146Z" fill="#455a64"/>
      <path d="M18.8,8.227a.5.5,0,0,0-.473-.337c-4.122,0-8.18-3.732-8.33-4.39a.5.5,0,0,0-1,0C9,6.493,5.521,7.911,5.485,7.925a.5.5,0,0,0-.288.3A3.96,3.96,0,0,0,5,9.5c0,1.395.617,2.454,1.445,2.5C7.351,15.01,9.536,17,12,17s4.649-1.99,5.555-5c.828-.045,1.445-1.1,1.445-2.5A3.96,3.96,0,0,0,18.8,8.227Z" fill="#ffe082"/>
      <path d="M12,0A7.008,7.008,0,0,0,5,7a6.819,6.819,0,0,0,.182,1.5.5.5,0,0,0,.488.392.508.508,0,0,0,.184-.035C6,8.8,8.992,7.585,9.8,4.882,11.36,6.59,14.95,8.89,18.33,8.89a.5.5,0,0,0,.488-.392A6.819,6.819,0,0,0,19,7,7.008,7.008,0,0,0,12,0Z" fill="#455a64"/>
      <path d="M10.5,10h-1a.5.5,0,0,1,0-1h1a.5.5,0,0,1,0,1Z" fill="#455a64"/>
      <path d="M14.5,10h-1a.5.5,0,0,1,0-1h1a.5.5,0,0,1,0,1Z" fill="#455a64"/>
    </g>
    <path d="M12.277,23.084l-4.5-3a.51.51,0,0,0-.156-.069l-1.359-.34,1.672-2.927a.5.5,0,0,0-.658-.7L2.1,18.643A2.487,2.487,0,0,0,.8,20.268l-.78,3.11A.5.5,0,0,0,.5,24H12a.5.5,0,0,0,.277-.916Z" fill="#607d8b"/>
    <path d="M23.985,23.378l-.78-3.109a2.489,2.489,0,0,0-1.3-1.626l-5.18-2.59a.5.5,0,0,0-.658.7l1.672,2.927-1.359.34a.51.51,0,0,0-.156.069l-4.5,3A.5.5,0,0,0,12,24H23.5a.5.5,0,0,0,.485-.622Z" fill="#607d8b"/>
    <path d="M12.42,23.229l-4.5-7A.521.521,0,0,0,7.487,16a.5.5,0,0,0-.421.252l-2,3.5a.5.5,0,0,0,.313.733l1.916.479,4.428,2.952a.5.5,0,0,0,.7-.687Z" fill="#455a64"/>
    <path d="M18.934,19.752l-2-3.5A.5.5,0,0,0,16.513,16a.533.533,0,0,0-.434.229l-4.5,7a.5.5,0,0,0,.7.687l4.428-2.952,1.916-.479a.5.5,0,0,0,.313-.733Z" fill="#455a64"/>
    <path d="M18.5,11.5a.5.5,0,0,0-1,0c0,1.274-2.45,1.9-3.7,1.987A1.688,1.688,0,0,0,12.5,13c-.869,0-1.5.421-1.5,1s.631,1,1.5,1a1.66,1.66,0,0,0,1.32-.512C15.339,14.39,18.5,13.627,18.5,11.5Z" fill="#607d8b"/>
  </g>
  <g>
    <g>
      <path d="M18.5,7a6.5,6.5,0,0,0-13,0,6.443,6.443,0,0,0,.168,1.391A3.545,3.545,0,0,0,5.5,9.5c0,1.1.448,2,1,2a.565.565,0,0,0,.3-.1c.734,2.963,2.783,5.1,5.2,5.1s4.47-2.136,5.2-5.1a.565.565,0,0,0,.3.1c.552,0,1-.9,1-2a3.545,3.545,0,0,0-.168-1.109A6.443,6.443,0,0,0,18.5,7Z" fill="none" stroke="#000" stroke-linecap="round" stroke-linejoin="round"/>
      <path d="M5.668,8.391S9.5,6.875,9.5,3.5c0,.906,4.457,4.891,8.832,4.891" fill="none" stroke="#000" stroke-linecap="round" stroke-linejoin="round"/>
      <line x1="9.5" y1="9.5" x2="10.5" y2="9.5" fill="none" stroke="#000" stroke-linecap="round" stroke-linejoin="round"/>
      <line x1="13.5" y1="9.5" x2="14.5" y2="9.5" fill="none" stroke="#000" stroke-linecap="round" stroke-linejoin="round"/>
    </g>
    <path d="M5.5,7c0,1.656-.906,5.406-2,6.5,1.016,1.016,5,1.5,5,1.5" fill="none" stroke="#000" stroke-linecap="round" stroke-linejoin="round"/>
    <path d="M18.5,7c0,1.656.906,5.406,2,6.5-1.016,1.016-5,1.5-5,1.5" fill="none" stroke="#000" stroke-linecap="round" stroke-linejoin="round"/>
    <path d="M.5,23.5l.777-3.108a2,2,0,0,1,1.046-1.3L7.5,16.5,5.5,20l2,.5,4.5,3Z" fill="none" stroke="#000" stroke-linecap="round" stroke-linejoin="round"/>
    <path d="M23.5,23.5l-.777-3.108a2,2,0,0,0-1.046-1.3L16.5,16.5l2,3.5-2,.5-4.5,3Z" fill="none" stroke="#000" stroke-linecap="round" stroke-linejoin="round"/>
    <polyline points="7.5 16.5 12 23.5 16.5 16.5" fill="none" stroke="#000" stroke-linecap="round" stroke-linejoin="round"/>
    <ellipse cx="12.5" cy="14" rx="1" ry="0.5" fill="none" stroke="#000" stroke-linecap="round" stroke-linejoin="round"/>
    <path d="M18,11.5c0,1.875-3.375,2.5-4.5,2.5" fill="none" stroke="#000" stroke-linecap="round" stroke-linejoin="round"/>
  </g>
</svg>
