<svg xmlns="http://www.w3.org/2000/svg" viewBox="0 0 24 24">
  <title>Waitress</title>
  <g>
    <g>
      <path d="M20.854,13.146C19.9,12.19,19,8.615,19,7a.5.5,0,0,0-.5-.5H5.5A.5.5,0,0,0,5,7c0,1.615-.9,5.19-1.854,6.146a.5.5,0,0,0,0,.707C4.252,14.959,8.015,15.445,8.5,15.5l7.061,0c.425-.052,4.188-.537,5.293-1.643A.5.5,0,0,0,20.854,13.146Z" fill="#455a64"/>
      <path d="M18.8,8.227a.5.5,0,0,0-.473-.337c-4.122,0-8.18-3.732-8.33-4.39a.5.5,0,0,0-1,0C9,6.493,5.521,7.911,5.485,7.925a.5.5,0,0,0-.288.3A3.96,3.96,0,0,0,5,9.5c0,1.395.617,2.454,1.445,2.5C7.351,15.01,9.536,17,12,17s4.649-1.99,5.555-5c.828-.045,1.445-1.1,1.445-2.5A3.96,3.96,0,0,0,18.8,8.227Z" fill="#ffe082"/>
      <path d="M12,0A7.008,7.008,0,0,0,5,7a6.819,6.819,0,0,0,.182,1.5.5.5,0,0,0,.488.392.508.508,0,0,0,.184-.035C6,8.8,8.992,7.585,9.8,4.882,11.36,6.59,14.95,8.89,18.33,8.89a.5.5,0,0,0,.488-.392A6.819,6.819,0,0,0,19,7,7.008,7.008,0,0,0,12,0Z" fill="#455a64"/>
      <path d="M10.5,10h-1a.5.5,0,0,1,0-1h1a.5.5,0,0,1,0,1Z" fill="#455a64"/>
      <path d="M14.5,10h-1a.5.5,0,0,1,0-1h1a.5.5,0,0,1,0,1Z" fill="#455a64"/>
    </g>
    <path d="M12.42,23.229l-4.5-7a.5.5,0,0,0-.644-.177l-4.36,2.18a.5.5,0,0,0-.109.82l.35.312c.008.009.842.884.842,4.136a.5.5,0,0,0,.5.5H12a.5.5,0,0,0,.42-.771Z" fill="#607d8b"/>
    <path d="M3.833,18.627l-.36-.32a.5.5,0,0,0-.556-.074l-.82.41A2.487,2.487,0,0,0,.8,20.268l-.78,3.11A.5.5,0,0,0,.5,24h4a.5.5,0,0,0,.5-.5C5,19.762,3.95,18.729,3.833,18.627Z" fill="#455a64"/>
    <path d="M21.083,18.232l-4.36-2.18a.5.5,0,0,0-.644.177l-4.5,7A.5.5,0,0,0,12,24h7.5a.5.5,0,0,0,.5-.5c0-3.25.833-4.127.833-4.127l.359-.32a.5.5,0,0,0-.109-.82Z" fill="#607d8b"/>
    <path d="M23.985,23.378l-.78-3.109a2.489,2.489,0,0,0-1.3-1.626l-.82-.41a.5.5,0,0,0-.556.074l-.357.318c-.12.1-1.17,1.137-1.17,4.875a.5.5,0,0,0,.5.5h4a.5.5,0,0,0,.485-.622Z" fill="#455a64"/>
    <path d="M13.792,17.095a.5.5,0,0,0-.451-.069L12,17.473l-1.342-.447A.5.5,0,0,0,10,17.5v1a.5.5,0,0,0,.208.405.5.5,0,0,0,.451.069L12,18.527l1.342.447A.518.518,0,0,0,13.5,19a.5.5,0,0,0,.5-.5v-1A.5.5,0,0,0,13.792,17.095Z" fill="#f44336"/>
    <path d="M17.5,22h-2a.5.5,0,0,1,0-1h2a.5.5,0,0,1,0,1Z" fill="#fafafa"/>
    <path d="M12,14.5c-1.394,0-1.847-.612-1.924-.735a.5.5,0,0,1,.833-.552c.026.027.289.287,1.091.287.844,0,1.091-.287,1.093-.29a.486.486,0,0,1,.68-.146.512.512,0,0,1,.15.7C13.847,13.888,13.394,14.5,12,14.5Z" fill="#455a64"/>
  </g>
  <g>
    <g>
      <path d="M12,23.5l-4.5-7L2.323,19.089a2,2,0,0,0-1.046,1.3L.5,23.5h23l-.777-3.108a2,2,0,0,0-1.046-1.3L16.5,16.5l-4.5,7" fill="none" stroke="#000" stroke-linecap="round" stroke-linejoin="round"/>
      <path d="M10.5,13.5s.312.5,1.5.5,1.5-.5,1.5-.5" fill="none" stroke="#000" stroke-linecap="round" stroke-linejoin="round"/>
      <path d="M18.5,7a6.5,6.5,0,0,0-13,0,6.443,6.443,0,0,0,.168,1.391A3.545,3.545,0,0,0,5.5,9.5c0,1.1.448,2,1,2a.565.565,0,0,0,.3-.1c.734,2.963,2.783,5.1,5.2,5.1s4.47-2.136,5.2-5.1a.565.565,0,0,0,.3.1c.552,0,1-.9,1-2a3.545,3.545,0,0,0-.168-1.109A6.443,6.443,0,0,0,18.5,7Z" fill="none" stroke="#000" stroke-linecap="round" stroke-linejoin="round"/>
      <path d="M5.668,8.391S9.5,6.875,9.5,3.5c0,.906,4.457,4.891,8.832,4.891" fill="none" stroke="#000" stroke-linecap="round" stroke-linejoin="round"/>
      <line x1="9.5" y1="9.5" x2="10.5" y2="9.5" fill="none" stroke="#000" stroke-linecap="round" stroke-linejoin="round"/>
      <line x1="13.5" y1="9.5" x2="14.5" y2="9.5" fill="none" stroke="#000" stroke-linecap="round" stroke-linejoin="round"/>
      <path d="M5.5,7c0,1.656-.906,5.406-2,6.5,1.016,1.016,5,1.5,5,1.5" fill="none" stroke="#000" stroke-linecap="round" stroke-linejoin="round"/>
      <path d="M18.5,7c0,1.656.906,5.406,2,6.5-1.016,1.016-5,1.5-5,1.5" fill="none" stroke="#000" stroke-linecap="round" stroke-linejoin="round"/>
    </g>
    <path d="M3.5,19s1,.875,1,4.5" fill="none" stroke="#000" stroke-linecap="round" stroke-linejoin="round"/>
    <path d="M20.5,19s-1,.875-1,4.5" fill="none" stroke="#000" stroke-linecap="round" stroke-linejoin="round"/>
    <polygon points="10.5 17.5 10.5 18.5 12 18 13.5 18.5 13.5 17.5 12 18 10.5 17.5" fill="none" stroke="#000" stroke-linecap="round" stroke-linejoin="round"/>
    <line x1="15.5" y1="21.5" x2="17.5" y2="21.5" fill="none" stroke="#000" stroke-linecap="round" stroke-linejoin="round"/>
  </g>
</svg>
